<?xml version="1.0" encoding="utf-8"?>
<!-- Generator: Adobe Illustrator 19.2.1, SVG Export Plug-In . SVG Version: 6.00 Build 0)  -->
<svg version="1.1" id="Layer_1" xmlns="http://www.w3.org/2000/svg" xmlns:xlink="http://www.w3.org/1999/xlink" x="0px" y="0px"
	 viewBox="0 0 391.7 227" style="enable-background:new 0 0 391.7 227;" xml:space="preserve">
<style type="text/css">
	.st0{fill:#808285;}
</style>
<g>
	<path class="st0" d="M381.6,225.1h7.7v-7.7V8.9V1.1h-7.7H9.2H1.5v7.7v208.6v7.7h7.7H381.6z M16.9,16.6h357v193.2h-357
		C16.9,209.8,16.9,16.6,16.9,16.6z"/>
	<polygon class="st0" points="39.9,184.7 118,184.7 118,167.1 59.9,167.1 59.9,121.1 112.8,121.1 112.8,103.5 59.9,103.5 59.9,62.8 
		118,62.8 118,45.2 39.9,45.2 	"/>
	<polygon class="st0" points="229.7,103.5 162.9,103.5 162.9,45.2 143,45.2 143,184.7 162.9,184.7 162.9,121.1 229.7,121.1 
		229.7,184.7 249.6,184.7 249.6,45.2 229.7,45.2 	"/>
	<path class="st0" d="M291,79c0-14.6,13.2-18.6,24.4-18.6c10.4,0,16,1.8,26.2,5.8l2.8-18.4c-9.6-3.4-20.6-5-29.8-5
		c-25.2,0-44.7,13.2-44.7,38c0,43.4,59.9,34.8,59.9,65.9c0,16.4-16,22.8-27.4,22.8c-10.2,0-22.2-4-29-6.8l-2,18.6
		c9.2,3,18.8,5.8,28.6,5.8c28,0,50.9-11.8,50.9-41.6C350.9,99.5,291,105.7,291,79z"/>
</g>
</svg>
