<svg width="885" height="540" viewBox="0 0 885 540" fill="none" xmlns="http://www.w3.org/2000/svg">
<g clip-path="url(#clip0)">
<rect width="885" height="540" fill="white"/>
<rect x="-21" y="-13" width="933" height="566" fill="#F0F0F0"/>
<path d="M68 504L74.2857 559L126.143 555.284L178 551.568V510.937L68 504Z" fill="#8791A2"/>
<path d="M243.488 352.382L269.688 422.777L300.595 407.859L331.502 392.94L315.049 340.034L243.488 352.382Z" fill="#CACACA"/>
<path d="M143.582 367.332L158.001 416.442C158.322 417.533 159.486 418.138 160.562 417.773L190.043 407.78L219.807 397.692C220.77 397.365 221.335 396.368 221.119 395.374L213.188 358.82C212.971 357.815 212.027 357.14 211.006 357.257L145.273 364.782C144.04 364.923 143.232 366.141 143.582 367.332Z" fill="#CACACA"/>
<path d="M275 502L279 557.5L312 553.75L345 550V509L275 502Z" fill="#565656"/>
<path d="M95.1206 418.1L102.36 514.15C102.438 515.194 103.308 516 104.354 516H186.296H257.566C258.826 516 259.772 514.848 259.528 513.612L232.54 377.166C232.311 376.006 231.131 375.297 229.999 375.64L96.5355 416.035C95.6383 416.307 95.0501 417.165 95.1206 418.1Z" fill="#565656"/>
<path d="M153 352.975V324.562L259.859 383.242V412.891L153 352.975Z" fill="#5C6370"/>
<path d="M309.274 328.885L334.599 340.004L266.036 386.948L259.859 383.859L309.274 328.885Z" fill="white" stroke="#B7BAD3" stroke-linejoin="round"/>
<path d="M334.599 358.534C328.669 359.523 282.302 395.184 259.859 412.891V383.859C312.239 346.798 331.511 338.768 334.599 340.004V358.534Z" fill="white" stroke="#B7BAD3" stroke-linejoin="round"/>
<path d="M153 324.562L221.247 277.642C221.826 277.244 222.572 277.179 223.211 277.471L335.475 328.774C336.18 329.096 336.267 330.062 335.631 330.505L259.859 383.242L153 324.562Z" fill="#8791A3"/>
<path d="M334.599 344.945C331.511 345.563 323.481 348.034 316.069 352.975" stroke="#B7BAD3" stroke-linecap="round"/>
<path d="M334.599 351.122C331.511 351.74 320.392 356.681 300.627 371.506" stroke="#B7BAD3" stroke-linecap="round"/>
<path d="M207.172 333.413C207.731 334.123 208.344 334.502 209.121 335C210.562 335.924 212.013 337.045 213.581 337.752C214.893 338.345 216.283 338.798 217.558 339.48C219.464 340.498 221.653 341.259 223.445 342.453" stroke="white" stroke-width="2" stroke-linecap="round" stroke-linejoin="round"/>
<path d="M207.172 333.413C208.795 331.432 211.165 329.76 213.631 328.973C215.956 328.231 218.514 328.083 220.934 327.968C222.962 327.873 224.238 328.017 225.986 329.003C228.472 330.405 230.267 333.356 230.135 336.306C230.008 339.158 228.131 340.498 225.795 341.549" stroke="white" stroke-width="2" stroke-linecap="round" stroke-linejoin="round"/>
<path d="M228.869 319.671C227.011 319.824 224.94 320.076 223.284 320.997C221.766 321.842 221.49 323.779 222.702 325.005C224.564 326.889 227.06 328.742 229.412 329.957C231.088 330.823 233.882 331.788 235.801 331.404C236.991 331.166 238.644 330.685 239.276 329.535C240.176 327.898 239.854 325.661 239.166 324.021C237.558 320.191 232.129 319.99 228.689 319.671" stroke="white" stroke-width="2" stroke-linecap="round" stroke-linejoin="round"/>
<path d="M238.273 310.393C236.4 310.253 235.229 310.464 233.572 311.642C232.703 312.259 232.4 313.621 232.219 314.575C232.043 315.504 231.905 316.748 232.454 317.604C233.671 319.498 236.536 320.796 238.543 321.559C240.84 322.433 246.623 324.011 247.847 320.691C248.263 319.565 248.165 318.084 247.847 316.919" stroke="white" stroke-width="2" stroke-linecap="round" stroke-linejoin="round"/>
<path d="M245.246 304.178C243.648 304.178 242.445 305.396 242.023 306.985C241.351 309.513 245.295 309.808 246.839 309.726C248.314 309.647 249.422 308.807 250.793 308.614C252.219 308.414 253.803 308.553 255.065 309.283C256.104 309.884 256.786 311.568 256.771 312.73C256.748 314.453 256.517 315.663 254.709 316.168C252.265 316.851 250.022 316.628 248.113 315.028" stroke="white" stroke-width="2" stroke-linecap="round" stroke-linejoin="round"/>
<path d="M204.216 508.354L212.557 375.086C212.66 373.433 214.084 372.176 215.738 372.279L343.351 380.266C345.004 380.369 346.261 381.794 346.157 383.447L337.817 516.715C337.714 518.369 336.289 519.625 334.635 519.522L207.023 511.535C205.369 511.432 204.113 510.007 204.216 508.354Z" fill="#FF5757"/>
<path d="M204.216 508.354L211.058 399.033L344.659 407.395L337.817 516.715C337.713 518.369 336.289 519.625 334.635 519.522L207.023 511.535C205.369 511.432 204.113 510.007 204.216 508.354Z" fill="#CACACA"/>
<rect x="222.906" y="368.47" width="5.66613" height="18.4149" rx="2" transform="rotate(3.58109 222.906 368.47)" fill="#333333"/>
<rect x="331.059" y="375.239" width="5.66613" height="18.4149" rx="2" transform="rotate(3.58109 331.059 375.239)" fill="#333333"/>
<path d="M214.376 402.709L239.117 404.258L263.858 405.806L288.599 407.354L314.4 408.969L340.201 410.584L338.874 431.79L337.591 452.29L336.22 474.203L334.871 495.763L333.797 512.915C333.694 514.569 332.269 515.825 330.616 515.722L307.809 514.295L282.007 512.68L257.266 511.131L232.526 509.583L210.779 508.222C209.125 508.119 207.868 506.694 207.972 505.041L209.045 487.889L210.395 466.329L211.766 444.415L213.049 423.916L214.376 402.709Z" fill="white"/>
<path d="M239.117 404.258L214.376 402.709L213.049 423.916M239.117 404.258L232.526 509.583M239.117 404.258L263.858 405.806M232.526 509.583L210.779 508.222C209.125 508.119 207.868 506.694 207.972 505.041L209.045 487.889M232.526 509.583L257.266 511.131M263.858 405.806L257.266 511.131M263.858 405.806L288.599 407.354M257.266 511.131L282.007 512.68M288.599 407.354L282.007 512.68M288.599 407.354L314.4 408.969M282.007 512.68L307.809 514.295M314.4 408.969L340.201 410.584L338.874 431.79M314.4 408.969L307.809 514.295M307.809 514.295L330.616 515.722C332.269 515.825 333.694 514.569 333.797 512.915L334.871 495.763M213.049 423.916L338.874 431.79M213.049 423.916L211.766 444.415M338.874 431.79L337.591 452.29M211.766 444.415L337.591 452.29M211.766 444.415L210.395 466.329M337.591 452.29L336.22 474.203M210.395 466.329L336.22 474.203M210.395 466.329L209.045 487.889M336.22 474.203L334.871 495.763M209.045 487.889L334.871 495.763" stroke="#CACACA" stroke-width="2"/>
<path d="M299.781 572.938L162.725 541.536C161.349 538.099 158.645 528.375 158.839 516.972C159.034 505.569 170.73 496.691 176.553 493.677L312.225 523.886L299.781 572.938Z" fill="white"/>
<path d="M300.183 571.356L302.002 564.184M311.503 526.735L309.481 534.703M162.413 533.012L202.436 542.317M161.653 522.642L224.178 536.808M162.626 516.104L203.334 525.414M172.496 499.95L233.226 514.509M302.002 564.184L238.68 549.816M302.002 564.184L305.439 550.639M305.439 550.639L258.841 540.513M305.439 550.639L308.269 539.483M309.481 534.703L266.866 525.588M309.481 534.703L308.269 539.483M308.269 539.483L248.726 526.922M165.291 508.299L218.854 521.04" stroke="#B7BAD3" stroke-linecap="round"/>
<path d="M166.767 540.532L302.113 571.533C302.66 571.659 302.997 572.21 302.859 572.754L302.147 575.561C302.013 576.088 301.484 576.412 300.954 576.29L162.375 544.471C162.176 544.425 162 544.326 161.871 544.167C160.499 542.487 152.583 531.792 157.176 513.687C160.324 501.282 169.679 494.495 175.298 491.121C175.517 490.989 175.776 490.95 176.025 491.007L314.555 522.483C315.103 522.608 315.441 523.159 315.303 523.704L314.591 526.51C314.458 527.037 313.928 527.36 313.399 527.239L177.961 496.217C177.784 496.177 177.602 496.183 177.431 496.246C173.928 497.532 166.489 502.911 162.738 515.098C158.983 527.295 163.389 536.75 166.243 540.215C166.377 540.378 166.562 540.485 166.767 540.532Z" fill="#8F663F"/>
<path d="M168.04 382.267L128.746 403.746L139.077 417.848L171.766 432.78L203.874 406.256L209.515 390.356L168.04 382.267Z" fill="#FFAA00"/>
<path d="M147.747 417.828C139.809 410.981 134.313 406.432 128.747 403.746L130.337 425.306L172.856 447.564L210.832 408.221L209.515 390.356L171.448 428.468C164.315 426.929 151.653 421.198 147.747 417.828Z" fill="#FFC960"/>
<path d="M159.83 371.724C150.794 376.85 138.956 380.289 130.667 379.868C134.5 388.5 139.997 393.378 143.92 399.53C148.822 407.22 159.36 415.733 167.55 417.606C171.246 417.334 208.671 387.322 211.479 383.398C207.957 382.667 193.211 362.449 186.142 350.583C181.227 356.726 168.866 366.598 159.83 371.724Z" fill="#FFC960"/>
<path d="M171.5 427L172.811 446.948" stroke="#FFAA00" stroke-linecap="round"/>
<path d="M172.493 442.636L183.995 430.639M171.948 435.244L181.213 426.509M172.175 438.324L159.355 432.456M172.584 443.868L148.792 431.997" stroke="#FFAA00" stroke-linecap="round"/>
<path d="M109.803 387.801C106.714 387.801 30.7393 461.305 28.8862 466.864C28.8862 470.571 64.7119 503.926 68.418 503.308C72.1241 502.69 151.188 430.421 150.57 427.95C149.952 425.48 112.891 387.801 109.803 387.801Z" fill="#5C6370"/>
<path d="M109.835 394.595C107.264 394.595 44.0179 455.91 42.4753 460.547C42.4753 463.639 72.2989 491.462 75.3841 490.947C78.4693 490.432 144.287 430.148 143.773 428.087C143.258 426.026 112.406 394.595 109.835 394.595Z" fill="#B7BAD3"/>
<circle cx="52.3582" cy="481.071" r="4.44147" stroke="white"/>
<circle cx="103.008" cy="432.892" r="11.1183" fill="#333333"/>
<path d="M93.1255 435.313L96.4293 435.313C96.1738 434.259 95.5499 430.943 97.7517 428.555C100.504 425.571 104.38 426.691 106.37 428.525C109.023 430.972 108.897 435.1 107.037 437.118C104.897 439.439 102.338 439.33 101.072 439.594L100.615 442.846" stroke="white" stroke-linecap="round" stroke-linejoin="round"/>
<path d="M99.9199 431.656C100.026 431.894 99.8685 431.987 99.9801 431.541" stroke="white" stroke-linecap="round" stroke-linejoin="round"/>
<path d="M103.626 434.49C103.732 434.728 103.575 434.821 103.686 434.374" stroke="white" stroke-linecap="round" stroke-linejoin="round"/>
<path d="M98.5515 433.878C99.3898 435.291 100.367 436.164 101.928 436.476" stroke="white" stroke-linecap="round" stroke-linejoin="round"/>
<path d="M79.59 445.813C76.3467 445.258 72.5312 446.799 72.3672 448.928L72.1564 451.666L71.1724 464.439C71.0084 466.568 74.5429 468.676 77.833 468.623C77.833 468.623 80.9021 466.106 78.3249 462.237C77.0843 462.345 75.1285 461.073 75.4565 456.815C75.7845 452.557 77.8886 451.903 79.098 452.2C82.2374 448.771 79.59 445.813 79.59 445.813Z" fill="#333333"/>
<path d="M213.33 472.822L197.276 435.697L36.375 511.84C35.4182 514.754 30.527 524.683 34.2845 533.372C37.6647 541.188 45.1967 546.155 49.345 548.424L213.33 472.822Z" fill="white"/>
<path d="M197.689 436.652L214 474" stroke="#B7BAD3"/>
<path d="M199.754 441.428L110.47 482.967M202.956 448.831L158.536 469.017M208.647 461.992L102.128 511.961M211.848 469.395L144.597 500.43" stroke="#B7BAD3" stroke-linecap="round"/>
<path d="M33.4109 533.974C37.709 543.913 46.0176 549.465 50.0162 551.198C50.2692 551.307 50.5558 551.297 50.8057 551.181L215.227 474.412C215.717 474.183 215.937 473.606 215.722 473.109L215.476 472.541C215.252 472.023 214.646 471.793 214.135 472.032L51.3955 548.069C51.1271 548.195 50.8188 548.198 50.5551 548.063C47.1987 546.343 40.3279 541.197 36.6066 532.592C32.8286 523.856 35.3178 515.772 37.163 512.558C37.2604 512.388 37.4097 512.257 37.5871 512.174L198.933 436.732C199.423 436.503 199.642 435.925 199.428 435.429L199.181 434.86C198.958 434.343 198.351 434.112 197.84 434.351L34.9813 510.445C34.784 510.537 34.6226 510.69 34.5219 510.883C32.6957 514.386 28.696 523.071 33.4109 533.974Z" fill="#FF5757"/>
<path d="M74.3778 489.3C79.7735 520.636 100.329 570.365 114.207 596.162L135.396 563.657C130.696 562.012 122.189 522.861 107.317 481.193C93.438 442.308 68.9822 457.964 74.3778 489.3Z" fill="#D5C8AD"/>
<ellipse rx="9.26527" ry="8.64758" transform="matrix(0.844888 0.534943 -0.534942 0.844889 92.0687 489.802)" fill="#565656"/>
<ellipse cx="80.4196" cy="479.82" rx="4.57627" ry="2.88526" transform="rotate(41.9927 80.4196 479.82)" fill="#565656"/>
<ellipse rx="3.51849" ry="2.88527" transform="matrix(-0.275201 0.961387 -0.961386 -0.275203 97.5254 476.648)" fill="#565656"/>
<ellipse cx="84.4453" cy="474.012" rx="4.57626" ry="2.88527" transform="rotate(65.7784 84.4453 474.012)" fill="#565656"/>
<ellipse cx="90.7777" cy="472.476" rx="4.57626" ry="2.88527" transform="rotate(79.4981 90.7777 472.476)" fill="#565656"/>
<path d="M297.03 492.274C286.203 522.171 257.215 567.506 239.014 590.457L223.876 554.73C228.793 553.939 244.058 516.896 266.032 478.496C286.538 442.661 307.857 462.377 297.03 492.274Z" fill="#D5C8AD"/>
<ellipse rx="9.26527" ry="8.64758" transform="matrix(-0.925854 0.377881 0.377882 0.925854 279.526 489.655)" fill="#565656"/>
<ellipse rx="4.57626" ry="2.88527" transform="matrix(-0.849385 0.527774 0.527775 0.849384 292.751 481.878)" fill="#565656"/>
<ellipse rx="3.51848" ry="2.88527" transform="matrix(0.101691 0.994816 0.994816 -0.101691 276.47 475.745)" fill="#565656"/>
<ellipse rx="4.57626" ry="2.88527" transform="matrix(-0.564379 0.825516 0.825518 0.564377 289.81 475.453)" fill="#565656"/>
<ellipse rx="4.57626" ry="2.88527" transform="matrix(-0.352487 0.935817 0.935818 0.352484 283.847 472.826)" fill="#565656"/>
<path d="M622.582 541.267C648.863 533.28 666.139 521.828 673.104 506.035C681.609 511.465 701.066 510.768 691.718 526.264C680.031 545.634 649.788 551.515 617.929 563.869C568.624 582.987 524.88 546.379 509.227 526.264C493.574 506.148 488.566 489.711 491.225 462.456C493.884 435.201 496.542 455.154 499.202 471.773C501.861 488.392 510.566 504.233 531.11 518.961C551.655 533.688 591.358 550.756 622.582 541.267Z" fill="#D5C8AD"/>
<path d="M499.202 471.773C501.861 488.392 510.566 504.233 531.11 518.961C519.599 511.329 511.725 520.65 509.227 526.264C493.574 506.148 488.566 489.711 491.225 462.456C493.884 435.201 496.542 455.154 499.202 471.773Z" fill="#7D4E24"/>
<path d="M569.979 292.657C549.771 308.08 561.559 330.992 569.979 339.855C586.155 327.225 617.709 300.368 614.518 293.987C610.53 286.009 595.24 273.379 569.979 292.657Z" fill="#7D4E24"/>
<path d="M774.95 294.18C795.159 309.602 783.37 332.514 774.95 341.378C758.774 328.747 727.22 301.891 730.411 295.509C734.4 287.532 749.689 274.901 774.95 294.18Z" fill="#7D4E24"/>
<path d="M565.326 347.167C579.95 381.735 605.876 389.047 605.876 393.701C604.547 397.246 601.223 401.013 598.564 401.013C593.204 401.013 570.647 364.266 540.729 327.225C512.81 292.657 493.531 317.253 510.15 347.167C526.769 377.082 565.326 420.291 588.592 441.564C584.87 493.149 592.802 537.068 597.234 552.579C647.534 557.675 750.262 562.949 758.771 543.272C767.28 523.595 763.646 471.256 760.101 445.552C783.146 416.967 831.188 359.667 837.878 345.173C849.844 319.248 838.649 305.881 818.6 319.248C798.657 332.543 749.778 403.007 746.806 403.007C743.482 403.007 742.817 399.019 740.158 396.36C742.152 391.706 760.101 383.065 781.373 347.167C744.146 292.657 727.531 276.038 667.699 276.038C592.581 276.038 565.326 345.173 565.326 347.167Z" fill="#D5C8AD"/>
<ellipse rx="9.97141" ry="9.30665" transform="matrix(-0.971474 0.237144 0.237145 0.971474 820.573 339.917)" fill="#565656"/>
<ellipse rx="4.92504" ry="3.10517" transform="matrix(-0.917957 0.396681 0.396678 0.917958 835.884 333.739)" fill="#565656"/>
<ellipse rx="3.78665" ry="3.10517" transform="matrix(-0.0461976 0.998932 0.998932 0.0461974 819.528 324.626)" fill="#565656"/>
<ellipse rx="4.92504" ry="3.10517" transform="matrix(-0.679997 0.733215 0.733212 0.68 833.774 326.433)" fill="#565656"/>
<ellipse rx="4.92504" ry="3.10517" transform="matrix(-0.486698 0.873571 0.873569 0.4867 827.844 322.69)" fill="#565656"/>
<path d="M674.108 407.263C698.308 407.263 708.556 407.844 740.823 395.695C737.865 401.634 731.516 409.813 712.589 421.215C694.942 431.846 686.312 432.554 674.347 432.554C674.347 423.645 674.108 407.263 674.108 407.263Z" fill="#C7B695"/>
<path d="M675.167 366.459C672.584 368.502 667.885 367.051 664.096 365.527C661.241 364.232 656.847 364.283 654.231 368.161C650.959 373.009 657.479 374.311 659.226 373.253C660.972 372.195 665.988 372.703 665.82 375.466C665.427 381.912 668.12 382.609 671.873 382.304C676.425 381.934 674.16 376.62 675.833 374.652C677.505 372.683 680.31 373.372 683.951 373.076C687.592 372.78 688.207 369.065 686.09 365.572C683.974 362.078 677.75 364.417 675.167 366.459Z" fill="#7D4E24"/>
<ellipse cx="527.534" cy="337.64" rx="9.97142" ry="9.30665" transform="rotate(10.4599 527.534 337.64)" fill="#565656"/>
<ellipse rx="4.92504" ry="3.10517" transform="matrix(0.939019 0.343866 -0.343865 0.939019 511.897 332.343)" fill="#565656"/>
<ellipse cx="527.708" cy="322.315" rx="3.78665" ry="3.10517" transform="rotate(84.094 527.708 322.315)" fill="#565656"/>
<ellipse rx="4.92504" ry="3.10517" transform="matrix(0.720572 0.69338 -0.69338 0.720573 513.588 324.929)" fill="#565656"/>
<ellipse rx="4.92504" ry="3.10517" transform="matrix(0.535563 0.844495 -0.844496 0.535561 519.296 320.854)" fill="#565656"/>
<path d="M690.624 325.634L690.624 325.634C681.491 337.507 683.318 347.553 685.144 353.946C686.971 360.339 698.844 362.165 706.15 364.905C713.456 367.645 725.329 363.992 734.461 358.512C743.594 353.033 745.421 342.986 747.247 336.594C749.074 330.201 742.681 321.981 739.028 318.328C735.375 314.675 728.068 311.935 716.196 311.935C704.323 311.935 697.017 319.241 690.624 325.634Z" fill="#7D4E24" fill-opacity="0.8"/>
<path d="M652.663 354.283C653.032 357.182 650.259 359.5 648.826 360.297C643.853 364.614 633.541 363.167 627.199 363.975C621.764 364.669 609.524 362.547 603.28 356.899C597.036 351.25 594.415 345.14 593.722 339.704C592.769 332.234 594.706 325.769 600.239 318.618C605.772 311.468 617.665 310.872 625.374 313.571C633.084 316.271 642.739 327.008 647.288 333.793C651.836 340.579 652.201 350.659 652.663 354.283Z" fill="#7D4E24" fill-opacity="0.8"/>
<path d="M715.283 326.548C699.209 327.278 692.451 344.509 691.538 353.946C691.538 353.946 709.52 355.161 718.023 353.946C724.416 353.033 735.375 349.988 735.375 343.9C735.375 337.811 731.356 325.817 715.283 326.548Z" fill="#333333"/>
<path d="M623.437 325.975C639.496 326.991 645.947 344.338 646.693 353.79C646.693 353.79 628.692 354.686 620.212 353.321C613.837 352.294 602.933 349.056 603.041 342.968C603.149 336.881 607.379 324.96 623.437 325.975Z" fill="#333333"/>
<circle cx="618.857" cy="334.657" r="5.47966" transform="rotate(-7.26804 618.857 334.657)" fill="white"/>
<circle cx="708.89" cy="335.68" r="5.47966" fill="white"/>
<path d="M532.1 206.956L576.355 168.778V53.5812C576.355 51.9244 577.699 50.5812 579.355 50.5812H765.998C767.655 50.5812 768.998 51.9244 768.998 53.5812V168.778L801.279 206.956V214.416C801.279 216.073 799.936 217.416 798.279 217.416H535.1C533.443 217.416 532.1 216.073 532.1 214.416V206.956Z" fill="#5C6370"/>
<path d="M532 207.179L576.256 169H768.898L801.179 207.179H532Z" fill="#454A54"/>
<path d="M758 60H587C585.343 60 584 61.3431 584 63V162H761V63C761 61.3431 759.657 60 758 60Z" fill="black" stroke="black"/>
<path d="M544.717 203.396L551.087 197.444L557.814 191.157L563.577 185.772L568.816 180.876L573.269 176.714L577.722 172.553H589.509H601.296H613.084H624.871H636.658H648.446H660.233H672.02H683.808H695.595H707.382H719.169H730.957H742.744H754.531H766.319L769.711 176.714L773.104 180.876L777.096 185.772L781.486 191.157L786.612 197.444L791.465 203.396H776.043H760.621H745.2H729.778H714.356H698.935H683.513H668.091H652.669H637.248H621.826H606.404H590.983H575.561H560.139H544.717Z" fill="#818998"/>
<path d="M551.087 197.444L544.717 203.396H560.139M551.087 197.444H786.612M551.087 197.444L557.814 191.157M786.612 197.444L791.465 203.396H776.043M786.612 197.444L781.486 191.157M557.814 191.157H781.486M557.814 191.157L563.577 185.772M781.486 191.157L777.096 185.772M563.577 185.772H777.096M563.577 185.772L568.816 180.876M777.096 185.772L773.104 180.876M568.816 180.876H773.104M568.816 180.876L573.269 176.714M773.104 180.876L769.711 176.714M573.269 176.714L577.722 172.553H589.509M573.269 176.714H769.711M769.711 176.714L766.319 172.553H754.531M672.02 172.553L668.091 203.396M672.02 172.553H660.233M672.02 172.553H683.808M668.091 203.396H652.669M668.091 203.396H683.513M719.169 172.553L729.778 203.396M719.169 172.553H707.382M719.169 172.553H730.957M729.778 203.396H714.356M729.778 203.396H745.2M624.871 172.553L606.404 203.396M624.871 172.553H613.084M624.871 172.553H636.658M606.404 203.396H590.983M606.404 203.396H621.826M601.296 172.553L575.561 203.396M601.296 172.553H589.509M601.296 172.553H613.084M575.561 203.396H560.139M575.561 203.396H590.983M648.446 172.553L637.248 203.396M648.446 172.553H636.658M648.446 172.553H660.233M637.248 203.396H621.826M637.248 203.396H652.669M695.595 172.553L698.935 203.396M695.595 172.553H683.808M695.595 172.553H707.382M698.935 203.396H683.513M698.935 203.396H714.356M742.744 172.553L760.621 203.396M742.744 172.553H730.957M742.744 172.553H754.531M760.621 203.396H745.2M760.621 203.396H776.043M589.509 172.553L560.139 203.396M613.084 172.553L590.983 203.396M636.658 172.553L621.826 203.396M660.233 172.553L652.669 203.396M683.808 172.553L683.513 203.396M707.382 172.553L714.356 203.396M730.957 172.553L745.2 203.396M754.531 172.553L776.043 203.396" stroke="#454A54" stroke-width="2" stroke-linejoin="round"/>
<path d="M602.059 96.3926C600.159 102.554 600.093 109.229 600.058 115.63C600.042 118.421 599.821 121.559 600.827 124.22C601.65 126.4 602.497 128.011 604.663 129.095C606.125 129.825 607.276 129.503 608.564 128.752" stroke="white" stroke-width="2" stroke-linecap="round" stroke-linejoin="round"/>
<path d="M600.391 114.407C603.099 115.532 605.695 115.241 608.397 115.241" stroke="white" stroke-width="2" stroke-linecap="round" stroke-linejoin="round"/>
<path d="M614.902 114.574C615.029 118.553 615.093 122.453 615.477 126.398C615.541 127.061 615.349 128.17 615.736 128.752" stroke="white" stroke-width="2" stroke-linecap="round" stroke-linejoin="round"/>
<path d="M614.999 118.744C616.204 116.175 621.184 114.983 623.839 115.741" stroke="white" stroke-width="2" stroke-linecap="round" stroke-linejoin="round"/>
<path d="M628.914 115.782C630.825 114.776 633.424 113.552 635.66 113.854C638.469 114.235 639.264 115.491 639.626 118.293C640.112 122.048 639.824 125.948 639.089 129.626" stroke="white" stroke-width="2" stroke-linecap="round" stroke-linejoin="round"/>
<path d="M639.629 125.807C637.39 124.052 634.938 123.319 632.107 123.215C629.604 123.123 628.386 126.243 630.61 127.697C633.206 129.395 636.986 129.765 639.3 127.45" stroke="white" stroke-width="2" stroke-linecap="round" stroke-linejoin="round"/>
<path d="M654.088 115.456C653.418 114.712 652.85 113.824 651.825 113.575C650.12 113.162 649.047 113.329 647.79 114.552C645.811 116.478 645.099 119.317 644.96 122.01C644.83 124.53 646.068 128.098 648.976 128.573C650.409 128.807 652.682 128.649 653.997 127.998C655.339 127.334 655.606 125.719 656.06 124.493" stroke="white" stroke-width="2" stroke-linecap="round" stroke-linejoin="round"/>
<path d="M661.823 114.053C661.634 116.835 661.58 119.638 661.789 122.421C661.88 123.622 661.742 124.912 661.938 126.097C662.2 127.686 662.495 128.78 664.235 128.922" stroke="white" stroke-width="2" stroke-linecap="round" stroke-linejoin="round"/>
<path d="M662.141 108.144C662.162 107.566 662.177 106.818 661.707 106.386C661.493 106.189 661.314 106.282 661.282 106.553C661.182 107.404 661.272 107.659 661.8 108.281" stroke="white" stroke-width="2" stroke-linecap="round" stroke-linejoin="round"/>
<path d="M669.754 113.14C669.677 117.268 669.595 121.38 669.92 125.499C670.002 126.54 669.96 127.564 669.915 128.606" stroke="white" stroke-width="2" stroke-linecap="round" stroke-linejoin="round"/>
<path d="M669.893 117.586C670.364 115.661 671.577 113.992 673.392 113.112C675.361 112.158 677.662 114.846 678.631 116.223C679.593 117.591 679.665 119.466 679.886 121.065C680.03 122.106 680.02 123.058 679.976 124.102C679.912 125.595 679.64 127.225 679.943 128.705" stroke="white" stroke-width="2" stroke-linecap="round" stroke-linejoin="round"/>
<path d="M679.524 118.821C679.454 117.08 679.998 115.48 681.325 114.312C682.631 113.163 684.08 113.459 685.632 113.81C686.123 113.921 686.57 114.661 686.795 115.02C687.826 116.663 688.154 118.541 688.29 120.448C688.49 123.255 688.259 126.085 688.139 128.893" stroke="white" stroke-width="2" stroke-linecap="round" stroke-linejoin="round"/>
<path d="M531 70C521.193 62.5497 511.753 54.6573 503 46" stroke="#B7BAD3" stroke-width="3" stroke-linecap="round" stroke-linejoin="round"/>
<path d="M531 106C518.973 106.883 506.996 107.911 495 109" stroke="#B7BAD3" stroke-width="3" stroke-linecap="round" stroke-linejoin="round"/>
<path d="M505 167C514.324 159.396 524.388 152.377 533 144" stroke="#B7BAD3" stroke-width="3" stroke-linecap="round" stroke-linejoin="round"/>
<path d="M811 70C820.807 62.5497 830.247 54.6573 839 46" stroke="#B7BAD3" stroke-width="3" stroke-linecap="round" stroke-linejoin="round"/>
<path d="M811 106C823.027 106.883 835.004 107.911 847 109" stroke="#B7BAD3" stroke-width="3" stroke-linecap="round" stroke-linejoin="round"/>
<path d="M837 167C827.676 159.396 817.612 152.377 809 144" stroke="#B7BAD3" stroke-width="3" stroke-linecap="round" stroke-linejoin="round"/>
<path d="M710.166 107.582C711.068 114.536 713.809 122.301 718.991 127.185C720.879 127.485 725.186 128.086 727.303 128.086C729.351 128.096 729.626 127.469 730.708 125.846C731.98 123.937 733.739 122.511 735.089 120.651C737.944 116.716 739.878 112.249 740.121 107.356C740.358 102.591 739.025 96.1628 735.089 92.8832C732.73 90.9177 728.328 88.8132 725.263 88.7694C721.262 88.7123 718.808 89.8108 714.885 92.8832C710.166 96.5793 709.588 103.133 710.166 107.582Z" fill="#FFC960"/>
<path d="M720.942 126.641C721.808 120.941 720.816 115.393 720.4 109.653C720.369 109.215 720.522 106.023 719.729 105.825C718.952 105.631 717.925 107.566 717.668 108.081C717.157 109.103 717.042 111.164 717.825 112.074C718.808 113.216 721.472 113.098 722.66 112.417C724.054 111.617 724.566 109.575 724.878 108.128C724.95 107.795 725.126 107.012 724.795 106.728C724.328 106.328 723.821 108.506 723.774 108.791C722.859 114.341 731.994 113.793 731.584 108.478C731.547 107.996 731.355 106.97 730.67 107.368C729.193 108.227 728.696 110.314 728.607 111.884C728.466 114.398 726.768 125.313 726.961 127.819" stroke="white" stroke-linecap="round" stroke-linejoin="round"/>
<path d="M701.19 124.706C703.124 123.682 705.083 122.735 707.049 121.777" stroke="#FFC960" stroke-linecap="round" stroke-linejoin="round"/>
<path d="M696.909 103.526C699.155 104.305 701.408 105.045 703.669 105.779" stroke="#FFC960" stroke-linecap="round" stroke-linejoin="round"/>
<path d="M704.57 82.3453C705.239 84.0472 705.883 85.7358 706.823 87.3024" stroke="#FFC960" stroke-linecap="round" stroke-linejoin="round"/>
<path d="M742.576 82.0009C740.442 83.8756 738.61 85.7829 736.717 87.8594" stroke="#FFC960" stroke-linecap="round" stroke-linejoin="round"/>
<path d="M742.965 98.0166C744.919 97.1027 747.52 96.7078 749.274 95.538" stroke="#FFC960" stroke-linecap="round" stroke-linejoin="round"/>
<path d="M743.776 114.792C744.924 115.291 745.971 115.607 747.156 115.919" stroke="#FFC960" stroke-linecap="round" stroke-linejoin="round"/>
<path d="M724.213 78.0604C724.229 79.6718 724.351 81.196 724.518 82.7851" stroke="#FFC960" stroke-linecap="round" stroke-linejoin="round"/>
<path d="M738.082 125.155C739.531 126.658 740.933 128.23 742.655 129.422" stroke="#FFC960" stroke-linecap="round" stroke-linejoin="round"/>
<path d="M720.491 133.204C719.66 132.372 720.122 131.175 720.14 130.147L728.109 131.349C728.336 132.03 728.371 132.702 727.804 133.229C727.427 133.579 726.976 133.993 726.455 134.089C725.82 134.206 725.143 134.206 724.501 134.206L724.479 134.206C723.592 134.206 722.705 134.155 721.828 134.014C721.206 133.914 720.925 133.638 720.491 133.204Z" fill="#DFDFDF" stroke="#A4A4A4" stroke-linecap="round" stroke-linejoin="round"/>
<path d="M725.72 131.522C722.933 131.9 718.83 130.978 719.488 127.441C721.219 127.994 725.562 128.891 729.09 128.051C729.444 128.581 728.961 129.728 728.666 130.235C728.066 131.268 726.78 131.378 725.72 131.522Z" fill="#DFDFDF" stroke="#A4A4A4" stroke-linecap="round" stroke-linejoin="round"/>
<path d="M720.859 135C720.602 134.587 720.737 134.285 720.817 133.83L726.906 134.206C727.263 134.682 727.425 135.304 726.936 135.751C726.126 136.49 724.47 136.161 723.473 136.161C722.874 136.161 721.818 136.261 721.377 135.739C721.179 135.505 721.02 135.258 720.859 135Z" fill="#DFDFDF" stroke="#A4A4A4" stroke-linecap="round" stroke-linejoin="round"/>
<path d="M723.916 137.739C723.269 137.739 722.567 136.924 722.17 136.536L726.155 136.461C725.496 137.12 724.876 137.739 723.916 137.739Z" fill="#DFDFDF" stroke="#A4A4A4" stroke-linecap="round" stroke-linejoin="round"/>
<path d="M347.082 468.339L320.522 531.961C320.522 539.99 329.787 549.009 342.141 555.433C354.494 561.857 371.172 556.256 376.731 555.433L405.762 496.135L347.082 468.339Z" fill="#B7BAD3"/>
<ellipse cx="376.756" cy="481.572" rx="33.1707" ry="16.5978" transform="rotate(25.58 376.756 481.572)" fill="#B7BAD3"/>
<ellipse cx="377.037" cy="481.58" rx="29.9681" ry="13.67" transform="rotate(25.58 377.037 481.58)" fill="#333333"/>
<rect x="350.379" y="428.219" width="11.1183" height="105.006" transform="rotate(-4.86224 350.379 428.219)" fill="#FFAA00"/>
<path d="M360.959 427.319C361.027 428.12 360.607 428.948 359.745 429.635C358.887 430.319 357.634 430.819 356.189 430.942C354.745 431.065 353.426 430.783 352.464 430.254C351.499 429.723 350.945 428.978 350.877 428.176C350.809 427.375 351.229 426.547 352.09 425.861C352.949 425.177 354.201 424.676 355.646 424.553C357.091 424.43 358.41 424.712 359.371 425.241C360.336 425.772 360.891 426.517 360.959 427.319Z" fill="#D0D0D0" stroke="#D0D0D0"/>
<path d="M350.732 425.089L351.046 428.782M360.58 424.251L360.857 427.947" stroke="#D0D0D0"/>
<ellipse cx="355.657" cy="424.67" rx="5.55916" ry="4.32379" transform="rotate(-4.86224 355.657 424.67)" fill="white"/>
<rect x="409.541" y="432.42" width="11.1183" height="105.006" transform="rotate(34.8393 409.541 432.42)" fill="#FF5757"/>
<path d="M418.256 438.486C417.796 439.146 416.944 439.515 415.843 439.493C414.746 439.471 413.462 439.056 412.272 438.227C411.082 437.399 410.247 436.34 409.845 435.318C409.442 434.293 409.492 433.366 409.951 432.706C410.411 432.046 411.263 431.677 412.364 431.699C413.462 431.721 414.745 432.136 415.935 432.965C417.125 433.793 417.96 434.853 418.362 435.874C418.765 436.899 418.715 437.826 418.256 438.486Z" fill="#D0D0D0" stroke="#D0D0D0"/>
<path d="M411.812 430.238L409.695 433.28M419.924 435.884L417.776 438.905" stroke="#D0D0D0"/>
<ellipse cx="415.868" cy="433.061" rx="5.55916" ry="4.32379" transform="rotate(34.8393 415.868 433.061)" fill="white"/>
<path d="M379.82 389.276L362.525 504.783L388.467 511.577L405.763 392.982L379.82 389.276Z" fill="white" stroke="white" stroke-linejoin="round"/>
<path d="M403.909 406.571L390.32 404.594M402.056 417.813L388.467 415.836" stroke="#D0D0D0" stroke-linecap="round"/>
<path d="M400.439 429.672L386.85 427.695" stroke="#D0D0D0" stroke-linecap="round"/>
<path d="M398.889 440.79L385.3 438.814" stroke="#D0D0D0" stroke-linecap="round"/>
<path d="M396.497 451.909L382.908 449.932" stroke="#D0D0D0" stroke-linecap="round"/>
<path d="M395.262 463.027L381.673 461.05" stroke="#D0D0D0" stroke-linecap="round"/>
<rect x="423.145" y="452.504" width="11.1183" height="105.006" transform="rotate(45.8142 423.145 452.504)" fill="#5C6370"/>
<path d="M430.546 460.118C429.97 460.679 429.063 460.878 427.986 460.647C426.913 460.417 425.732 459.765 424.721 458.725C423.71 457.685 423.093 456.486 422.893 455.407C422.692 454.324 422.917 453.423 423.494 452.863C424.071 452.302 424.977 452.103 426.055 452.334C427.128 452.565 428.308 453.216 429.319 454.256C430.33 455.296 430.948 456.495 431.148 457.574C431.348 458.657 431.123 459.558 430.546 460.118Z" fill="#D0D0D0" stroke="#D0D0D0"/>
<path d="M425.791 450.794L423.133 453.378M432.679 457.881L429.995 460.438" stroke="#D0D0D0"/>
<ellipse cx="429.235" cy="454.338" rx="5.55916" ry="4.32379" transform="rotate(45.8142 429.235 454.338)" fill="white"/>
<path d="M404.575 494.194C404.382 494.599 404.147 494.979 403.874 495.334L394.644 510.342L379.82 536.902L341.523 536.902L337.199 499.841L349.726 469.17C349.804 468.943 349.895 468.719 350 468.5L349.726 469.17C347.387 476.022 357.194 486.669 371.642 493.585C385.683 500.306 399.561 500.947 403.874 495.334L404.575 494.194Z" fill="#B7BAD3"/>
<path d="M346.65 470.192C346.65 473.898 347.7 479.457 353.259 484.399" stroke="#7176A8" stroke-opacity="0.2" stroke-linecap="round" stroke-linejoin="round"/>
<path d="M404.286 498.235C401.324 500.462 396.25 502.963 388.959 501.489" stroke="#7176A8" stroke-opacity="0.2" stroke-linecap="round" stroke-linejoin="round"/>
<path d="M429.206 279.704L433.597 265.777C430.34 263.26 420.478 260.122 405.683 263.959C390.888 267.795 380.478 281.238 377.297 287.948L365.595 275.247C370.16 268.908 382.92 256.792 402.817 250.616C422.715 244.439 440.212 252.084 440.212 252.084L445.773 239.854C456.598 250.214 470.464 274.385 470.464 274.385C459.228 274.325 447.875 275.376 429.206 279.704Z" fill="#5C6370"/>
</g>
<defs>
<clipPath id="clip0">
<rect width="885" height="540" fill="white"/>
</clipPath>
</defs>
</svg>
