<svg width="885" height="540" viewBox="0 0 885 540" fill="none" xmlns="http://www.w3.org/2000/svg">
<g clip-path="url(#clip0)">
<circle cx="96.4748" cy="267.465" r="36.1735" fill="#FFC960" stroke="#FFC960" stroke-width="2"/>
<path d="M41.6459 219.748C45.1029 223.703 48.5457 227.669 51.9858 231.639" stroke="#FFC960" stroke-width="2" stroke-linecap="round" stroke-linejoin="round"/>
<path d="M22.0002 255.42C26.3044 255.65 30.6129 255.937 34.925 255.937" stroke="#FFC960" stroke-width="2" stroke-linecap="round" stroke-linejoin="round"/>
<path d="M27.6869 290.576C32.1134 288.973 37.6478 287.554 41.6458 284.889" stroke="#FFC960" stroke-width="2" stroke-linecap="round" stroke-linejoin="round"/>
<path d="M46.8159 313.841C48.0955 311.673 49.5045 309.688 50.9519 307.637" stroke="#FFC960" stroke-width="2" stroke-linecap="round" stroke-linejoin="round"/>
<path d="M82.4885 322.63C81.8816 328.165 81.1857 333.664 80.4205 339.174" stroke="#FFC960" stroke-width="2" stroke-linecap="round" stroke-linejoin="round"/>
<path d="M107.304 322.113C107.748 324.228 108.855 326.657 108.855 328.834" stroke="#FFC960" stroke-width="2" stroke-linecap="round" stroke-linejoin="round"/>
<path d="M137.29 301.95C142.107 306.094 147.019 310.139 151.766 314.358" stroke="#FFC960" stroke-width="2" stroke-linecap="round" stroke-linejoin="round"/>
<path d="M154.351 272.481C158.732 274.307 163.147 275.144 167.793 276.1" stroke="#FFC960" stroke-width="2" stroke-linecap="round" stroke-linejoin="round"/>
<path d="M152.8 245.598C157.597 242.734 162.815 240.848 167.793 238.36" stroke="#FFC960" stroke-width="2" stroke-linecap="round" stroke-linejoin="round"/>
<path d="M141.426 222.333C142.553 219.611 143.977 217.533 145.562 215.095" stroke="#FFC960" stroke-width="2" stroke-linecap="round" stroke-linejoin="round"/>
<path d="M109.889 210.959C111.175 206.289 112.322 201.543 114.025 197" stroke="#FFC960" stroke-width="2" stroke-linecap="round" stroke-linejoin="round"/>
<path d="M79.3865 214.578C78.1802 212.165 76.9738 209.753 75.7675 207.34" stroke="#FFC960" stroke-width="2" stroke-linecap="round" stroke-linejoin="round"/>
<path d="M168.168 217.156C170.915 222.651 184.425 219.445 190.836 217.156C197.018 222.193 205.124 235.015 188.089 246.006C166.794 259.745 148.934 248.754 143.439 235.015C139.042 224.025 136.111 189.221 137.943 173.193C137.943 162.202 140.691 140.358 151.682 140.907C165.42 141.594 165.42 163.202 165.42 169.071V169.071C165.42 175.253 164.733 210.286 168.168 217.156Z" fill="#50AF92"/>
<path d="M245.79 146.403C243.592 152.448 233.425 148.921 228.617 146.403C224.495 151.898 218.588 160.828 219.687 169.071C221.061 179.375 250.02 180.733 259.528 171.819C270.519 161.515 271.893 131.29 271.893 122.36C271.893 114.962 271.893 81.8322 258.841 85.2668C247.529 88.2438 248.538 107.248 248.538 113.431C248.538 116.865 248.538 138.847 245.79 146.403Z" fill="#50AF92"/>
<path d="M184.473 102.868V325.002L233.247 294.055V82.2366C233.247 74.6717 233.247 25.5047 206.7 32.7207C183.924 38.9115 184.473 77.7106 184.473 102.868Z" fill="#50AF92"/>
<path d="M133.829 436.797C161.316 460.979 242.403 489.008 279.511 500C347.771 454.659 474.807 359.717 469.86 334.436C463.675 302.835 440.311 288.408 396.331 260.242C362.094 238.315 326.926 241.006 274.013 254.059C218.574 267.735 144.136 355.733 133.829 369.472C123.521 383.212 99.4698 406.57 133.829 436.797Z" fill="#C7B695"/>
<path d="M741.06 440.031C717.933 441.765 692.288 426.292 681.984 415.988C676.947 422.858 669.895 438.932 681.984 448.274C697.097 459.951 710.148 463.386 738.999 463.386C783.649 463.386 808.378 434.535 814.56 413.928C820.742 393.32 813.186 367.217 800.135 356.227C787.083 345.236 793.952 354.165 800.135 363.782C806.317 373.399 811.812 391.946 800.135 409.806C788.457 427.666 768.536 437.97 741.06 440.031Z" fill="#D5C8AD"/>
<path d="M800.135 363.782C806.317 373.399 811.812 391.946 800.135 409.806C794.39 418.591 786.652 425.548 777 430.595C782.739 427.865 795.045 426.224 798.359 429.5C801.672 432.776 799.739 436.886 798.359 440.031C806.735 431.576 812.107 422.103 814.56 413.928C820.742 393.32 813.186 367.217 800.135 356.226C787.083 345.236 793.952 354.165 800.135 363.782Z" fill="#7D4E24"/>
<path d="M694.349 191.366C706.027 203.043 696.41 220.903 692.288 224.338L689.541 225.711C675.802 211.973 655.534 197.086 657.255 194.113C664.811 181.062 684.383 181.399 694.349 191.366Z" fill="#7D4E24"/>
<path d="M541.166 183.809C526.053 196.174 532.923 211.973 537.044 215.408L539.792 216.782C555.591 209.225 577.919 189.529 576.199 186.557C568.642 173.506 552.074 174.884 541.166 183.809Z" fill="#7D4E24"/>
<path d="M613.292 180.375C570.978 178.177 542.54 207.852 532.923 222.964C539.105 250.441 564.521 263.492 564.521 263.492C564.521 263.492 554.217 286.847 548.035 289.595C541.853 292.343 508.194 285.474 501.324 284.1C494.455 282.726 474.534 289.595 467.665 293.03C460.796 296.464 467.665 306.768 477.282 306.768C486.899 306.768 493.768 301.273 501.324 304.02C508.88 306.768 532.694 307.684 545.974 310.89L561.773 326.002V449.648L591.311 499.793C594.517 492.695 602.027 476.712 606.423 469.568C611.919 460.638 629.092 461.325 644.891 466.134C660.69 470.942 660.003 488.802 659.316 497.045C658.629 505.288 664.124 512.844 671.681 512.844C679.237 512.844 729.382 513.531 733.503 512.844C737.625 512.157 739.411 512.844 736.938 504.601C732.816 490.863 705.34 494.984 695.036 493.611C689.541 492.878 674.185 488.802 680.611 475.064C700.531 432.475 678.55 397.442 671.681 384.39C664.811 371.339 678.55 319.82 674.428 306.768C670.307 293.717 656.568 278.604 657.255 270.361C672.44 261.119 688.747 244.017 692.975 226.398C683.587 211.973 665.498 183.087 613.292 180.375Z" fill="#D5C8AD"/>
<path d="M733.423 512.834C737.544 512.147 739.33 512.834 736.857 504.591C733.743 494.211 717.298 494.026 705 493.963V513.098C718.563 513.177 731.421 513.167 733.423 512.834Z" fill="#7D4E24"/>
<path d="M615.415 276.309C629.771 276.309 637.427 278.222 656.568 271.048C654.814 274.555 651.783 284.439 639.82 291.613C629.351 297.89 619.403 299.105 613.979 298.308C613.979 293.047 615.415 276.309 615.415 276.309Z" fill="#C7B695"/>
<path d="M633.213 317.072C634.587 318.904 636.922 323.941 635.274 329.437C633.213 336.306 619.475 353.479 619.475 361.722C619.475 369.965 619.475 391.946 617.414 398.129C615.353 404.311 631.839 413.928 639.395 395.381C646.951 376.834 639.395 376.147 643.517 370.652C647.638 365.156 657.942 361.035 660.69 345.236" stroke="#7D4E24" stroke-linejoin="round"/>
<path d="M611.918 245.632C609.858 247.006 606.423 245.632 603.675 244.258C601.615 243.113 598.317 242.885 596.119 245.632C593.372 249.067 598.18 250.441 599.554 249.754C600.928 249.067 604.657 249.754 604.362 251.814C603.675 256.623 605.652 257.31 608.484 257.31C611.918 257.31 610.545 253.188 611.918 251.814C613.292 250.441 615.353 251.128 618.101 251.128C620.848 251.128 621.535 248.38 620.162 245.632C618.788 242.885 613.979 244.258 611.918 245.632Z" fill="#7D4E24"/>
<path d="M623.596 218.155L623.596 218.155C616.727 227.085 618.101 234.641 619.475 239.45C620.848 244.258 629.778 245.632 635.274 247.693C640.769 249.754 649.699 247.006 656.568 242.884C663.438 238.763 664.811 231.207 666.185 226.398C667.559 221.59 662.751 215.408 660.003 212.66C657.255 209.912 651.76 207.852 642.83 207.852C633.9 207.852 628.405 213.347 623.596 218.155Z" fill="#8F663F"/>
<path d="M642.143 218.842C630.053 219.392 624.97 232.352 624.283 239.45C624.283 239.45 637.808 240.364 644.204 239.45C649.012 238.763 657.255 236.473 657.255 231.894C657.255 227.314 654.233 218.293 642.143 218.842Z" fill="#333333"/>
<path d="M597.493 239.45C597.493 241.648 595.203 243.114 594.058 243.571C589.937 246.319 582.381 244.258 577.572 244.258C573.451 244.258 564.521 241.511 560.399 236.702C556.278 231.894 554.904 227.085 554.904 222.964C554.904 217.299 556.965 212.66 561.773 207.852C566.582 203.043 575.512 203.73 581.007 206.478C586.502 209.225 592.685 218.155 595.432 223.651C598.18 229.146 597.493 236.702 597.493 239.45Z" fill="#8F663F"/>
<path d="M578.382 215.548C590.266 217.834 593.429 231.391 593.086 238.514C593.086 238.514 579.57 237.469 573.373 235.644C568.714 234.271 560.887 230.818 561.547 226.286C562.206 221.754 566.497 213.262 578.382 215.548Z" fill="#333333"/>
<circle cx="574.138" cy="221.59" r="4.12152" fill="white"/>
<circle cx="637.335" cy="225.712" r="4.12152" fill="white"/>
<path d="M258 512.27L316.53 462.154V310C316.53 308.343 317.873 307 319.53 307H568.308C569.964 307 571.308 308.343 571.308 310V462.154L614 512.27V523C614 524.657 612.657 526 611 526H261C259.343 526 258 524.657 258 523V512.27Z" fill="#5C6370"/>
<path d="M258 512.27L316.53 462.154H571.308L614 512.27H258Z" fill="#454A54"/>
<path d="M557 318H331C329.343 318 328 319.343 328 321V452H560V321C560 319.343 558.657 318 557 318Z" fill="#333333"/>
<path d="M492.974 380.027C494.197 389.456 497.914 399.984 504.94 406.606C507.5 407.013 513.339 407.828 516.209 407.828C518.987 407.841 519.359 406.99 520.826 404.79C522.551 402.202 524.936 400.269 526.766 397.746C530.638 392.412 533.259 386.355 533.589 379.721C533.911 373.26 532.102 364.544 526.766 360.098C523.569 357.433 517.6 354.579 513.444 354.52C508.019 354.442 504.691 355.932 499.372 360.098C492.974 365.109 492.191 373.994 492.974 380.027Z" fill="#FFC960"/>
<path d="M507.585 405.868C508.76 398.14 507.414 390.618 506.851 382.835C506.808 382.241 507.016 377.914 505.941 377.645C504.887 377.382 503.495 380.006 503.146 380.703C502.453 382.089 502.297 384.884 503.359 386.117C504.693 387.666 508.304 387.506 509.914 386.583C511.805 385.498 512.499 382.73 512.922 380.767C513.019 380.316 513.258 379.254 512.81 378.87C512.177 378.327 511.489 381.279 511.425 381.666C510.185 389.191 522.57 388.448 522.015 381.242C521.964 380.588 521.704 379.197 520.775 379.737C518.773 380.901 518.098 383.731 517.978 385.86C517.787 389.268 515.484 404.067 515.746 407.465" stroke="white" stroke-linecap="round" stroke-linejoin="round"/>
<path d="M480.805 403.245C483.426 401.856 486.083 400.572 488.748 399.274" stroke="#FFC960" stroke-linecap="round" stroke-linejoin="round"/>
<path d="M475 374.527C478.045 375.584 481.101 376.587 484.165 377.583" stroke="#FFC960" stroke-linecap="round" stroke-linejoin="round"/>
<path d="M485.387 345.81C486.294 348.117 487.168 350.407 488.442 352.531" stroke="#FFC960" stroke-linecap="round" stroke-linejoin="round"/>
<path d="M536.917 345.343C534.024 347.885 531.541 350.471 528.974 353.286" stroke="#FFC960" stroke-linecap="round" stroke-linejoin="round"/>
<path d="M537.446 367.058C540.095 365.819 543.621 365.283 546 363.697" stroke="#FFC960" stroke-linecap="round" stroke-linejoin="round"/>
<path d="M538.545 389.803C540.102 390.48 541.52 390.907 543.128 391.33" stroke="#FFC960" stroke-linecap="round" stroke-linejoin="round"/>
<path d="M512.02 340C512.042 342.185 512.207 344.251 512.433 346.406" stroke="#FFC960" stroke-linecap="round" stroke-linejoin="round"/>
<path d="M530.825 403.853C532.79 405.891 534.69 408.023 537.024 409.639" stroke="#FFC960" stroke-linecap="round" stroke-linejoin="round"/>
<path d="M506.974 414.766C505.847 413.639 506.473 412.016 506.498 410.621L517.302 412.252C517.61 413.175 517.658 414.086 516.889 414.8C516.378 415.275 515.766 415.837 515.06 415.967C514.199 416.125 513.281 416.125 512.411 416.125L512.382 416.125C511.178 416.125 509.975 416.056 508.786 415.865C507.943 415.729 507.562 415.355 506.974 414.766Z" fill="#DFDFDF" stroke="#A4A4A4" stroke-linecap="round" stroke-linejoin="round"/>
<path d="M514.064 412.486C510.285 412.999 504.722 411.749 505.614 406.953C507.96 407.703 513.849 408.919 518.633 407.779C519.112 408.499 518.458 410.054 518.059 410.741C517.245 412.141 515.5 412.291 514.064 412.486Z" fill="#DFDFDF" stroke="#A4A4A4" stroke-linecap="round" stroke-linejoin="round"/>
<path d="M507.473 417.201C507.125 416.643 507.307 416.233 507.416 415.616L515.672 416.125C516.156 416.771 516.376 417.614 515.712 418.221C514.614 419.222 512.369 418.775 511.017 418.775C510.205 418.775 508.774 418.911 508.175 418.204C507.907 417.887 507.691 417.551 507.473 417.201Z" fill="#DFDFDF" stroke="#A4A4A4" stroke-linecap="round" stroke-linejoin="round"/>
<path d="M511.618 420.916C510.74 420.916 509.789 419.81 509.251 419.285L514.653 419.183C513.759 420.077 512.919 420.916 511.618 420.916Z" fill="#DFDFDF" stroke="#A4A4A4" stroke-linecap="round" stroke-linejoin="round"/>
<path d="M276 506L284.363 498.667L293.197 490.921L300.764 484.286L307.643 478.254L313.49 473.127L319.338 468H334.815H350.293H365.771H381.248H396.726H412.204H427.682H443.159H458.637H474.115H489.592H505.07H520.548H536.025H551.503H566.981L571.436 473.127L575.891 478.254L581.132 484.286L586.897 490.921L593.628 498.667L600 506H579.75H559.5H539.25H519H498.75H478.5H458.25H438H417.75H397.5H377.25H357H336.75H316.5H296.25H276Z" fill="#818998"/>
<path d="M284.363 498.667L276 506H296.25M284.363 498.667H593.628M284.363 498.667L293.197 490.921M593.628 498.667L600 506H579.75M593.628 498.667L586.897 490.921M293.197 490.921H586.897M293.197 490.921L300.764 484.286M586.897 490.921L581.132 484.286M300.764 484.286H581.132M300.764 484.286L307.643 478.254M581.132 484.286L575.891 478.254M307.643 478.254H575.891M307.643 478.254L313.49 473.127M575.891 478.254L571.436 473.127M313.49 473.127L319.338 468H334.815M313.49 473.127H571.436M571.436 473.127L566.981 468H551.503M443.159 468L438 506M443.159 468H427.682M443.159 468H458.637M438 506H417.75M438 506H458.25M505.07 468L519 506M505.07 468H489.592M505.07 468H520.548M519 506H498.75M519 506H539.25M381.248 468L357 506M381.248 468H365.771M381.248 468H396.726M357 506H336.75M357 506H377.25M350.293 468L316.5 506M350.293 468H334.815M350.293 468H365.771M316.5 506H296.25M316.5 506H336.75M412.204 468L397.5 506M412.204 468H396.726M412.204 468H427.682M397.5 506H377.25M397.5 506H417.75M474.115 468L478.5 506M474.115 468H458.637M474.115 468H489.592M478.5 506H458.25M478.5 506H498.75M536.025 468L559.5 506M536.025 468H520.548M536.025 468H551.503M559.5 506H539.25M559.5 506H579.75M334.815 468L296.25 506M365.771 468L336.75 506M396.726 468L377.25 506M427.682 468L417.75 506M458.637 468L458.25 506M489.592 468L498.75 506M520.548 468L539.25 506M551.503 468L579.75 506" stroke="#454A54" stroke-width="2"/>
<path d="M351.142 365.971C348.635 374.1 348.547 382.906 348.501 391.352C348.481 395.034 348.189 399.174 349.516 402.685C350.602 405.561 351.719 407.687 354.577 409.116C356.506 410.08 358.025 409.655 359.724 408.664" stroke="white" stroke-width="2" stroke-linecap="round" stroke-linejoin="round"/>
<path d="M348.941 389.738C352.514 391.222 355.939 390.838 359.504 390.838" stroke="white" stroke-width="2" stroke-linecap="round" stroke-linejoin="round"/>
<path d="M368.087 389.958C368.253 395.208 368.339 400.353 368.845 405.558C368.93 406.433 368.675 407.896 369.187 408.664" stroke="white" stroke-width="2" stroke-linecap="round" stroke-linejoin="round"/>
<path d="M368.213 395.46C369.804 392.071 376.374 390.498 379.877 391.498" stroke="white" stroke-width="2" stroke-linecap="round" stroke-linejoin="round"/>
<path d="M386.572 391.552C389.094 390.225 392.522 388.61 395.473 389.009C399.179 389.511 400.227 391.169 400.705 394.865C401.346 399.819 400.967 404.965 399.996 409.817" stroke="white" stroke-width="2" stroke-linecap="round" stroke-linejoin="round"/>
<path d="M400.709 404.779C397.755 402.464 394.52 401.496 390.785 401.359C387.483 401.237 385.876 405.354 388.81 407.272C392.236 409.512 397.222 410 400.275 406.947" stroke="white" stroke-width="2" stroke-linecap="round" stroke-linejoin="round"/>
<path d="M419.786 391.122C418.902 390.141 418.152 388.969 416.799 388.641C414.55 388.096 413.134 388.315 411.476 389.93C408.865 392.471 407.925 396.216 407.742 399.769C407.571 403.094 409.205 407.801 413.041 408.428C414.932 408.737 417.93 408.527 419.665 407.669C421.436 406.794 421.788 404.663 422.387 403.045" stroke="white" stroke-width="2" stroke-linecap="round" stroke-linejoin="round"/>
<path d="M429.99 389.27C429.741 392.941 429.67 396.64 429.946 400.311C430.065 401.896 429.884 403.597 430.142 405.161C430.488 407.257 430.877 408.701 433.172 408.888" stroke="white" stroke-width="2" stroke-linecap="round" stroke-linejoin="round"/>
<path d="M430.41 381.475C430.437 380.713 430.458 379.725 429.838 379.156C429.554 378.896 429.318 379.018 429.276 379.376C429.144 380.498 429.263 380.835 429.96 381.655" stroke="white" stroke-width="2" stroke-linecap="round" stroke-linejoin="round"/>
<path d="M440.454 388.066C440.352 393.513 440.245 398.938 440.673 404.373C440.781 405.746 440.726 407.097 440.667 408.471" stroke="white" stroke-width="2" stroke-linecap="round" stroke-linejoin="round"/>
<path d="M440.637 393.932C441.259 391.392 442.859 389.19 445.253 388.03C447.851 386.771 450.888 390.317 452.166 392.134C453.435 393.939 453.53 396.412 453.821 398.522C454.011 399.895 453.998 401.152 453.939 402.529C453.855 404.498 453.496 406.649 453.897 408.602" stroke="white" stroke-width="2" stroke-linecap="round" stroke-linejoin="round"/>
<path d="M453.344 395.562C453.251 393.264 453.969 391.153 455.72 389.612C457.443 388.097 459.355 388.488 461.402 388.951C462.05 389.098 462.64 390.074 462.937 390.547C464.297 392.714 464.73 395.192 464.909 397.708C465.173 401.411 464.869 405.145 464.71 408.849" stroke="white" stroke-width="2" stroke-linecap="round" stroke-linejoin="round"/>
<path d="M149.628 435.151C130.909 443.371 121.959 452.237 118.501 465.222C115.042 478.208 130.26 487.776 140.635 493.927C151.011 500.078 174.529 504.178 189.746 500.761C201.39 498.147 231.364 493.927 240.241 471.373C245.083 459.071 225.715 443.352 211.881 435.151C198.047 426.95 168.304 426.95 149.628 435.151Z" fill="#D5C8AD"/>
</g>
<defs>
<clipPath id="clip0">
<rect width="540" height="885" fill="white" transform="translate(885) rotate(90)"/>
</clipPath>
</defs>
</svg>
