<?xml version="1.0" encoding="utf-8"?>
<!-- Generator: Adobe Illustrator 26.0.1, SVG Export Plug-In . SVG Version: 6.00 Build 0)  -->
<svg version="1.1" xmlns="http://www.w3.org/2000/svg" xmlns:xlink="http://www.w3.org/1999/xlink" x="0px" y="0px"
	 viewBox="0 0 364 336" style="enable-background:new 0 0 364 336;" xml:space="preserve">
<style type="text/css">
	.st0{fill:none;}
	.st1{fill:#00C9E5;}
	.st2{fill:#0F0026;}
	.st3{fill:#FF27B7;}
	.st4{fill:#FFEE4D;}
	.st5{fill:#6024B5;}
</style>
<g id="Sfondo">
	<rect class="st0" width="364" height="336"/>
</g>
<g id="LOGO">
	<g>
		<g>
			<path class="st1" d="M214.2,164.7c-15.7,1.8-27,15.7-25.7,31.3c19-1.8,35.8-11.1,47.4-25C230.1,166.2,222.4,163.7,214.2,164.7z"
				/>
			<path class="st2" d="M130.8,157.3c-1.1-9.8-8.7-17.3-18-18.9c2.2,12.2,7.5,23.3,15.1,32.5C130.2,167,131.3,162.3,130.8,157.3z"/>
			<path class="st3" d="M156.8,147.8l-23.6,28.8c10,9.6,22.8,16.4,37.1,18.7l17.9-21.8L156.8,147.8z"/>
			<path class="st4" d="M214,157.6l29.3,2.7c5.7-10.1,8.9-21.8,8.9-34.3c0-4-0.4-8-1-11.8l-33-3L214,157.6z"/>
			<path class="st3" d="M217.6,65.5c-8.9-5.3-19.1-8.6-30-9.5l3.1,15.1L217.6,65.5z"/>
			<path class="st2" d="M249.2,105.6c-2.9-9.7-7.9-18.4-14.4-25.8l-1.2,25.1L249.2,105.6z"/>
			<path class="st1" d="M168.5,95l-23.3-28.9c-18.9,11.6-31.9,32-33.4,55.5l9.4,11.6L168.5,95z"/>
			<ellipse transform="matrix(0.3827 -0.9239 0.9239 0.3827 -4.1382 245.881)" class="st2" cx="181.9" cy="126" rx="28" ry="28"/>
			
				<ellipse transform="matrix(0.8053 -0.5929 0.5929 0.8053 -10.8425 143.2709)" class="st5" cx="212.7" cy="88.1" rx="16.4" ry="16.4"/>
			<path class="st4" d="M161.2,75c-0.8-6.8,4.1-13,10.9-13.7s13,4.1,13.7,10.9s-4.1,13-10.9,13.7C168.1,86.7,162,81.8,161.2,75z"/>
			<path class="st5" d="M141.7,149.6c-5.2,0.6-9.8-3.1-10.4-8.3c-0.6-5.2,3.1-9.8,8.3-10.4s9.8,3.1,10.4,8.3S146.9,149,141.7,149.6z
				"/>
		</g>
		<g>
			<g>
				<path class="st2" d="M135.8,278.3h-16.1v-52.5h15.5v6c2.9-5,9.3-7.4,14.7-7.4c13.2,0,19.1,9.4,19.1,20.9v33h-16.1V248
					c0-5.2-2.7-9.1-8.6-9.1c-5.3,0-8.7,3.9-8.7,9.2V278.3z"/>
				<path class="st2" d="M182.7,278.3v-52.5h16.1v52.5H182.7z"/>
				<path class="st2" d="M246.2,241.6c-1.8-0.4-3.5-0.5-5.1-0.5c-6.4,0-12.3,3.8-12.3,14.3v22.9h-16.1v-52.5h15.5v7.1
					c2.7-5.9,9.4-7.6,13.6-7.6c1.6,0,3.2,0.2,4.2,0.5V241.6z"/>
			</g>
			<path class="st2" d="M84,224c-15.5,0-28,12.5-28,28c0,15.5,12.5,28,28,28c15.5,0,28-12.5,28-28C112,236.5,99.5,224,84,224z
				 M84,265c-7.2,0-13-5.8-13-13c0-7.2,5.8-13,13-13s13,5.8,13,13C97,259.2,91.2,265,84,265z"/>
			<path class="st2" d="M280,224c-15.5,0-28,12.5-28,28c0,15.5,12.5,28,28,28c15.5,0,28-12.5,28-28C308,236.5,295.5,224,280,224z
				 M280,265c-7.2,0-13-5.8-13-13c0-7.2,5.8-13,13-13s13,5.8,13,13C293,259.2,287.2,265,280,265z"/>
		</g>
	</g>
</g>
<g id="COSTRUTTIVO">
</g>
<g id="modulo">
	<g>
		<path d="M300.5,225.2v-6.8h-2.4v-1.8h6.7v1.8h-2.4v6.8H300.5z"/>
		<path d="M306,216.6h1.8l2.4,4.2h0.1l2.4-4.2h1.8v8.6h-1.8v-3.8l0.1-1.4h-0.1l-2,3.4h-1.1l-2-3.4h-0.1l0.1,1.4v3.8H306V216.6z"/>
	</g>
</g>
</svg>
