<?xml version="1.0" encoding="utf-8"?>
<!-- Generator: Adobe Illustrator 25.4.1, SVG Export Plug-In . SVG Version: 6.00 Build 0)  -->
<svg version="1.1" xmlns="http://www.w3.org/2000/svg" xmlns:xlink="http://www.w3.org/1999/xlink" x="0px" y="0px"
	 viewBox="0 0 438.8 153" style="enable-background:new 0 0 438.8 153;" xml:space="preserve">
<style type="text/css">
	.st0{fill:none;}
	.st1{fill:#00C9E5;}
	.st2{fill:#0F0026;}
	.st3{fill:#FF27B7;}
	.st4{fill:#FFEE4D;}
	.st5{fill:#6024B5;}
</style>
<g id="Sfondo">
	<rect x="-48.8" y="-48.5" class="st0" width="532" height="252"/>
</g>
<g id="LOGO">
	<g>
		<g>
			<path class="st1" d="M109.4,116.2c-15.7,1.8-27,15.7-25.7,31.3c19-1.8,35.8-11.1,47.4-25C125.2,117.7,117.5,115.3,109.4,116.2z"
				/>
			<path class="st2" d="M25.9,108.9C24.8,99,17.2,91.5,7.9,90c2.2,12.2,7.5,23.3,15.1,32.5C25.4,118.5,26.5,113.8,25.9,108.9z"/>
			<path class="st3" d="M51.9,99.3l-23.6,28.8c10,9.6,22.8,16.4,37.1,18.7l17.9-21.8L51.9,99.3z"/>
			<path class="st4" d="M109.2,109.2l29.3,2.7c5.7-10.1,8.9-21.8,8.9-34.3c0-4-0.4-8-1-11.8l-33-3L109.2,109.2z"/>
			<path class="st3" d="M112.8,17c-8.9-5.3-19.1-8.6-30-9.5l3.1,15.1L112.8,17z"/>
			<path class="st2" d="M144.3,57.2c-2.9-9.7-7.9-18.4-14.4-25.8l-1.2,25.1L144.3,57.2z"/>
			<path class="st1" d="M63.7,46.5L40.3,17.6C21.4,29.3,8.4,49.7,6.9,73.2l9.4,11.6L63.7,46.5z"/>
			<ellipse transform="matrix(0.3827 -0.9239 0.9239 0.3827 -24.0855 119.0897)" class="st2" cx="77.1" cy="77.6" rx="28" ry="28"/>
			
				<ellipse transform="matrix(0.8053 -0.5929 0.5929 0.8053 -2.5216 71.6698)" class="st5" cx="107.9" cy="39.7" rx="16.4" ry="16.4"/>
			<path class="st4" d="M56.3,26.6c-0.8-6.8,4.1-13,10.9-13.7s13,4.1,13.7,10.9s-4.1,13-10.9,13.7C63.3,38.2,57.1,33.4,56.3,26.6z"
				/>
			<path class="st5" d="M36.9,101.1c-5.2,0.6-9.8-3.1-10.4-8.3c-0.6-5.2,3.1-9.8,8.3-10.4s9.8,3.1,10.4,8.3S42.1,100.5,36.9,101.1z"
				/>
		</g>
		<g>
			<g>
				<path class="st2" d="M255.4,103.8h-16.1V51.3h15.5v6c2.9-5,9.3-7.4,14.7-7.4c13.2,0,19.1,9.4,19.1,20.9v33h-16.1V73.6
					c0-5.2-2.7-9.1-8.6-9.1c-5.3,0-8.7,3.9-8.7,9.2V103.8z"/>
				<path class="st2" d="M302.2,103.8V51.3h16.1v52.5H302.2z"/>
				<path class="st2" d="M365.7,67.2c-1.8-0.4-3.5-0.5-5.1-0.5c-6.4,0-12.3,3.8-12.3,14.3v22.9h-16.1V51.3h15.5v7.1
					c2.7-5.9,9.4-7.6,13.6-7.6c1.6,0,3.2,0.2,4.2,0.5V67.2z"/>
			</g>
			<path class="st2" d="M203.5,49.6c-15.5,0-28,12.5-28,28s12.5,28,28,28c15.5,0,28-12.5,28-28S219,49.6,203.5,49.6z M203.5,90.6
				c-7.2,0-13-5.8-13-13s5.8-13,13-13c7.2,0,13,5.8,13,13S210.7,90.6,203.5,90.6z"/>
			<path class="st2" d="M399.5,49.6c-15.5,0-28,12.5-28,28s12.5,28,28,28c15.5,0,28-12.5,28-28S415,49.6,399.5,49.6z M399.5,90.6
				c-7.2,0-13-5.8-13-13s5.8-13,13-13c7.2,0,13,5.8,13,13S406.7,90.6,399.5,90.6z"/>
		</g>
	</g>
	<g>
		<path d="M420.7,45.6v-6.8h-2.4V37h6.7v1.8h-2.4v6.8H420.7z"/>
		<path d="M426.2,37h1.8l2.4,4.2h0.1L433,37h1.8v8.6H433v-3.8l0.1-1.4H433l-2,3.4H430l-2-3.4h-0.1l0.1,1.4v3.8h-1.8V37z"/>
	</g>
</g>
<g id="COSTRUTTIVO">
</g>
<g id="modulo">
</g>
</svg>
