<svg width="220" height="220" viewBox="0 0 220 220" fill="none" xmlns="http://www.w3.org/2000/svg">
<path fill-rule="evenodd" clip-rule="evenodd" d="M105.6 124.179L75.8976 110.385C73.3675 109.181 73.3675 107.32 75.8976 106.225L86.2384 101.408L105.49 110.385C108.02 111.589 112.09 111.589 114.51 110.385L133.762 101.408L144.102 106.225C146.633 107.429 146.633 109.291 144.102 110.385L114.4 124.179C112.09 125.274 108.02 125.274 105.6 124.179Z" fill="#FF6F3D"/>
<path fill-rule="evenodd" clip-rule="evenodd" d="M105.503 107.11L75.8919 93.3002C73.3694 92.0946 73.3694 90.2314 75.8919 89.1354L85.9817 84.4225L105.503 93.5194C108.026 94.725 112.084 94.725 114.497 93.5194L134.018 84.4225L144.108 89.1354C146.631 90.341 146.631 92.2042 144.108 93.3002L114.497 107.11C111.974 108.315 107.916 108.315 105.503 107.11Z" fill="#95C038"/>
<path fill-rule="evenodd" clip-rule="evenodd" d="M105.503 90.218L75.8919 76.607C73.3694 75.4188 73.3694 73.5824 75.8919 72.5022L105.503 58.8912C108.026 57.7029 112.084 57.7029 114.497 58.8912L144.108 72.5022C146.631 73.6904 146.631 75.5268 144.108 76.607L114.497 90.218C111.974 91.2982 107.916 91.2982 105.503 90.218Z" fill="#5DC0E8"/>
<path d="M26.5 149.467C26.5 145.978 27.5033 143.345 29.5769 141.633C31.5835 139.856 33.9915 139 36.734 139C39.4764 139 41.8175 139.856 43.8242 141.633C45.8309 143.411 46.8342 145.978 46.8342 149.533C46.8342 153.022 45.8309 155.655 43.8242 157.367C41.8175 159.144 39.4095 160 36.734 160C33.9915 160 31.6504 159.144 29.5769 157.367C27.5033 155.589 26.5 152.956 26.5 149.467ZM30.9147 149.467C30.9147 151.903 31.3829 153.614 32.2524 154.734C33.1889 155.853 34.1922 156.577 35.2624 156.84C35.53 156.906 35.7307 156.972 35.9982 156.972C36.1989 156.972 36.4664 157.038 36.6671 157.038C36.9347 157.038 37.1353 157.038 37.4029 156.972C37.6704 156.972 37.8711 156.906 38.1387 156.84C39.2089 156.577 40.2122 155.853 41.0818 154.734C41.9513 153.614 42.4195 151.837 42.4195 149.533C42.4195 147.163 41.9513 145.451 41.0818 144.332C40.2122 143.213 39.2089 142.489 38.1387 142.226C37.8711 142.16 37.6035 142.094 37.4029 142.094C37.1353 142.094 36.9347 142.028 36.6671 142.028C36.3995 142.028 36.1989 142.028 35.9982 142.094C35.7975 142.094 35.53 142.16 35.2624 142.226C34.1922 142.489 33.1889 143.213 32.2524 144.332C31.3829 145.32 30.9147 147.097 30.9147 149.467Z" fill="#333333"/>
<path d="M49.8628 139H55.4019L62.6973 152.192L63.7781 155.087H63.8457L63.7781 151.317V139H68.0338V160H62.4947L55.1993 146.269L54.1185 143.913H54.0509L54.1185 147.615V160H49.8628V139Z" fill="#333333"/>
<path d="M71.9275 139H76.1544V156.433H84.4741V160H71.9275V139Z" fill="#333333"/>
<path d="M82.7434 139H87.6274L91.9092 146.337L92.5782 147.817H92.712L93.3811 146.337L97.7298 139H102.212L94.6522 151.452V160H90.4373V151.385L82.7434 139Z" fill="#333333"/>
<path d="M101.78 149.467C101.78 145.978 102.783 143.345 104.857 141.633C106.863 139.856 109.271 139 112.014 139C114.756 139 117.097 139.856 119.104 141.633C121.111 143.411 122.114 145.978 122.114 149.533C122.114 153.022 121.111 155.655 119.104 157.367C117.097 159.144 114.689 160 112.014 160C109.271 160 106.93 159.144 104.857 157.367C102.85 155.589 101.78 152.956 101.78 149.467ZM106.194 149.467C106.194 151.903 106.663 153.614 107.532 154.734C108.469 155.853 109.405 156.577 110.542 156.84C110.81 156.906 111.01 156.972 111.278 156.972C111.479 156.972 111.746 157.038 111.947 157.038C112.214 157.038 112.415 157.038 112.683 156.972C112.95 156.972 113.151 156.906 113.418 156.84C114.489 156.577 115.492 155.853 116.362 154.734C117.231 153.614 117.699 151.837 117.699 149.533C117.699 147.163 117.231 145.451 116.362 144.332C115.492 143.213 114.489 142.489 113.418 142.226C113.151 142.16 112.883 142.094 112.683 142.094C112.415 142.094 112.214 142.028 111.947 142.028C111.679 142.028 111.479 142.028 111.278 142.094C111.077 142.094 110.81 142.16 110.542 142.226C109.472 142.489 108.469 143.213 107.532 144.332C106.663 145.32 106.194 147.097 106.194 149.467Z" fill="#333333"/>
<path d="M125.143 139H136.824V142.427H129.372V147.436H136.488V150.929H129.372V159.563H125.143V139Z" fill="#333333"/>
<path d="M139.852 139H151.534V142.427H144.082V147.436H151.198V150.929H144.082V159.563H139.852V139Z" fill="#333333"/>
<path d="M154.562 159.563V139H158.889V159.563H154.562Z" fill="#333333"/>
<path d="M178.357 139.53V143.107C177.613 142.842 176.869 142.644 176.057 142.511C175.245 142.379 174.298 142.312 173.351 142.312C171.118 142.312 169.427 142.975 168.209 144.366C166.991 145.691 166.382 147.413 166.382 149.467C166.382 151.454 166.924 153.11 168.074 154.435C169.224 155.76 170.848 156.489 172.945 156.489C173.689 156.489 174.433 156.423 175.313 156.356C176.192 156.224 177.072 156.025 178.019 155.628L178.29 159.139C178.154 159.205 177.951 159.271 177.749 159.338C177.478 159.404 177.207 159.47 176.869 159.536C176.328 159.669 175.651 159.735 174.839 159.868C174.027 159.934 173.216 160 172.336 160C172.201 160 172.065 160 171.998 160C171.862 160 171.727 160 171.659 160C169.224 159.868 166.991 158.94 164.962 157.35C162.932 155.694 161.917 153.11 161.917 149.666C161.917 146.287 162.932 143.637 164.894 141.782C166.856 139.927 169.562 139 172.877 139C173.757 139 174.569 139 175.245 139.066C175.989 139.132 176.666 139.265 177.41 139.397C177.546 139.464 177.748 139.464 177.884 139.53C178.019 139.464 178.154 139.53 178.357 139.53Z" fill="#333333"/>
<path d="M181.386 139H193.5V142.229H185.532V147.37H192.723V150.533H185.532V156.333H193.5V159.562H181.386V139Z" fill="#333333"/>
</svg>
