<svg width="190" height="45" viewBox="0 0 190 45" fill="none" xmlns="http://www.w3.org/2000/svg">
<path d="M49.0066 34.1382H52.2239V38.5276C51.6977 38.699 51.1914 38.8206 50.705 38.8924C50.2226 38.9641 49.7003 39 49.1382 39C47.8146 39 46.794 38.6093 46.0764 37.8279C45.3588 37.0425 45 35.9362 45 34.509C45 33.1017 45.4047 32.0013 46.214 31.208C47.0233 30.4106 48.1375 30.012 49.5568 30.012C50.4698 30.012 51.3349 30.1874 52.1522 30.5382L51.6498 31.7282C50.9402 31.4013 50.2306 31.2379 49.5209 31.2379C48.588 31.2379 47.8505 31.5309 47.3083 32.1169C46.7661 32.703 46.495 33.5043 46.495 34.5209C46.495 35.5894 46.7382 36.4027 47.2246 36.9608C47.715 37.515 48.4186 37.792 49.3355 37.792C49.798 37.792 50.2924 37.7342 50.8186 37.6186V35.3641H49.0066V34.1382Z" fill="#666666"/>
<path d="M57.5952 34.204H58.5879C59.2537 34.204 59.7361 34.0804 60.0351 33.8332C60.3341 33.586 60.4836 33.2193 60.4836 32.7329C60.4836 32.2385 60.3221 31.8837 59.9992 31.6684C59.6763 31.4532 59.1899 31.3455 58.5401 31.3455H57.5952V34.204ZM57.5952 35.388V38.8804H56.166V30.1375H58.6357C59.764 30.1375 60.5992 30.3488 61.1414 30.7714C61.6836 31.194 61.9547 31.8319 61.9547 32.685C61.9547 33.7734 61.3886 34.5488 60.2563 35.0113L62.7261 38.8804H61.0995L59.0065 35.388H57.5952Z" fill="#666666"/>
<path d="M73.5991 34.497C73.5991 35.9203 73.2423 37.0266 72.5286 37.8159C71.819 38.6053 70.8124 39 69.5087 39C68.1891 39 67.1745 38.6093 66.4649 37.8279C65.7592 37.0425 65.4064 35.9282 65.4064 34.485C65.4064 33.0419 65.7612 31.9336 66.4708 31.1601C67.1845 30.3867 68.2011 30 69.5207 30C70.8203 30 71.825 30.3927 72.5346 31.1781C73.2443 31.9635 73.5991 33.0698 73.5991 34.497ZM66.9253 34.497C66.9253 35.5734 67.1426 36.3907 67.5771 36.9488C68.0117 37.503 68.6555 37.7801 69.5087 37.7801C70.3579 37.7801 70.9977 37.505 71.4283 36.9548C71.8629 36.4047 72.0801 35.5854 72.0801 34.497C72.0801 33.4246 71.8649 32.6113 71.4343 32.0571C71.0077 31.503 70.3698 31.2259 69.5207 31.2259C68.6635 31.2259 68.0157 31.503 67.5771 32.0571C67.1426 32.6113 66.9253 33.4246 66.9253 34.497Z" fill="#666666"/>
<path d="M84.167 30.1375V35.7947C84.167 36.4405 84.0275 37.0066 83.7484 37.493C83.4734 37.9754 83.0727 38.3482 82.5464 38.6113C82.0242 38.8704 81.3983 39 80.6687 39C79.5843 39 78.7411 38.713 78.1391 38.1389C77.5371 37.5648 77.2361 36.7754 77.2361 35.7708V30.1375H78.6714V35.6691C78.6714 36.3907 78.8388 36.9229 79.1737 37.2658C79.5086 37.6086 80.0229 37.7801 80.7165 37.7801C82.0641 37.7801 82.7378 37.0724 82.7378 35.6571V30.1375H84.167Z" fill="#666666"/>
<path d="M94.0294 32.7807C94.0294 33.6937 93.7304 34.3934 93.1324 34.8797C92.5344 35.3661 91.6832 35.6093 90.5789 35.6093H89.6699V38.8804H88.2407V30.1375H90.7583C91.8506 30.1375 92.6679 30.3608 93.2101 30.8073C93.7563 31.2538 94.0294 31.9116 94.0294 32.7807ZM89.6699 34.4073H90.4294C91.1629 34.4073 91.7011 34.2797 92.044 34.0246C92.3868 33.7694 92.5583 33.3708 92.5583 32.8286C92.5583 32.3262 92.4048 31.9515 92.0978 31.7043C91.7908 31.4571 91.3124 31.3336 90.6626 31.3336H89.6699V34.4073Z" fill="#666666"/>
<path d="M102.654 36.5063C102.654 37.2837 102.373 37.8937 101.811 38.3362C101.249 38.7787 100.473 39 99.4844 39C98.4957 39 97.6864 38.8465 97.0565 38.5395V37.188C97.4552 37.3754 97.8777 37.5229 98.3243 37.6306C98.7747 37.7382 99.1934 37.792 99.5801 37.792C100.146 37.792 100.563 37.6844 100.83 37.4691C101.101 37.2538 101.237 36.9648 101.237 36.602C101.237 36.2751 101.113 35.998 100.866 35.7708C100.619 35.5435 100.108 35.2744 99.3349 34.9635C98.5375 34.6405 97.9754 34.2718 97.6485 33.8571C97.3216 33.4425 97.1581 32.9442 97.1581 32.3621C97.1581 31.6326 97.4173 31.0585 97.9355 30.6399C98.4538 30.2213 99.1495 30.012 100.023 30.012C100.86 30.012 101.693 30.1953 102.522 30.5621L102.068 31.7282C101.29 31.4013 100.597 31.2379 99.9867 31.2379C99.5243 31.2379 99.1734 31.3395 98.9342 31.5429C98.695 31.7422 98.5754 32.0073 98.5754 32.3382C98.5754 32.5654 98.6233 32.7608 98.7189 32.9243C98.8146 33.0837 98.9721 33.2352 99.1914 33.3787C99.4106 33.5223 99.8053 33.7116 100.375 33.9468C101.017 34.214 101.488 34.4631 101.787 34.6944C102.086 34.9256 102.305 35.1867 102.445 35.4777C102.584 35.7688 102.654 36.1116 102.654 36.5063Z" fill="#666666"/>
<path fill-rule="evenodd" clip-rule="evenodd" d="M15.7973 38.3213L0.948664 31.3731C-0.316221 30.7665 -0.316221 29.829 0.948664 29.2776L6.11819 26.8512L15.7423 31.3731C17.0072 31.9797 19.042 31.9797 20.2519 31.3731L29.876 26.8512L35.0456 29.2776C36.3104 29.8842 36.3104 30.8216 35.0456 31.3731L20.1969 38.3213C19.042 38.8728 17.0072 38.8728 15.7973 38.3213Z" fill="#FF6F3D"/>
<path fill-rule="evenodd" clip-rule="evenodd" d="M15.7973 29.7739L0.948663 22.8256C-0.316221 22.219 -0.316221 21.2816 0.948663 20.7301L6.0082 18.3589L15.7973 22.9359C17.0622 23.5425 19.097 23.5425 20.3069 22.9359L30.096 18.3589L35.1555 20.7301C36.4204 21.3367 36.4204 22.2742 35.1555 22.8256L20.3069 29.7739C19.042 30.3805 17.0072 30.3805 15.7973 29.7739Z" fill="#95C038"/>
<path fill-rule="evenodd" clip-rule="evenodd" d="M15.7973 21.447L0.948663 14.4987C-0.316221 13.8921 -0.316221 12.9546 0.948663 12.4032L15.7973 5.45495C17.0622 4.84835 19.097 4.84835 20.3069 5.45495L35.1555 12.4032C36.4204 13.0098 36.4204 13.9473 35.1555 14.4987L20.3069 21.447C19.042 21.9984 17.0072 21.9984 15.7973 21.447Z" fill="#5DC0E8"/>
<path d="M45.5908 14.8825C45.5908 12.01 46.4092 9.84208 48.1006 8.43293C49.7374 6.96959 51.7016 6.26501 53.9385 6.26501C56.1755 6.26501 58.0851 6.96959 59.7219 8.43293C61.3588 9.89628 62.1772 12.01 62.1772 14.9367C62.1772 17.8092 61.3588 19.9771 59.7219 21.3863C58.0851 22.8496 56.121 23.5542 53.9385 23.5542C51.7016 23.5542 49.792 22.8496 48.1006 21.3863C46.4092 19.9229 45.5908 17.755 45.5908 14.8825ZM49.1918 14.8825C49.1918 16.8878 49.5737 18.297 50.283 19.2183C51.0469 20.1397 51.8653 20.7359 52.7382 20.9527C52.9565 21.0069 53.1201 21.0611 53.3384 21.0611C53.5021 21.0611 53.7203 21.1153 53.884 21.1153C54.1022 21.1153 54.2659 21.1153 54.4841 21.0611C54.7024 21.0611 54.8661 21.0069 55.0843 20.9527C55.9573 20.7359 56.7757 20.1397 57.485 19.2183C58.1942 18.297 58.5762 16.8336 58.5762 14.9367C58.5762 12.9856 58.1942 11.5764 57.485 10.6551C56.7757 9.73369 55.9573 9.13751 55.0843 8.92072C54.8661 8.86652 54.6478 8.81232 54.4841 8.81232C54.2659 8.81232 54.1022 8.75812 53.884 8.75812C53.6657 8.75812 53.5021 8.75812 53.3384 8.81232C53.1747 8.81232 52.9565 8.86652 52.7382 8.92072C51.8653 9.13751 51.0469 9.73369 50.283 10.6551C49.5737 11.468 49.1918 12.9314 49.1918 14.8825Z" fill="#333333"/>
<path d="M63.9777 6.42761H68.4516L74.3441 17.0504L75.2171 19.3809H75.2717L75.2171 16.3458V6.42761H78.6544V23.3374H74.1805L68.2879 12.281L67.415 10.3841H67.3604L67.415 13.365V23.3374H63.9777V6.42761Z" fill="#333333"/>
<path d="M82.2007 6.42761H85.638V20.4649H92.4035V23.3374H82.2007V6.42761Z" fill="#333333"/>
<path d="M90.2757 6.42761H94.2586L97.7504 12.3352L98.2961 13.5275H98.4052L98.9508 12.3352L102.497 6.42761H106.153L99.9874 16.4542V23.3374H96.5501V16.4L90.2757 6.42761Z" fill="#333333"/>
<path d="M105.716 14.8825C105.716 12.01 106.535 9.84208 108.226 8.43293C109.863 6.96959 111.827 6.26501 114.064 6.26501C116.301 6.26501 118.211 6.96959 119.847 8.43293C121.484 9.89628 122.303 12.01 122.303 14.9367C122.303 17.8092 121.484 19.9771 119.847 21.3862C118.211 22.8496 116.246 23.5542 114.064 23.5542C111.827 23.5542 109.917 22.8496 108.226 21.3862C106.589 19.9229 105.716 17.755 105.716 14.8825ZM109.317 14.8825C109.317 16.8878 109.699 18.297 110.408 19.2183C111.172 20.1397 111.936 20.7359 112.864 20.9527C113.082 21.0069 113.246 21.0611 113.464 21.0611C113.628 21.0611 113.846 21.1153 114.009 21.1153C114.228 21.1153 114.391 21.1153 114.61 21.0611C114.828 21.0611 114.992 21.0069 115.21 20.9527C116.083 20.7359 116.901 20.1397 117.61 19.2183C118.32 18.297 118.702 16.8336 118.702 14.9367C118.702 12.9856 118.32 11.5764 117.61 10.6551C116.901 9.73368 116.083 9.13751 115.21 8.92072C114.992 8.86652 114.773 8.81232 114.61 8.81232C114.391 8.81232 114.228 8.75812 114.009 8.75812C113.791 8.75812 113.628 8.75812 113.464 8.81232C113.3 8.81232 113.082 8.86652 112.864 8.92072C111.991 9.13751 111.172 9.73368 110.408 10.6551C109.699 11.468 109.317 12.9314 109.317 14.8825Z" fill="#333333"/>
<path d="M124.703 6.42761H134.197V9.24591H128.14V13.365H133.924V16.2374H128.14V23.3374H124.703V6.42761Z" fill="#333333"/>
<path d="M136.761 6.42761H146.255V9.24591H140.198V13.365H145.982V16.2374H140.198V23.3374H136.761V6.42761Z" fill="#333333"/>
<path d="M148.273 23.3374V6.42761H151.711V23.3374H148.273Z" fill="#333333"/>
<path d="M166.856 6.80687V9.73357C166.256 9.51677 165.656 9.35418 165.001 9.24578C164.346 9.13739 163.582 9.08319 162.819 9.08319C161.018 9.08319 159.654 9.62517 158.672 10.7633C157.69 11.8473 157.199 13.2564 157.199 14.9366C157.199 16.5625 157.635 17.9175 158.563 19.0014C159.49 20.0854 160.8 20.6816 162.491 20.6816C163.091 20.6816 163.692 20.6274 164.401 20.5732C165.11 20.4648 165.819 20.3022 166.583 19.977L166.801 22.8495C166.692 22.9037 166.529 22.9579 166.365 23.0121C166.147 23.0663 165.929 23.1205 165.656 23.1747C165.219 23.2831 164.674 23.3373 164.019 23.4457C163.364 23.4999 162.709 23.554 162 23.554C161.891 23.554 161.782 23.554 161.727 23.554C161.618 23.554 161.509 23.554 161.455 23.554C159.49 23.4457 157.69 22.6869 156.053 21.3861C154.416 20.0312 153.598 17.9175 153.598 15.0992C153.598 12.3351 154.416 10.1671 155.999 8.64961C157.581 7.13206 159.763 6.37329 162.437 6.37329C163.146 6.37329 163.801 6.37329 164.346 6.42749C164.946 6.48169 165.492 6.59008 166.092 6.69848C166.201 6.75268 166.365 6.75268 166.474 6.80687C166.583 6.75268 166.692 6.80687 166.856 6.80687Z" fill="#333333"/>
<path d="M169.584 6.42761H179.787V9.08331H173.076V13.3108H179.132V15.9123H173.076V20.6817H179.787V23.3374H169.584V6.42761Z" fill="#333333"/>
</svg>
