<svg width="190" height="45" viewBox="0 0 190 45" fill="none" xmlns="http://www.w3.org/2000/svg">
<path d="M53.4219 34.4398C53.4219 35.8312 53.0422 36.8958 52.2829 37.6338C51.5236 38.3679 50.43 38.7349 49.002 38.7349H46.6844V30.3061H49.2457C50.5641 30.3061 51.5897 30.6674 52.3226 31.39C53.0555 32.1126 53.4219 33.1292 53.4219 34.4398ZM51.9939 34.4859C51.9939 32.4681 51.0665 31.4592 49.2117 31.4592H48.0387V37.5761H49.002C50.9966 37.5761 51.9939 36.546 51.9939 34.4859Z" fill="#666666"/>
<path d="M64.3026 34.509C64.3026 35.8811 63.9645 36.9477 63.2883 37.7087C62.6159 38.4697 61.6621 38.8502 60.4268 38.8502C59.1764 38.8502 58.215 38.4736 57.5425 37.7202C56.8739 36.9631 56.5396 35.8888 56.5396 34.4975C56.5396 33.1061 56.8758 32.0376 57.5482 31.292C58.2244 30.5463 59.1877 30.1735 60.4381 30.1735C61.6696 30.1735 62.6216 30.5521 63.294 31.3093C63.9664 32.0664 64.3026 33.133 64.3026 34.509ZM57.9789 34.509C57.9789 35.5467 58.1847 36.3347 58.5965 36.8727C59.0083 37.407 59.6184 37.6741 60.4268 37.6741C61.2314 37.6741 61.8377 37.4089 62.2457 36.8785C62.6575 36.3481 62.8634 35.5583 62.8634 34.509C62.8634 33.4751 62.6594 32.691 62.2514 32.1568C61.8472 31.6225 61.2428 31.3554 60.4381 31.3554C59.6259 31.3554 59.0121 31.6225 58.5965 32.1568C58.1847 32.691 57.9789 33.4751 57.9789 34.509Z" fill="#666666"/>
<path d="M71.3472 31.3669C70.569 31.3669 69.957 31.6475 69.5113 32.2087C69.0655 32.7698 68.8426 33.5443 68.8426 34.5321C68.8426 35.566 69.0561 36.3481 69.4829 36.8785C69.9136 37.4089 70.535 37.6741 71.3472 37.6741C71.6985 37.6741 72.0385 37.6395 72.3672 37.5703C72.6958 37.4973 73.0377 37.4051 73.3928 37.2936V38.4755C72.743 38.7253 72.0064 38.8502 71.1829 38.8502C69.9703 38.8502 69.0391 38.4774 68.3893 37.7318C67.7396 36.9823 67.4147 35.9119 67.4147 34.5205C67.4147 33.6442 67.5714 32.8774 67.885 32.2202C68.2023 31.5629 68.6594 31.0594 69.2563 30.7097C69.8531 30.3599 70.5539 30.1851 71.3585 30.1851C72.2047 30.1851 72.9867 30.3657 73.7045 30.727L73.2171 31.8743C72.9376 31.7397 72.6411 31.6225 72.3275 31.5226C72.0177 31.4188 71.691 31.3669 71.3472 31.3669Z" fill="#666666"/>
<path d="M81.6953 36.4461C81.6953 37.1956 81.429 37.7837 80.8963 38.2103C80.3637 38.6369 79.6289 38.8502 78.6921 38.8502C77.7552 38.8502 76.9884 38.7022 76.3915 38.4063V37.1034C76.7693 37.284 77.1697 37.4262 77.5928 37.53C78.0197 37.6338 78.4163 37.6856 78.7828 37.6856C79.3192 37.6856 79.7139 37.5819 79.967 37.3743C80.2239 37.1668 80.3524 36.8881 80.3524 36.5384C80.3524 36.2232 80.2353 35.9561 80.001 35.737C79.7668 35.5179 79.2833 35.2585 78.5504 34.9587C77.7949 34.6474 77.2622 34.2918 76.9525 33.8921C76.6427 33.4924 76.4878 33.0119 76.4878 32.4508C76.4878 31.7474 76.7334 31.194 77.2245 30.7904C77.7156 30.3868 78.3748 30.1851 79.2021 30.1851C79.9954 30.1851 80.7849 30.3619 81.5707 30.7155L81.14 31.8397C80.4034 31.5245 79.7461 31.3669 79.1681 31.3669C78.7299 31.3669 78.3974 31.4649 78.1708 31.661C77.9441 31.8531 77.8308 32.1087 77.8308 32.4277C77.8308 32.6468 77.8761 32.8351 77.9668 32.9927C78.0574 33.1465 78.2067 33.2925 78.4144 33.4309C78.6222 33.5693 78.9962 33.7518 79.5364 33.9786C80.1446 34.2361 80.5904 34.4763 80.8737 34.6992C81.157 34.9222 81.3648 35.1739 81.497 35.4545C81.6292 35.7351 81.6953 36.0656 81.6953 36.4461Z" fill="#666666"/>
<path fill-rule="evenodd" clip-rule="evenodd" d="M15.7973 38.3213L0.948664 31.3731C-0.316221 30.7665 -0.316221 29.829 0.948664 29.2776L6.11819 26.8512L15.7423 31.3731C17.0072 31.9797 19.042 31.9797 20.2519 31.3731L29.876 26.8512L35.0456 29.2776C36.3104 29.8842 36.3104 30.8216 35.0456 31.3731L20.1969 38.3213C19.042 38.8728 17.0072 38.8728 15.7973 38.3213Z" fill="#FF6F3D"/>
<path fill-rule="evenodd" clip-rule="evenodd" d="M15.7973 29.7739L0.948663 22.8256C-0.316221 22.219 -0.316221 21.2816 0.948663 20.7301L6.0082 18.3589L15.7973 22.9359C17.0622 23.5425 19.097 23.5425 20.3069 22.9359L30.096 18.3589L35.1555 20.7301C36.4204 21.3367 36.4204 22.2742 35.1555 22.8256L20.3069 29.7739C19.042 30.3805 17.0072 30.3805 15.7973 29.7739Z" fill="#95C038"/>
<path fill-rule="evenodd" clip-rule="evenodd" d="M15.7973 21.447L0.948663 14.4987C-0.316221 13.8921 -0.316221 12.9546 0.948663 12.4032L15.7973 5.45495C17.0622 4.84835 19.097 4.84835 20.3069 5.45495L35.1555 12.4032C36.4204 13.0098 36.4204 13.9473 35.1555 14.4987L20.3069 21.447C19.042 21.9984 17.0072 21.9984 15.7973 21.447Z" fill="#5DC0E8"/>
<path d="M45.5908 14.8826C45.5908 12.0101 46.4092 9.84214 48.1006 8.43299C49.7374 6.96965 51.7016 6.26508 53.9385 6.26508C56.1755 6.26508 58.0851 6.96965 59.7219 8.43299C61.3588 9.89634 62.1772 12.0101 62.1772 14.9368C62.1772 17.8092 61.3588 19.9772 59.7219 21.3863C58.0851 22.8497 56.121 23.5542 53.9385 23.5542C51.7016 23.5542 49.792 22.8497 48.1006 21.3863C46.4092 19.923 45.5908 17.755 45.5908 14.8826ZM49.1918 14.8826C49.1918 16.8879 49.5737 18.297 50.283 19.2184C51.0469 20.1398 51.8653 20.7359 52.7382 20.9527C52.9565 21.0069 53.1201 21.0611 53.3384 21.0611C53.5021 21.0611 53.7203 21.1153 53.884 21.1153C54.1022 21.1153 54.2659 21.1153 54.4841 21.0611C54.7024 21.0611 54.8661 21.0069 55.0843 20.9527C55.9573 20.7359 56.7757 20.1398 57.485 19.2184C58.1942 18.297 58.5762 16.8337 58.5762 14.9368C58.5762 12.9856 58.1942 11.5765 57.485 10.6551C56.7757 9.73375 55.9573 9.13757 55.0843 8.92078C54.8661 8.86658 54.6478 8.81238 54.4841 8.81238C54.2659 8.81238 54.1022 8.75818 53.884 8.75818C53.6657 8.75818 53.5021 8.75818 53.3384 8.81238C53.1747 8.81238 52.9565 8.86658 52.7382 8.92078C51.8653 9.13757 51.0469 9.73375 50.283 10.6551C49.5737 11.4681 49.1918 12.9314 49.1918 14.8826Z" fill="#333333"/>
<path d="M63.9777 6.42767H68.4516L74.3441 17.0505L75.2171 19.381H75.2717L75.2171 16.3459V6.42767H78.6544V23.3374H74.1805L68.2879 12.2811L67.415 10.3841H67.3604L67.415 13.365V23.3374H63.9777V6.42767Z" fill="#333333"/>
<path d="M82.2007 6.42767H85.638V20.4649H92.4035V23.3374H82.2007V6.42767Z" fill="#333333"/>
<path d="M90.2757 6.42767H94.2586L97.7504 12.3353L98.2961 13.5276H98.4052L98.9508 12.3353L102.497 6.42767H106.153L99.9874 16.4543V23.3374H96.5501V16.4001L90.2757 6.42767Z" fill="#333333"/>
<path d="M105.716 14.8826C105.716 12.0101 106.535 9.84214 108.226 8.43299C109.863 6.96965 111.827 6.26508 114.064 6.26508C116.301 6.26508 118.211 6.96965 119.847 8.43299C121.484 9.89634 122.303 12.0101 122.303 14.9368C122.303 17.8092 121.484 19.9772 119.847 21.3863C118.211 22.8497 116.246 23.5542 114.064 23.5542C111.827 23.5542 109.917 22.8497 108.226 21.3863C106.589 19.923 105.716 17.755 105.716 14.8826ZM109.317 14.8826C109.317 16.8879 109.699 18.297 110.408 19.2184C111.172 20.1398 111.936 20.7359 112.864 20.9527C113.082 21.0069 113.246 21.0611 113.464 21.0611C113.628 21.0611 113.846 21.1153 114.009 21.1153C114.228 21.1153 114.391 21.1153 114.61 21.0611C114.828 21.0611 114.992 21.0069 115.21 20.9527C116.083 20.7359 116.901 20.1398 117.61 19.2184C118.32 18.297 118.702 16.8337 118.702 14.9368C118.702 12.9856 118.32 11.5765 117.61 10.6551C116.901 9.73375 116.083 9.13757 115.21 8.92078C114.992 8.86658 114.773 8.81238 114.61 8.81238C114.391 8.81238 114.228 8.75818 114.009 8.75818C113.791 8.75818 113.628 8.75818 113.464 8.81238C113.3 8.81238 113.082 8.86658 112.864 8.92078C111.991 9.13757 111.172 9.73375 110.408 10.6551C109.699 11.4681 109.317 12.9314 109.317 14.8826Z" fill="#333333"/>
<path d="M124.703 6.42767H134.197V9.24597H128.14V13.365H133.924V16.2375H128.14V23.3374H124.703V6.42767Z" fill="#333333"/>
<path d="M136.761 6.42767H146.255V9.24597H140.198V13.365H145.982V16.2375H140.198V23.3374H136.761V6.42767Z" fill="#333333"/>
<path d="M148.273 23.3374V6.42767H151.711V23.3374H148.273Z" fill="#333333"/>
<path d="M166.856 6.80694V9.73363C166.256 9.51683 165.656 9.35424 165.001 9.24584C164.346 9.13745 163.582 9.08325 162.819 9.08325C161.018 9.08325 159.654 9.62523 158.672 10.7634C157.69 11.8473 157.199 13.2565 157.199 14.9366C157.199 16.5626 157.635 17.9175 158.563 19.0015C159.49 20.0854 160.8 20.6816 162.491 20.6816C163.091 20.6816 163.692 20.6274 164.401 20.5732C165.11 20.4648 165.819 20.3022 166.583 19.977L166.801 22.8495C166.692 22.9037 166.529 22.9579 166.365 23.0121C166.147 23.0663 165.929 23.1205 165.656 23.1747C165.219 23.2831 164.674 23.3373 164.019 23.4457C163.364 23.4999 162.709 23.5541 162 23.5541C161.891 23.5541 161.782 23.5541 161.727 23.5541C161.618 23.5541 161.509 23.5541 161.455 23.5541C159.49 23.4457 157.69 22.6869 156.053 21.3862C154.416 20.0312 153.598 17.9175 153.598 15.0992C153.598 12.3351 154.416 10.1672 155.999 8.64967C157.581 7.13212 159.763 6.37335 162.437 6.37335C163.146 6.37335 163.801 6.37335 164.346 6.42755C164.946 6.48175 165.492 6.59014 166.092 6.69854C166.201 6.75274 166.365 6.75274 166.474 6.80694C166.583 6.75274 166.692 6.80694 166.856 6.80694Z" fill="#333333"/>
<path d="M169.584 6.42773H179.787V9.08343H173.076V13.3109H179.132V15.9124H173.076V20.6818H179.787V23.3375H169.584V6.42773Z" fill="#333333"/>
</svg>
