<svg width="190" height="45" viewBox="0 0 190 45" fill="none" xmlns="http://www.w3.org/2000/svg">
<path d="M54.3842 38.8804H52.7895L51.2684 33.6658C51.203 33.4385 51.1212 33.1116 51.0231 32.685C50.9249 32.2545 50.8656 31.9555 50.8452 31.788C50.8043 32.0432 50.7368 32.3741 50.6428 32.7807C50.5528 33.1874 50.4772 33.4904 50.4158 33.6897L48.9316 38.8804H47.3368L46.1776 34.503L45 30.1375H46.4966L47.7785 35.2326C47.9788 36.0498 48.1219 36.7714 48.2078 37.3973C48.2528 37.0585 48.3202 36.6797 48.4102 36.2611C48.5002 35.8425 48.5819 35.5037 48.6555 35.2445L50.1153 30.1375H51.5689L53.0655 35.2684C53.2086 35.7429 53.3599 36.4525 53.5194 37.3973C53.5807 36.8272 53.7279 36.1017 53.961 35.2206L55.2368 30.1375H56.721L54.3842 38.8804Z" fill="#666666"/>
<path d="M67.8422 34.497C67.8422 35.9203 67.4763 37.0266 66.7444 37.8159C66.0165 38.6053 64.9841 39 63.647 39C62.2935 39 61.2529 38.6093 60.525 37.8279C59.8013 37.0425 59.4394 35.9282 59.4394 34.485C59.4394 33.0419 59.8033 31.9336 60.5312 31.1601C61.2631 30.3867 62.3058 30 63.6592 30C64.9922 30 66.0227 30.3927 66.7505 31.1781C67.4783 31.9635 67.8422 33.0698 67.8422 34.497ZM60.9973 34.497C60.9973 35.5734 61.2201 36.3907 61.6658 36.9488C62.1115 37.503 62.7719 37.7801 63.647 37.7801C64.5179 37.7801 65.1742 37.505 65.6158 36.9548C66.0615 36.4047 66.2843 35.5854 66.2843 34.497C66.2843 33.4246 66.0635 32.6113 65.6219 32.0571C65.1844 31.503 64.5302 31.2259 63.6592 31.2259C62.7801 31.2259 62.1156 31.503 61.6658 32.0571C61.2201 32.6113 60.9973 33.4246 60.9973 34.497Z" fill="#666666"/>
<path d="M73.1183 34.204H74.1364C74.8193 34.204 75.314 34.0804 75.6207 33.8332C75.9274 33.586 76.0807 33.2193 76.0807 32.7329C76.0807 32.2385 75.9151 31.8837 75.5839 31.6684C75.2527 31.4532 74.7538 31.3455 74.0873 31.3455H73.1183V34.204ZM73.1183 35.388V38.8804H71.6524V30.1375H74.1855C75.3427 30.1375 76.1993 30.3488 76.7554 30.7714C77.3115 31.194 77.5895 31.8319 77.5895 32.685C77.5895 33.7734 77.0089 34.5488 75.8476 35.0113L78.3808 38.8804H76.7125L74.5658 35.388H73.1183Z" fill="#666666"/>
<path d="M88.4163 38.8804H86.7174L83.9021 34.9216L83.0373 35.6093V38.8804H81.5714V30.1375H83.0373V34.3116C83.438 33.8332 83.8367 33.3728 84.2333 32.9302L86.656 30.1375H88.3243C86.7583 31.9316 85.6358 33.2093 84.9571 33.9708L88.4163 38.8804Z" fill="#666666"/>
<path d="M96.6609 36.5063C96.6609 37.2837 96.3727 37.8937 95.7961 38.3362C95.2196 38.7787 94.4243 39 93.4102 39C92.3961 39 91.5661 38.8465 90.92 38.5395V37.188C91.3289 37.3754 91.7623 37.5229 92.2203 37.6306C92.6824 37.7382 93.1117 37.792 93.5083 37.792C94.089 37.792 94.5163 37.6844 94.7902 37.4691C95.0683 37.2538 95.2073 36.9648 95.2073 36.602C95.2073 36.2751 95.0806 35.998 94.827 35.7708C94.5735 35.5435 94.0501 35.2744 93.2569 34.9635C92.4391 34.6405 91.8625 34.2718 91.5272 33.8571C91.1919 33.4425 91.0243 32.9442 91.0243 32.3621C91.0243 31.6326 91.2901 31.0585 91.8216 30.6399C92.3532 30.2213 93.0667 30.012 93.9622 30.012C94.8209 30.012 95.6755 30.1953 96.526 30.5621L96.0599 31.7282C95.2625 31.4013 94.551 31.2379 93.9254 31.2379C93.4511 31.2379 93.0913 31.3395 92.8459 31.5429C92.6006 31.7422 92.4779 32.0073 92.4779 32.3382C92.4779 32.5654 92.527 32.7608 92.6251 32.9243C92.7233 33.0837 92.8848 33.2352 93.1097 33.3787C93.3346 33.5223 93.7394 33.7116 94.3241 33.9468C94.9824 34.214 95.4649 34.4631 95.7716 34.6944C96.0783 34.9256 96.3032 35.1867 96.4463 35.4777C96.5894 35.7688 96.6609 36.1116 96.6609 36.5063Z" fill="#666666"/>
<path d="M106.218 32.7807C106.218 33.6937 105.911 34.3934 105.298 34.8797C104.685 35.3661 103.812 35.6093 102.679 35.6093H101.747V38.8804H100.281V30.1375H102.863C103.983 30.1375 104.822 30.3608 105.378 30.8073C105.938 31.2538 106.218 31.9116 106.218 32.7807ZM101.747 34.4073H102.526C103.278 34.4073 103.83 34.2797 104.182 34.0246C104.533 33.7694 104.709 33.3708 104.709 32.8286C104.709 32.3262 104.552 31.9515 104.237 31.7043C103.922 31.4571 103.431 31.3336 102.765 31.3336H101.747V34.4073Z" fill="#666666"/>
<path d="M115.456 38.8804L114.561 36.4525H111.132L110.255 38.8804H108.71L112.065 30.1017H113.659L117.014 38.8804H115.456ZM114.174 35.2206L113.334 32.8405C113.273 32.6811 113.187 32.4299 113.077 32.087C112.97 31.7442 112.897 31.493 112.856 31.3336C112.745 31.8239 112.584 32.3601 112.371 32.9422L111.562 35.2206H114.174Z" fill="#666666"/>
<path d="M123.897 31.2379C123.055 31.2379 122.392 31.5289 121.91 32.111C121.427 32.693 121.186 33.4963 121.186 34.5209C121.186 35.5934 121.417 36.4047 121.879 36.9548C122.345 37.505 123.018 37.7801 123.897 37.7801C124.277 37.7801 124.645 37.7442 125.001 37.6724C125.357 37.5967 125.727 37.501 126.111 37.3854V38.6113C125.408 38.8704 124.611 39 123.719 39C122.407 39 121.399 38.6133 120.696 37.8399C119.992 37.0625 119.641 35.9522 119.641 34.509C119.641 33.6 119.81 32.8047 120.15 32.1229C120.493 31.4412 120.988 30.9189 121.634 30.5561C122.28 30.1934 123.039 30.012 123.909 30.012C124.825 30.012 125.672 30.1993 126.449 30.5741L125.921 31.7641C125.619 31.6246 125.298 31.503 124.958 31.3993C124.623 31.2917 124.269 31.2379 123.897 31.2379Z" fill="#666666"/>
<path d="M135 38.8804H129.928V30.1375H135V31.3455H131.394V33.7256H134.773V34.9216H131.394V37.6664H135V38.8804Z" fill="#666666"/>
<path fill-rule="evenodd" clip-rule="evenodd" d="M15.7973 38.3213L0.948664 31.3731C-0.316221 30.7665 -0.316221 29.829 0.948664 29.2776L6.11819 26.8512L15.7423 31.3731C17.0072 31.9797 19.042 31.9797 20.2519 31.3731L29.876 26.8512L35.0456 29.2776C36.3104 29.8842 36.3104 30.8216 35.0456 31.3731L20.1969 38.3213C19.042 38.8728 17.0072 38.8728 15.7973 38.3213Z" fill="#FF6F3D"/>
<path fill-rule="evenodd" clip-rule="evenodd" d="M15.7973 29.7739L0.948663 22.8256C-0.316221 22.219 -0.316221 21.2816 0.948663 20.7301L6.0082 18.3589L15.7973 22.9359C17.0622 23.5425 19.097 23.5425 20.3069 22.9359L30.096 18.3589L35.1555 20.7301C36.4204 21.3367 36.4204 22.2742 35.1555 22.8256L20.3069 29.7739C19.042 30.3805 17.0072 30.3805 15.7973 29.7739Z" fill="#95C038"/>
<path fill-rule="evenodd" clip-rule="evenodd" d="M15.7973 21.447L0.948663 14.4987C-0.316221 13.8921 -0.316221 12.9546 0.948663 12.4032L15.7973 5.45495C17.0622 4.84835 19.097 4.84835 20.3069 5.45495L35.1555 12.4032C36.4204 13.0098 36.4204 13.9473 35.1555 14.4987L20.3069 21.447C19.042 21.9984 17.0072 21.9984 15.7973 21.447Z" fill="#5DC0E8"/>
<path d="M45.5908 14.8825C45.5908 12.01 46.4092 9.84208 48.1006 8.43293C49.7374 6.96959 51.7016 6.26501 53.9385 6.26501C56.1755 6.26501 58.0851 6.96959 59.7219 8.43293C61.3588 9.89628 62.1772 12.01 62.1772 14.9367C62.1772 17.8092 61.3588 19.9771 59.7219 21.3863C58.0851 22.8496 56.121 23.5542 53.9385 23.5542C51.7016 23.5542 49.792 22.8496 48.1006 21.3863C46.4092 19.9229 45.5908 17.755 45.5908 14.8825ZM49.1918 14.8825C49.1918 16.8878 49.5737 18.297 50.283 19.2183C51.0469 20.1397 51.8653 20.7359 52.7382 20.9527C52.9565 21.0069 53.1201 21.0611 53.3384 21.0611C53.5021 21.0611 53.7203 21.1153 53.884 21.1153C54.1022 21.1153 54.2659 21.1153 54.4841 21.0611C54.7024 21.0611 54.8661 21.0069 55.0843 20.9527C55.9573 20.7359 56.7757 20.1397 57.485 19.2183C58.1942 18.297 58.5762 16.8336 58.5762 14.9367C58.5762 12.9856 58.1942 11.5764 57.485 10.6551C56.7757 9.73369 55.9573 9.13751 55.0843 8.92072C54.8661 8.86652 54.6478 8.81232 54.4841 8.81232C54.2659 8.81232 54.1022 8.75812 53.884 8.75812C53.6657 8.75812 53.5021 8.75812 53.3384 8.81232C53.1747 8.81232 52.9565 8.86652 52.7382 8.92072C51.8653 9.13751 51.0469 9.73369 50.283 10.6551C49.5737 11.468 49.1918 12.9314 49.1918 14.8825Z" fill="#333333"/>
<path d="M63.9777 6.42761H68.4516L74.3441 17.0504L75.2171 19.3809H75.2717L75.2171 16.3458V6.42761H78.6544V23.3374H74.1805L68.2879 12.281L67.415 10.3841H67.3604L67.415 13.365V23.3374H63.9777V6.42761Z" fill="#333333"/>
<path d="M82.2007 6.42761H85.638V20.4649H92.4035V23.3374H82.2007V6.42761Z" fill="#333333"/>
<path d="M90.2757 6.42761H94.2586L97.7504 12.3352L98.2961 13.5275H98.4052L98.9508 12.3352L102.497 6.42761H106.153L99.9874 16.4542V23.3374H96.5501V16.4L90.2757 6.42761Z" fill="#333333"/>
<path d="M105.716 14.8825C105.716 12.01 106.535 9.84208 108.226 8.43293C109.863 6.96959 111.827 6.26501 114.064 6.26501C116.301 6.26501 118.211 6.96959 119.847 8.43293C121.484 9.89628 122.303 12.01 122.303 14.9367C122.303 17.8092 121.484 19.9771 119.847 21.3862C118.211 22.8496 116.246 23.5542 114.064 23.5542C111.827 23.5542 109.917 22.8496 108.226 21.3862C106.589 19.9229 105.716 17.755 105.716 14.8825ZM109.317 14.8825C109.317 16.8878 109.699 18.297 110.408 19.2183C111.172 20.1397 111.936 20.7359 112.864 20.9527C113.082 21.0069 113.246 21.0611 113.464 21.0611C113.628 21.0611 113.846 21.1153 114.009 21.1153C114.228 21.1153 114.391 21.1153 114.61 21.0611C114.828 21.0611 114.992 21.0069 115.21 20.9527C116.083 20.7359 116.901 20.1397 117.61 19.2183C118.32 18.297 118.702 16.8336 118.702 14.9367C118.702 12.9856 118.32 11.5764 117.61 10.6551C116.901 9.73368 116.083 9.13751 115.21 8.92072C114.992 8.86652 114.773 8.81232 114.61 8.81232C114.391 8.81232 114.228 8.75812 114.009 8.75812C113.791 8.75812 113.628 8.75812 113.464 8.81232C113.3 8.81232 113.082 8.86652 112.864 8.92072C111.991 9.13751 111.172 9.73368 110.408 10.6551C109.699 11.468 109.317 12.9314 109.317 14.8825Z" fill="#333333"/>
<path d="M124.703 6.42761H134.197V9.24591H128.14V13.365H133.924V16.2374H128.14V23.3374H124.703V6.42761Z" fill="#333333"/>
<path d="M136.761 6.42761H146.255V9.24591H140.198V13.365H145.982V16.2374H140.198V23.3374H136.761V6.42761Z" fill="#333333"/>
<path d="M148.273 23.3374V6.42761H151.711V23.3374H148.273Z" fill="#333333"/>
<path d="M166.856 6.80687V9.73357C166.256 9.51677 165.656 9.35418 165.001 9.24578C164.346 9.13739 163.582 9.08319 162.819 9.08319C161.018 9.08319 159.654 9.62517 158.672 10.7633C157.69 11.8473 157.199 13.2564 157.199 14.9366C157.199 16.5625 157.635 17.9175 158.563 19.0014C159.49 20.0854 160.8 20.6816 162.491 20.6816C163.091 20.6816 163.692 20.6274 164.401 20.5732C165.11 20.4648 165.819 20.3022 166.583 19.977L166.801 22.8495C166.692 22.9037 166.529 22.9579 166.365 23.0121C166.147 23.0663 165.929 23.1205 165.656 23.1747C165.219 23.2831 164.674 23.3373 164.019 23.4457C163.364 23.4999 162.709 23.554 162 23.554C161.891 23.554 161.782 23.554 161.727 23.554C161.618 23.554 161.509 23.554 161.455 23.554C159.49 23.4457 157.69 22.6869 156.053 21.3861C154.416 20.0312 153.598 17.9175 153.598 15.0992C153.598 12.3351 154.416 10.1671 155.999 8.64961C157.581 7.13206 159.763 6.37329 162.437 6.37329C163.146 6.37329 163.801 6.37329 164.346 6.42749C164.946 6.48169 165.492 6.59008 166.092 6.69848C166.201 6.75268 166.365 6.75268 166.474 6.80687C166.583 6.75268 166.692 6.80687 166.856 6.80687Z" fill="#333333"/>
<path d="M169.584 6.42761H179.787V9.08331H173.076V13.3108H179.132V15.9123H173.076V20.6817H179.787V23.3374H169.584V6.42761Z" fill="#333333"/>
</svg>
