<svg width="24" height="24" viewBox="0 0 24 24" fill="none" xmlns="http://www.w3.org/2000/svg">
<path d="M12.4345 2C7.15559 2 2.87468 6.25411 2.87468 11.5028C2.87468 12.8957 3.17746 14.2163 3.72133 15.4087L2 20.245L7.00421 19.3173C8.54612 20.3787 10.4188 21 12.4373 21C17.7191 21 22 16.7459 22 11.4972C22 6.24853 17.7163 2 12.4345 2Z" fill="#959595"/>
<path d="M9 6H12.3579C13.8881 6 14.9975 6.22321 15.6863 6.66963C16.3801 7.11104 16.7269 7.81578 16.7269 8.78386C16.7269 9.44095 16.5744 9.98016 16.2694 10.4015C15.9692 10.8228 15.5683 11.0762 15.0664 11.1614V11.2367C15.7503 11.3922 16.2423 11.6831 16.5424 12.1094C16.8475 12.5358 17 13.1026 17 13.8098C17 14.813 16.6433 15.5955 15.9299 16.1573C15.2214 16.7191 14.2571 17 13.0369 17H9V6ZM11.2878 10.3564H12.6162C13.2362 10.3564 13.6839 10.2586 13.9594 10.0629C14.2399 9.86731 14.3801 9.54378 14.3801 9.09234C14.3801 8.671 14.2276 8.37004 13.9225 8.18947C13.6224 8.00388 13.1451 7.91108 12.4908 7.91108H11.2878V10.3564ZM11.2878 12.2073V15.0739H12.7786C13.4084 15.0739 13.8733 14.951 14.1734 14.7052C14.4736 14.4594 14.6236 14.0832 14.6236 13.5766C14.6236 12.6637 13.984 12.2073 12.7048 12.2073H11.2878Z" fill="white"/>
</svg>
