<svg width="24" height="24" viewBox="0 0 24 24" fill="none" xmlns="http://www.w3.org/2000/svg">
<path d="M16.375 3H14.25C11.5625 3 10.125 4.74 10.125 7.44V9.6H7.625C7.4375 9.6 7 9.72 7 10.2V12.6C7 13.02 7.3125 13.2 7.625 13.2H10.125V20.64C10.125 20.82 10.3125 21 10.5 21H13.3125C13.5 21 13.875 20.88 13.875 20.7V13.2H16.375C16.875 13.2 17 12.96 17 12.6V10.2C17 10.08 17 9.6 16.375 9.6H13.875V7.8C13.875 6.96 14.125 6.6 15.0625 6.6H16.375C16.75 6.6 17 6.18 17 6V3.6C17 3.18 16.75 3 16.375 3Z" fill="#4E4E4E"/>
</svg>
