<svg width="24" height="24" viewBox="0 0 24 24" fill="none" xmlns="http://www.w3.org/2000/svg">
<g clip-path="url(#clip0)">
<path d="M21.5742 14.5893C21.2802 16.0707 18.9411 17.6919 16.2546 18.0061C14.8537 18.1698 13.4744 18.3203 12.0036 18.2542C9.59825 18.1462 7.70027 17.6919 7.70027 17.6919C7.70027 17.9212 7.71471 18.1396 7.74359 18.3438C8.0563 20.6687 10.0974 20.808 12.0309 20.873C13.9823 20.9384 15.72 20.4017 15.72 20.4017L15.8001 22.1296C15.8001 22.1296 14.4352 22.8475 12.0036 22.9795C10.6628 23.0517 8.9979 22.9465 7.05879 22.4438C2.85321 21.3536 2.12994 16.9629 2.01927 12.5078C1.98554 11.1851 2.00634 9.9378 2.00634 8.89463C2.00634 4.33909 5.05385 3.00379 5.05385 3.00379C6.59048 2.31261 9.2272 2.02195 11.9684 2H12.0357C14.7769 2.02195 17.4153 2.31261 18.9518 3.00379C18.9518 3.00379 21.9992 4.33909 21.9992 8.89463C21.9992 8.89463 22.0375 12.2557 21.5742 14.5893Z" fill="#7A7A7A"/>
<path d="M18.4046 9.24798V14.764H16.1734V9.41012C16.1734 8.28153 15.6885 7.70869 14.7187 7.70869C13.6465 7.70869 13.1091 8.38822 13.1091 9.73189V12.6624H10.891V9.73189C10.891 8.38822 10.3535 7.70869 9.28126 7.70869C8.31148 7.70869 7.82664 8.28153 7.82664 9.41012V14.764H5.59539V9.24798C5.59539 8.12064 5.88846 7.22478 6.47715 6.562C7.0842 5.89921 7.8792 5.55945 8.86608 5.55945C10.0079 5.55945 10.8725 5.98927 11.4442 6.84904L12 7.76153L12.5559 6.84904C13.1275 5.98927 13.9921 5.55945 15.134 5.55945C16.1208 5.55945 16.9158 5.89921 17.523 6.562C18.1115 7.22478 18.4046 8.12064 18.4046 9.24798Z" fill="white"/>
</g>
<defs>
<clipPath id="clip0">
<rect width="20" height="21" fill="white" transform="translate(2 2)"/>
</clipPath>
</defs>
</svg>
