<svg width="24" height="24" viewBox="0 0 24 24" fill="none" xmlns="http://www.w3.org/2000/svg">
<path d="M16.0345 3H7.96554C5.20065 3 3 5.25705 3 7.96552V16.0345C3 18.7994 5.25708 21 7.96554 21H16.0345C18.7994 21 21 18.7429 21 16.0345V8.02194C21 5.25705 18.743 3 16.0345 3ZM19.4201 16.0909C19.4201 17.953 17.8966 19.4765 16.0345 19.4765H7.96554C6.10347 19.4765 4.57996 17.953 4.57996 16.0909V8.02194C4.57996 6.15987 6.10347 4.63636 7.96554 4.63636H16.0345C17.8966 4.63636 19.4201 6.15987 19.4201 8.02194V16.0909Z" fill="#686868"/>
<path d="M11.9718 7.40123C9.43262 7.40123 7.34483 9.489 7.34483 12.0282C7.34483 14.5674 9.43262 16.6551 11.9718 16.6551C14.511 16.6551 16.5988 14.5674 16.5988 12.0282C16.5988 9.489 14.511 7.40123 11.9718 7.40123ZM11.9718 15.0752C10.279 15.0752 8.92477 13.721 8.92477 12.0282C8.92477 10.3354 10.279 8.98117 11.9718 8.98117C13.6646 8.98117 15.0189 10.3354 15.0189 12.0282C15.0189 13.721 13.6646 15.0752 11.9718 15.0752Z" fill="#686868"/>
<path d="M16.8245 6.04715C16.5423 6.04715 16.2038 6.16 15.9781 6.38571C15.7524 6.61142 15.6395 6.89355 15.6395 7.23211C15.6395 7.51424 15.7524 7.8528 15.9781 8.07851C16.2038 8.30422 16.4859 8.41707 16.8245 8.41707C17.1066 8.41707 17.4452 8.30422 17.6709 8.07851C17.8966 7.8528 18.0095 7.57067 18.0095 7.23211C18.0095 6.94998 17.8966 6.61142 17.6709 6.38571C17.4452 6.16 17.1066 6.04715 16.8245 6.04715Z" fill="#686868"/>
</svg>
