<svg width="24" height="24" viewBox="0 0 24 24" fill="none" xmlns="http://www.w3.org/2000/svg">
<path d="M19.9944 8C19.9944 8.17143 19.9944 8.34286 19.9944 8.51429C19.9944 13.8286 15.8719 20 8.29526 20C5.95543 20 3.78273 19.3143 2 18.1714C2.33426 18.2286 2.66852 18.2286 3.00279 18.2286C4.95265 18.2286 6.67967 17.6 8.12813 16.5143C6.3454 16.4571 4.78551 15.3143 4.28412 13.7143C4.50696 13.7714 4.78552 13.7714 5.06407 13.7714C5.45404 13.7714 5.7883 13.7143 6.12256 13.6571C4.22841 13.3143 2.83565 11.6571 2.83565 9.71429V9.65714C3.39276 9.94286 4.00557 10.1143 4.67409 10.1714C3.55989 9.42857 2.83565 8.22857 2.83565 6.8C2.83565 6.05714 3.0585 5.37143 3.39276 4.74286C5.39833 7.2 8.46239 8.8 11.8607 8.97143C11.805 8.68571 11.7493 8.34286 11.7493 8.05714C11.7493 5.82857 13.5877 4 15.8719 4C17.0418 4 18.1003 4.51429 18.8802 5.25714C19.8273 5.14286 20.7187 4.8 21.4986 4.34286C21.1643 5.31429 20.5515 6.05714 19.6602 6.57143C20.4958 6.45714 21.2758 6.28571 22 5.94286C21.4986 6.74286 20.8301 7.42857 19.9944 8Z" fill="#878787"/>
</svg>
