<svg width="352" height="352" viewBox="0 0 352 352" fill="none" xmlns="http://www.w3.org/2000/svg">
<g style="mix-blend-mode:multiply">
<g style="mix-blend-mode:multiply">
<path fill-rule="evenodd" clip-rule="evenodd" d="M175.884 102.314C135.252 102.314 102.314 135.252 102.314 175.884C102.314 216.516 135.252 249.455 175.884 249.455C216.516 249.455 249.455 216.516 249.455 175.884C249.455 135.252 216.516 102.314 175.884 102.314ZM101.773 175.884C101.773 134.954 134.954 101.773 175.884 101.773C216.815 101.773 249.996 134.954 249.996 175.884C249.996 216.815 216.815 249.996 175.884 249.996C134.954 249.996 101.773 216.815 101.773 175.884Z" fill="#EFEFEF"/>
<path fill-rule="evenodd" clip-rule="evenodd" d="M175.884 102.314C135.252 102.314 102.314 135.252 102.314 175.884C102.314 216.516 135.252 249.455 175.884 249.455C216.516 249.455 249.455 216.516 249.455 175.884C249.455 135.252 216.516 102.314 175.884 102.314ZM101.773 175.884C101.773 134.954 134.954 101.773 175.884 101.773C216.815 101.773 249.996 134.954 249.996 175.884C249.996 216.815 216.815 249.996 175.884 249.996C134.954 249.996 101.773 216.815 101.773 175.884Z" stroke="#EFEFEF" stroke-miterlimit="10"/>
</g>
<g style="mix-blend-mode:multiply">
<path fill-rule="evenodd" clip-rule="evenodd" d="M175.883 118.388C144.13 118.388 118.388 144.13 118.388 175.884C118.388 207.638 144.13 233.38 175.883 233.38C207.638 233.38 233.38 207.638 233.38 175.884C233.38 144.13 207.638 118.388 175.883 118.388ZM117.847 175.884C117.847 143.831 143.831 117.847 175.883 117.847C207.936 117.847 233.921 143.831 233.921 175.884C233.921 207.936 207.936 233.921 175.883 233.921C143.831 233.921 117.847 207.936 117.847 175.884Z" fill="#DADADA"/>
<path fill-rule="evenodd" clip-rule="evenodd" d="M175.883 118.388C144.13 118.388 118.388 144.13 118.388 175.884C118.388 207.638 144.13 233.38 175.883 233.38C207.638 233.38 233.38 207.638 233.38 175.884C233.38 144.13 207.638 118.388 175.883 118.388ZM117.847 175.884C117.847 143.831 143.831 117.847 175.883 117.847C207.936 117.847 233.921 143.831 233.921 175.884C233.921 207.936 207.936 233.921 175.883 233.921C143.831 233.921 117.847 207.936 117.847 175.884Z" stroke="#EFEFEF" stroke-miterlimit="10"/>
</g>
<g style="mix-blend-mode:multiply">
<path fill-rule="evenodd" clip-rule="evenodd" d="M175.884 53.0865C108.065 53.0865 53.0864 108.065 53.0864 175.884C53.0864 243.703 108.065 298.682 175.884 298.682C243.703 298.682 298.682 243.703 298.682 175.884C298.682 108.065 243.703 53.0865 175.884 53.0865ZM52.5454 175.884C52.5454 107.766 107.766 52.5455 175.884 52.5455C244.002 52.5455 299.223 107.766 299.223 175.884C299.223 244.002 244.002 299.223 175.884 299.223C107.766 299.223 52.5454 244.002 52.5454 175.884Z" fill="#CCCCCC"/>
<path fill-rule="evenodd" clip-rule="evenodd" d="M175.884 53.0865C108.065 53.0865 53.0864 108.065 53.0864 175.884C53.0864 243.703 108.065 298.682 175.884 298.682C243.703 298.682 298.682 243.703 298.682 175.884C298.682 108.065 243.703 53.0865 175.884 53.0865ZM52.5454 175.884C52.5454 107.766 107.766 52.5455 175.884 52.5455C244.002 52.5455 299.223 107.766 299.223 175.884C299.223 244.002 244.002 299.223 175.884 299.223C107.766 299.223 52.5454 244.002 52.5454 175.884Z" stroke="#EFEFEF" stroke-miterlimit="10"/>
</g>
<g style="mix-blend-mode:multiply">
<path fill-rule="evenodd" clip-rule="evenodd" d="M176 1.54096C79.6488 1.54096 1.54096 79.6488 1.54096 176C1.54096 272.351 79.6488 350.459 176 350.459C272.351 350.459 350.459 272.351 350.459 176C350.459 79.6488 272.351 1.54096 176 1.54096ZM1 176C1 79.3502 79.3502 1 176 1C272.65 1 351 79.3502 351 176C351 272.65 272.65 351 176 351C79.3502 351 1 272.65 1 176Z" fill="#EFEFEF"/>
<path fill-rule="evenodd" clip-rule="evenodd" d="M176 1.54096C79.6488 1.54096 1.54096 79.6488 1.54096 176C1.54096 272.351 79.6488 350.459 176 350.459C272.351 350.459 350.459 272.351 350.459 176C350.459 79.6488 272.351 1.54096 176 1.54096ZM1 176C1 79.3502 79.3502 1 176 1C272.65 1 351 79.3502 351 176C351 272.65 272.65 351 176 351C79.3502 351 1 272.65 1 176Z" stroke="#EFEFEF" stroke-miterlimit="10"/>
</g>
</g>
<path d="M29.6689 206.579C29.6689 205.077 30.8867 203.859 32.3888 203.859H77.7993C79.301 203.859 80.5192 205.077 80.5192 206.579V233.056C80.5192 234.558 79.301 235.776 77.7993 235.776H32.3889C30.8867 235.776 29.6689 234.558 29.6689 233.056V206.579Z" fill="white"/>
<path fill-rule="evenodd" clip-rule="evenodd" d="M59.4221 218.736C53.7418 222.522 55.9059 222.252 49.9551 218.736L30.7529 234.953C30.973 235.449 32.1041 235.792 32.7805 235.774H76.2437C78.0062 235.792 78.7624 235.666 79.4392 234.981L59.4221 218.736Z" fill="#EFEFEF"/>
<path fill-rule="evenodd" clip-rule="evenodd" d="M70.7822 198.45V210.892L79.9785 204.839L70.7822 198.45Z" fill="#BDECFF"/>
<path fill-rule="evenodd" clip-rule="evenodd" d="M52.9633 188.368C52.4829 188.643 52.6786 189.376 53.2326 189.376H56.9966C57.5505 189.376 57.7463 188.644 57.266 188.368L55.3856 187.289C55.219 187.193 55.0138 187.193 54.8469 187.288L52.9633 188.368Z" fill="#BDECFF"/>
<path fill-rule="evenodd" clip-rule="evenodd" d="M39.4063 198.45V211.433L30.21 205.108L39.4063 198.45Z" fill="#BDECFF"/>
<path fill-rule="evenodd" clip-rule="evenodd" d="M79.9811 233.081V206.279C79.9811 205.589 79.65 204.941 79.0912 204.536L56.3667 188.041C55.6093 187.491 54.5827 187.491 53.8251 188.041L31.1007 204.536C30.5417 204.941 30.211 205.589 30.211 206.279V233.081C30.211 234.271 31.1783 235.237 32.3716 235.237H77.8205C79.0133 235.237 79.9811 234.271 79.9811 233.081ZM30.783 204.1C30.0843 204.606 29.6709 205.417 29.6709 206.279V233.081C29.6709 234.57 30.88 235.776 32.3716 235.776H77.8205C79.3119 235.776 80.521 234.57 80.521 233.081V206.279C80.521 205.417 80.1077 204.606 79.4088 204.1L56.6847 187.605C55.7375 186.918 54.4544 186.918 53.5073 187.605L30.783 204.1Z" fill="#333333"/>
<path fill-rule="evenodd" clip-rule="evenodd" d="M56.1762 221.17L71.0829 210.829C71.2338 210.727 71.3247 210.555 71.3247 210.371V189.803C71.3247 189.499 71.0823 189.253 70.7837 189.253H45.2034C45.0599 189.253 44.9223 189.311 44.8208 189.414L39.0256 195.299C38.9245 195.402 38.8675 195.542 38.8672 195.687V211.017C38.8668 211.197 38.9527 211.365 39.0972 211.468L53.2007 220.9C54.1215 221.528 54.9186 221.945 56.1762 221.17Z" fill="white"/>
<path fill-rule="evenodd" clip-rule="evenodd" d="M56.1762 221.021C55.4713 221.448 55.1873 221.505 54.5531 221.44C53.9321 221.377 53.42 221.228 52.9302 220.899L39.1357 211.433C38.8466 211.23 38.3263 210.866 38.3263 210.866L38.3262 195.564C38.3268 195.278 38.4726 194.993 38.6749 194.791L44.4382 189.027C44.6412 188.824 44.9163 188.71 45.2033 188.71H70.7837C71.3814 188.71 71.8656 189.195 71.8656 189.792V210.351H71.864L56.1762 221.021ZM52.9302 220.899L38.8671 210.926V195.565C38.8675 195.422 38.9563 195.274 39.0575 195.173L44.8208 189.41C44.9222 189.308 45.0598 189.251 45.2033 189.251H70.7837C71.0823 189.251 71.3246 189.494 71.3246 189.792L71.323 210.621L56.1762 221.021C54.8954 221.797 54.0121 221.44 52.9302 220.899Z" fill="#333333"/>
<path d="M61.7346 203.361C61.7346 204.146 61.6145 204.864 61.3733 205.517C61.132 206.164 60.7918 206.669 60.3525 207.031C59.9186 207.393 59.415 207.574 58.8416 207.574C58.4186 207.574 58.0513 207.459 57.7407 207.228C57.4297 206.998 57.2209 206.685 57.1138 206.29H57.0175C56.7551 206.718 56.4305 207.039 56.0448 207.253C55.6591 207.467 55.2253 207.574 54.7431 207.574C53.8698 207.574 53.1813 207.286 52.6777 206.71C52.1794 206.134 51.9303 205.355 51.9303 204.373C51.9303 203.243 52.2625 202.327 52.9268 201.625C53.5912 200.918 54.4832 200.564 55.6029 200.564C56.0102 200.564 56.4603 200.602 56.9531 200.679C57.4513 200.751 57.8933 200.852 58.279 200.984L58.1021 204.809V205.007C58.1021 205.885 58.3807 206.323 58.9379 206.323C59.3615 206.323 59.6963 206.044 59.9424 205.484C60.1945 204.925 60.3206 204.212 60.3206 203.345C60.3206 202.407 60.1329 201.584 59.758 200.877C59.3831 200.164 58.8497 199.615 58.1584 199.231C57.4676 198.847 56.6745 198.655 55.7798 198.655C54.6386 198.655 53.6448 198.896 52.7982 199.379C51.9571 199.862 51.3142 200.553 50.8694 201.453C50.4248 202.346 50.2024 203.386 50.2024 204.571C50.2024 206.162 50.6177 207.385 51.4481 208.241C52.2785 209.096 53.4706 209.524 55.0244 209.524C56.2082 209.524 57.4432 209.277 58.7291 208.784V210.133C57.6039 210.605 56.3797 210.84 55.0565 210.84C53.0742 210.84 51.5284 210.295 50.4194 209.203C49.3104 208.106 48.7559 206.578 48.7559 204.62C48.7559 203.189 49.0559 201.916 49.656 200.802C50.256 199.684 51.0865 198.828 52.1473 198.236C53.2135 197.643 54.4189 197.347 55.7635 197.347C56.9266 197.347 57.9604 197.593 58.8659 198.087C59.7764 198.581 60.4812 199.286 60.9795 200.202C61.4831 201.112 61.7346 202.166 61.7346 203.361ZM53.4733 204.406C53.4733 205.685 53.9635 206.323 54.944 206.323C55.9778 206.323 56.5431 205.52 56.6399 203.912L56.7362 201.946C56.3986 201.853 56.0367 201.806 55.651 201.806C54.9654 201.806 54.4296 202.04 54.0439 202.506C53.6635 202.972 53.4733 203.606 53.4733 204.406Z" fill="url(#paint0_linear)"/>
<path d="M44.8325 189.323V195.26H38.8701L44.8325 189.323Z" fill="url(#paint1_linear)"/>
<path fill-rule="evenodd" clip-rule="evenodd" d="M45.0693 188.731C45.2816 188.817 45.3586 188.972 45.3586 189.197V195.189C45.3586 195.496 45.1041 195.745 44.7902 195.745L38.5063 195.734C38.5063 195.734 38.3264 195.595 38.3262 195.385C38.3851 195.041 38.5835 194.829 38.7461 194.67L44.3883 189.041C44.5508 188.882 44.8568 188.645 45.0693 188.731ZM44.7902 189.434L39.0714 195.189H44.7902V189.434Z" fill="#333333"/>
<path fill-rule="evenodd" clip-rule="evenodd" d="M49.6346 218.782L30.21 205.482L30.5212 205.037L50.2255 218.537L53.3867 220.72C54.212 221.291 55.3171 221.291 56.1426 220.72L59.4219 218.537L79.683 204.755L79.9783 205.212L60.0175 218.795L79.5742 234.821L79.2232 235.235L59.5512 219.108L56.4467 221.17C55.4378 221.868 54.0912 221.868 53.0826 221.17L50.0907 219.105L31.0455 235.14L30.6934 234.727L49.6346 218.782Z" fill="#333333"/>
<path d="M54.0127 102.13C54.0127 100.652 55.2033 99.4543 56.6726 99.4543H82.7284C84.1976 99.4543 85.3883 100.652 85.3883 102.13V141.108C85.3883 142.586 84.2847 143.813 82.8155 143.813H56.6726C55.2033 143.813 54.0127 142.615 54.0127 141.137V102.13Z" fill="#EFEFEF"/>
<path fill-rule="evenodd" clip-rule="evenodd" d="M58.3404 99.4543H56.6726C55.2033 99.4543 54.0127 100.652 54.0127 102.13V141.137C54.0127 142.615 55.2033 143.813 56.6726 143.813H82.8155C84.2847 143.813 85.3883 142.586 85.3883 141.108V102.13C85.3883 100.652 84.1976 99.4543 82.7284 99.4543H81.0547V99.9953H82.7284C83.8958 99.9953 84.8473 100.948 84.8473 102.13V141.108C84.8473 142.322 83.952 143.272 82.8155 143.272H56.6726C55.5052 143.272 54.5537 142.319 54.5537 141.137V102.13C54.5537 100.948 55.5052 99.9953 56.6726 99.9953H58.3404V99.4543Z" fill="#333333"/>
<path fill-rule="evenodd" clip-rule="evenodd" d="M72.2047 97.2905C72.2047 96.0956 71.2083 95.1267 69.9787 95.1267C68.7496 95.1267 67.7532 96.0956 67.7532 97.2905H61.0761C60.4616 97.2905 59.9634 97.7747 59.9634 98.3725V100.536C59.9634 101.134 60.4616 101.618 61.0761 101.618H78.3251C78.9396 101.618 79.4379 101.134 79.4379 100.536V98.3725C79.4379 97.7747 78.9396 97.2905 78.3251 97.2905H72.2047Z" fill="url(#paint2_linear)"/>
<path fill-rule="evenodd" clip-rule="evenodd" d="M71.6638 97.8315V97.2905C71.6638 96.4088 70.9237 95.6677 69.9787 95.6677C69.0342 95.6677 68.2941 96.4088 68.2941 97.2905V97.8315H61.0761C60.7461 97.8315 60.5043 98.0879 60.5043 98.3725V100.536C60.5043 100.821 60.7461 101.077 61.0761 101.077H78.3251C78.6551 101.077 78.8969 100.821 78.8969 100.536V98.3725C78.8969 98.0879 78.6551 97.8315 78.3251 97.8315H71.6638ZM78.3251 97.2905C78.9396 97.2905 79.4379 97.7747 79.4379 98.3725V100.536C79.4379 101.134 78.9396 101.618 78.3251 101.618H61.0761C60.4616 101.618 59.9634 101.134 59.9634 100.536V98.3725C59.9634 97.7747 60.4616 97.2905 61.0761 97.2905H67.7532C67.7532 96.0956 68.7496 95.1267 69.9787 95.1267C71.2083 95.1267 72.2047 96.0956 72.2047 97.2905H78.3251Z" fill="#333333"/>
<path d="M57.7993 105.952C57.7993 105.351 58.291 104.865 58.898 104.865H80.5028C81.1098 104.865 81.6015 105.351 81.6015 105.952V133.807C81.6015 134.096 81.4857 134.373 81.2791 134.577L76.6339 139.166C76.4278 139.369 76.1486 139.483 75.8576 139.483H58.898C58.291 139.483 57.7993 138.996 57.7993 138.396V105.952Z" fill="white"/>
<path fill-rule="evenodd" clip-rule="evenodd" d="M80.5028 105.408H58.898C58.5945 105.408 58.3484 105.652 58.3484 105.952V138.396C58.3484 138.696 58.5945 138.94 58.898 138.94H75.8576C76.0031 138.94 76.1427 138.883 76.246 138.781L80.8907 134.192C80.994 134.09 81.0524 133.951 81.0524 133.807V105.952C81.0524 105.652 80.8063 105.408 80.5028 105.408ZM58.898 104.864C58.291 104.864 57.7993 105.351 57.7993 105.952V138.396C57.7993 138.996 58.291 139.483 58.898 139.483H75.8576C76.1486 139.483 76.4278 139.369 76.6339 139.166L81.2791 134.577C81.4857 134.373 81.6015 134.096 81.6015 133.807V105.952C81.6015 105.351 81.1098 104.864 80.5028 104.864H58.898Z" fill="#333333"/>
<path fill-rule="evenodd" clip-rule="evenodd" d="M63.7505 108.921C63.7505 108.772 63.8679 108.651 64.0134 108.651H75.3881C75.5336 108.651 75.6516 108.772 75.6516 108.921C75.6516 109.07 75.5336 109.192 75.3881 109.192H64.0134C63.8679 109.192 63.7505 109.07 63.7505 108.921Z" fill="#333333"/>
<path d="M60.5044 129.242C60.5044 128.927 60.7559 128.673 61.0665 128.673H65.3579C65.6689 128.673 65.9205 128.927 65.9205 129.242V133.507C65.9205 133.822 65.6689 134.076 65.3579 134.076H61.0665C60.7559 134.076 60.5044 133.822 60.5044 133.507V129.242Z" fill="url(#paint3_linear)"/>
<path d="M60.5044 129.242C60.5044 128.927 60.7559 128.673 61.0665 128.673H65.3579C65.6689 128.673 65.9205 128.927 65.9205 129.242V133.507C65.9205 133.822 65.6689 134.076 65.3579 134.076H61.0665C60.7559 134.076 60.5044 133.822 60.5044 133.507V129.242Z" fill="#BDECFF"/>
<path fill-rule="evenodd" clip-rule="evenodd" d="M66.0716 128.409C66.1933 128.496 66.2215 128.665 66.1344 128.786L63.4296 132.573C63.3836 132.638 63.3111 132.679 63.2321 132.686C63.1526 132.692 63.0747 132.663 63.0185 132.607L61.9365 131.525C61.8311 131.42 61.8311 131.248 61.9365 131.143C62.042 131.037 62.2135 131.037 62.319 131.143L63.1753 131.999L65.6946 128.472C65.7811 128.35 65.9499 128.322 66.0716 128.409Z" fill="#333333"/>
<path fill-rule="evenodd" clip-rule="evenodd" d="M61.2509 128.665C61.0962 128.665 61.0627 128.819 61.0627 128.975L61.0518 133.225C61.0518 133.382 61.0967 133.551 61.2509 133.551L65.7382 133.536C65.8923 133.536 65.9172 133.382 65.9172 133.226V131.101C65.9172 130.944 66.0292 130.842 66.1839 130.842C66.3381 130.842 66.4549 130.944 66.4549 131.101V133.226C66.4549 133.695 66.0676 134.076 65.6046 134.076H61.3423C60.8793 134.076 60.5168 133.717 60.5168 133.247L60.5044 128.975C60.5044 128.506 60.7879 128.125 61.2509 128.125H64.2073C64.3614 128.125 64.4864 128.252 64.4864 128.409C64.4864 128.565 64.3614 128.665 64.2073 128.665H61.2509Z" fill="#333333"/>
<path fill-rule="evenodd" clip-rule="evenodd" d="M69.4231 129.748C69.2776 129.748 69.1597 129.869 69.1597 130.019C69.1597 130.168 69.2776 130.289 69.4231 130.289H77.551C77.6965 130.289 77.815 130.168 77.815 130.019C77.815 129.869 77.6965 129.748 77.551 129.748H69.4231ZM69.4247 131.371C69.2781 131.371 69.1597 131.492 69.1597 131.641C69.1597 131.791 69.2781 131.912 69.4247 131.912H73.7632C73.9093 131.912 74.0283 131.791 74.0283 131.641C74.0283 131.492 73.9093 131.371 73.7632 131.371H69.4247Z" fill="#333333"/>
<path d="M60.5044 121.121C60.5044 120.807 60.7559 120.552 61.0659 120.552H65.3519C65.6624 120.552 65.914 120.807 65.914 121.121V125.392C65.914 125.707 65.6624 125.961 65.3519 125.961H61.0659C60.7559 125.961 60.5044 125.707 60.5044 125.392V121.121Z" fill="url(#paint4_linear)"/>
<path d="M60.5044 121.121C60.5044 120.807 60.7559 120.552 61.0659 120.552H65.3519C65.6624 120.552 65.914 120.807 65.914 121.121V125.392C65.914 125.707 65.6624 125.961 65.3519 125.961H61.0659C60.7559 125.961 60.5044 125.707 60.5044 125.392V121.121Z" fill="#BDECFF"/>
<path fill-rule="evenodd" clip-rule="evenodd" d="M66.0719 120.293C66.193 120.38 66.2212 120.549 66.1341 120.67L63.4293 124.442C63.3828 124.506 63.3108 124.547 63.2318 124.554C63.1529 124.56 63.075 124.532 63.0187 124.476L61.9368 123.398C61.8308 123.293 61.8302 123.121 61.9357 123.016C62.0412 122.91 62.2127 122.909 62.3182 123.015L63.175 123.868L65.6943 120.355C65.7814 120.234 65.9507 120.205 66.0719 120.293Z" fill="#333333"/>
<path fill-rule="evenodd" clip-rule="evenodd" d="M61.2509 120.551C61.0962 120.551 61.0627 120.704 61.0627 120.861L61.0518 125.111C61.0518 125.268 61.0967 125.437 61.2509 125.437L65.7382 125.422C65.8923 125.422 65.9172 125.268 65.9172 125.112V122.986C65.9172 122.83 66.0292 122.728 66.1839 122.728C66.3381 122.728 66.4549 122.83 66.4549 122.986V125.112C66.4549 125.581 66.0676 125.961 65.6046 125.961H61.3423C60.8793 125.961 60.5168 125.602 60.5168 125.133L60.5044 120.861C60.5044 120.391 60.7879 120.011 61.2509 120.011H64.2073C64.3614 120.011 64.4864 120.137 64.4864 120.294C64.4864 120.451 64.3614 120.551 64.2073 120.551H61.2509Z" fill="#333333"/>
<path fill-rule="evenodd" clip-rule="evenodd" d="M69.4231 121.093C69.2776 121.093 69.1597 121.214 69.1597 121.363C69.1597 121.513 69.2776 121.634 69.4231 121.634H77.551C77.6965 121.634 77.815 121.513 77.815 121.363C77.815 121.214 77.6965 121.093 77.551 121.093H69.4231ZM69.4247 122.716C69.2781 122.716 69.1597 122.837 69.1597 122.986C69.1597 123.135 69.2781 123.257 69.4247 123.257H73.7632C73.9093 123.257 74.0283 123.135 74.0283 122.986C74.0283 122.837 73.9093 122.716 73.7632 122.716H69.4247Z" fill="#333333"/>
<path d="M60.5044 113.006C60.5044 112.692 60.7559 112.437 61.0659 112.437H65.3519C65.6624 112.437 65.914 112.692 65.914 113.006V117.278C65.914 117.592 65.6624 117.847 65.3519 117.847H61.0659C60.7559 117.847 60.5044 117.592 60.5044 117.278V113.006Z" fill="url(#paint5_linear)"/>
<path d="M60.5044 113.006C60.5044 112.692 60.7559 112.437 61.0659 112.437H65.3519C65.6624 112.437 65.914 112.692 65.914 113.006V117.278C65.914 117.592 65.6624 117.847 65.3519 117.847H61.0659C60.7559 117.847 60.5044 117.592 60.5044 117.278V113.006Z" fill="#BDECFF"/>
<path fill-rule="evenodd" clip-rule="evenodd" d="M66.0716 112.18C66.1933 112.267 66.2215 112.436 66.1344 112.558L63.4296 116.344C63.3836 116.409 63.3111 116.45 63.2321 116.457C63.1526 116.463 63.0747 116.435 63.0185 116.378L61.9365 115.296C61.8311 115.191 61.8311 115.019 61.9365 114.914C62.042 114.808 62.2135 114.808 62.319 114.914L63.1753 115.77L65.6946 112.243C65.7811 112.122 65.9499 112.093 66.0716 112.18Z" fill="#333333"/>
<path fill-rule="evenodd" clip-rule="evenodd" d="M61.2509 112.436C61.0962 112.436 61.0627 112.59 61.0627 112.746L61.0518 116.997C61.0518 117.153 61.0967 117.322 61.2509 117.322L65.7382 117.307C65.8923 117.307 65.9172 117.154 65.9172 116.997V114.872C65.9172 114.715 66.0292 114.613 66.1839 114.613C66.3381 114.613 66.4549 114.715 66.4549 114.872V116.997C66.4549 117.467 66.0676 117.847 65.6046 117.847H61.3423C60.8793 117.847 60.5168 117.488 60.5168 117.018L60.5044 112.746C60.5044 112.277 60.7879 111.896 61.2509 111.896H64.2073C64.3614 111.896 64.4864 112.023 64.4864 112.18C64.4864 112.336 64.3614 112.436 64.2073 112.436H61.2509Z" fill="#333333"/>
<path fill-rule="evenodd" clip-rule="evenodd" d="M69.4231 113.519C69.2776 113.519 69.1597 113.64 69.1597 113.79C69.1597 113.939 69.2776 114.06 69.4231 114.06H77.551C77.6965 114.06 77.815 113.939 77.815 113.79C77.815 113.64 77.6965 113.519 77.551 113.519H73.4873H69.4231ZM69.4247 115.142C69.2781 115.142 69.1597 115.263 69.1597 115.413C69.1597 115.562 69.2781 115.683 69.4247 115.683H73.7632C73.9093 115.683 74.0283 115.562 74.0283 115.413C74.0283 115.263 73.9093 115.142 73.7632 115.142H69.4247Z" fill="#333333"/>
<path fill-rule="evenodd" clip-rule="evenodd" d="M76.4547 134.044C76.307 134.044 76.1853 134.228 76.1853 134.369V138.944H75.6514V134.369C75.6514 133.947 76.0122 133.535 76.4547 133.535H81.0609V134.044H76.4547Z" fill="#333333"/>
<path fill-rule="evenodd" clip-rule="evenodd" d="M157.337 64.833V53.4729H154.57C152.924 53.4729 151.927 54.6185 151.927 56.3773V64.833H157.337Z" fill="#BDECFF"/>
<path d="M157.337 39.949H181.41L186.549 45.629V64.2921H157.337V39.949Z" fill="white"/>
<path d="M180.869 39.6785L186.549 45.629H180.869V39.6785Z" fill="url(#paint6_linear)"/>
<path fill-rule="evenodd" clip-rule="evenodd" d="M157.337 39.4081H181.089L186.549 45.5245V61.4716H186.017V45.7337L180.855 39.949H157.868V64.8331H167.553V65.3741H157.337V39.4081Z" fill="#333333"/>
<path fill-rule="evenodd" clip-rule="evenodd" d="M180.771 39.4263C180.875 39.386 180.994 39.4139 181.069 39.4966L186.478 45.4472C186.55 45.5264 186.569 45.6406 186.525 45.7385C186.482 45.8364 186.385 45.8996 186.278 45.8996H180.869C180.719 45.8996 180.598 45.7785 180.598 45.6291V39.6786C180.598 39.5668 180.667 39.4665 180.771 39.4263ZM181.139 40.3782V45.3586H185.667L181.139 40.3782Z" fill="#333333"/>
<path fill-rule="evenodd" clip-rule="evenodd" d="M152.852 54.2275C153.433 53.7172 154.227 53.4729 155.099 53.4729H157.878V65.374H151.927V56.4731C151.927 55.5026 152.267 54.7421 152.852 54.2275ZM153.209 54.6338C152.756 55.0323 152.468 55.6367 152.468 56.4731V64.833H157.337V54.0139H155.099C154.324 54.0139 153.668 54.2309 153.209 54.6338Z" fill="#333333"/>
<path fill-rule="evenodd" clip-rule="evenodd" d="M186.549 53.4729V61.0463H191.958V55.9397C191.958 54.1403 190.883 53.4729 189.315 53.4729H186.549Z" fill="#BDECFF"/>
<path fill-rule="evenodd" clip-rule="evenodd" d="M186.008 53.4729H189.045C189.861 53.4729 190.595 53.6456 191.129 54.0952C191.671 54.5522 191.958 55.2548 191.958 56.2101V61.5873H186.008V53.4729ZM186.549 54.0139V61.0463H191.417V56.2101C191.417 55.3663 191.167 54.8355 190.78 54.5088C190.384 54.1748 189.797 54.0139 189.045 54.0139H186.549Z" fill="#333333"/>
<path fill-rule="evenodd" clip-rule="evenodd" d="M171.131 61.299L168.348 64.3954H152.244C150.914 64.3954 149.627 65.3275 149.775 66.2947L152.583 82.5213C152.731 83.4885 153.691 84.3075 155.022 84.3075H190.639C191.969 84.3075 193.004 83.4885 193.077 82.5213L195.189 61.9638C195.309 61.3563 194.706 60.5054 193.621 60.5054H173.025C172.301 60.5054 171.648 60.778 171.131 61.299Z" fill="url(#paint7_linear)"/>
<path fill-rule="evenodd" clip-rule="evenodd" d="M168.659 64.8428H152.31C151.766 64.8428 151.161 65.222 150.785 65.5125C150.4 65.8095 150.278 66.1194 150.309 66.3423L153.117 82.9362L153.118 82.9416C153.22 83.6238 153.914 84.3075 155.022 84.3075H190.639C191.783 84.3075 192.492 83.601 192.538 82.9811L192.539 82.9746L194.653 61.9184L194.658 61.894C194.702 61.6652 194.428 61.0463 193.62 61.0463H173.025C172.454 61.0463 171.944 61.26 171.528 61.6847L168.659 64.8428ZM171.131 61.3168L168.414 64.3018H152.31C150.98 64.3018 149.627 65.4367 149.775 66.4267L152.583 83.0217C152.731 84.0111 153.691 84.8485 155.022 84.8485H190.639C191.969 84.8485 193.004 84.0111 193.077 83.0217L195.189 61.9973C195.309 61.3758 194.706 60.5054 193.62 60.5054H173.025C172.301 60.5054 171.648 60.784 171.131 61.3168Z" fill="#333333"/>
<path d="M171.402 43.1689H161.124V52.9577H171.402V43.1689Z" fill="white"/>
<path fill-rule="evenodd" clip-rule="evenodd" d="M161.124 52.9578L164.64 49.609L166.533 51.4122L169.396 47.8058L171.402 50.7885V52.9578" fill="#E0E0E0"/>
<path fill-rule="evenodd" clip-rule="evenodd" d="M160.583 43.169C160.583 42.8845 160.825 42.6538 161.124 42.6538H171.402C171.701 42.6538 171.943 42.8845 171.943 43.169V52.9578C171.943 53.2423 171.701 53.473 171.402 53.473H161.124C160.825 53.473 160.583 53.2423 160.583 52.9578V43.169ZM171.402 43.2116V52.9578H161.124V43.1891L171.402 43.2116Z" fill="#333333"/>
<path fill-rule="evenodd" clip-rule="evenodd" d="M161.129 52.9294H171.402V50.7886L169.414 47.8059L166.639 51.7312L164.557 49.8098L161.129 52.9294ZM166.551 50.9329L164.933 49.4398C164.724 49.2466 164.391 49.2462 164.181 49.4387L160.748 52.5867C160.534 52.7841 160.527 53.1102 160.734 53.3152C160.941 53.5202 161.284 53.5263 161.499 53.3289L161.623 53.2154H170.934C171.027 53.3695 171.202 53.473 171.402 53.473C171.701 53.473 171.943 53.2424 171.943 52.9578V50.7886C171.943 50.6908 171.914 50.595 171.859 50.5125L169.871 47.5297C169.773 47.3829 169.604 47.2931 169.422 47.2907C169.239 47.2884 169.067 47.3739 168.966 47.5181L166.551 50.9329Z" fill="#333333"/>
<path fill-rule="evenodd" clip-rule="evenodd" d="M160.583 56.452C160.583 56.3102 160.704 56.1956 160.853 56.1956H183.574C183.723 56.1956 183.844 56.3102 183.844 56.452C183.844 56.5937 183.723 56.7084 183.574 56.7084H160.853C160.704 56.7084 160.583 56.5937 160.583 56.452Z" fill="#333333"/>
<path fill-rule="evenodd" clip-rule="evenodd" d="M174.377 45.0881C174.377 44.9387 174.498 44.8176 174.647 44.8176H177.893C178.042 44.8176 178.164 44.9387 178.164 45.0881C178.164 45.2375 178.042 45.3586 177.893 45.3586H174.647C174.498 45.3586 174.377 45.2375 174.377 45.0881Z" fill="#333333"/>
<path fill-rule="evenodd" clip-rule="evenodd" d="M174.377 47.7929C174.377 47.6436 174.498 47.5225 174.647 47.5225H183.303C183.452 47.5225 183.573 47.6436 183.573 47.7929C183.573 47.9423 183.452 48.0634 183.303 48.0634H178.975H174.647C174.498 48.0634 174.377 47.9423 174.377 47.7929Z" fill="#333333"/>
<path fill-rule="evenodd" clip-rule="evenodd" d="M174.377 50.4977C174.377 50.3483 174.498 50.2272 174.647 50.2272H183.303C183.452 50.2272 183.573 50.3483 183.573 50.4977C183.573 50.647 183.452 50.7681 183.303 50.7681H174.647C174.498 50.7681 174.377 50.647 174.377 50.4977Z" fill="#333333"/>
<path fill-rule="evenodd" clip-rule="evenodd" d="M160.701 59.1552C160.701 59.0059 160.822 58.8848 160.971 58.8848H167.463C167.612 58.8848 167.733 59.0059 167.733 59.1552C167.733 59.3045 167.612 59.4257 167.463 59.4257H160.971C160.822 59.4257 160.701 59.3045 160.701 59.1552Z" fill="#333333"/>
<path d="M164.91 45.6599C164.91 46.2575 164.426 46.7418 163.828 46.7418C163.231 46.7418 162.747 46.2575 162.747 45.6599C162.747 45.0624 163.231 44.578 163.828 44.578C164.426 44.578 164.91 45.0624 164.91 45.6599Z" fill="url(#paint8_linear)"/>
<path d="M104.325 268.774C104.325 267.579 105.294 266.61 106.489 266.61H153.011C154.206 266.61 155.175 267.579 155.175 268.774V312.051C155.175 313.246 154.206 314.215 153.011 314.215H106.489C105.294 314.215 104.325 313.246 104.325 312.051V268.774Z" fill="white"/>
<path d="M127.045 308.535V300.42C127.045 299.673 126.439 299.068 125.692 299.068C124.946 299.068 124.34 299.673 124.34 300.42V308.535C124.34 309.282 124.946 309.887 125.692 309.887C126.439 309.887 127.045 309.282 127.045 308.535Z" fill="url(#paint9_linear)"/>
<path d="M132.454 308.535V298.797C132.454 298.05 131.849 297.445 131.102 297.445C130.355 297.445 129.75 298.05 129.75 298.797V308.535C129.75 309.282 130.355 309.887 131.102 309.887C131.849 309.887 132.454 309.282 132.454 308.535Z" fill="url(#paint10_linear)"/>
<path d="M137.864 308.535V296.093C137.864 295.346 137.259 294.74 136.512 294.74C135.765 294.74 135.159 295.346 135.159 296.093V308.535C135.159 309.282 135.765 309.887 136.512 309.887C137.259 309.887 137.864 309.282 137.864 308.535Z" fill="url(#paint11_linear)"/>
<path d="M143.274 308.535V294.47C143.274 293.723 142.668 293.117 141.921 293.117C141.175 293.117 140.569 293.723 140.569 294.47V308.535C140.569 309.282 141.175 309.887 141.921 309.887C142.668 309.887 143.274 309.282 143.274 308.535Z" fill="url(#paint12_linear)"/>
<path d="M148.683 308.535V290.142C148.683 289.395 148.078 288.79 147.331 288.79C146.584 288.79 145.979 289.395 145.979 290.142V308.535C145.979 309.282 146.584 309.887 147.331 309.887C148.078 309.887 148.683 309.282 148.683 308.535Z" fill="url(#paint13_linear)"/>
<path d="M103.784 269.315C103.784 267.822 104.995 266.61 106.488 266.61H117.849V314.756H106.488C104.995 314.756 103.784 313.545 103.784 312.051V269.315Z" fill="#EFEFEF"/>
<path fill-rule="evenodd" clip-rule="evenodd" d="M109.504 273.643H113.291C113.44 273.643 113.561 273.522 113.561 273.373C113.561 273.223 113.44 273.102 113.291 273.102H109.504C109.355 273.102 109.233 273.223 109.233 273.373C109.233 273.522 109.355 273.643 109.504 273.643ZM109.504 293.117H113.291C113.44 293.117 113.561 292.996 113.561 292.847C113.561 292.698 113.44 292.577 113.291 292.577H109.504C109.355 292.577 109.233 292.698 109.233 292.847C109.233 292.996 109.355 293.117 109.504 293.117ZM113.291 283.38H109.504C109.355 283.38 109.233 283.259 109.233 283.11C109.233 282.96 109.355 282.839 109.504 282.839H113.291C113.44 282.839 113.561 282.96 113.561 283.11C113.561 283.259 113.44 283.38 113.291 283.38ZM109.504 302.855H113.291C113.44 302.855 113.561 302.734 113.561 302.584C113.561 302.435 113.44 302.314 113.291 302.314H109.504C109.355 302.314 109.233 302.435 109.233 302.584C109.233 302.734 109.355 302.855 109.504 302.855ZM113.291 278.512H109.504C109.355 278.512 109.233 278.39 109.233 278.241C109.233 278.092 109.355 277.971 109.504 277.971H113.291C113.44 277.971 113.561 278.092 113.561 278.241C113.561 278.39 113.44 278.512 113.291 278.512ZM109.504 297.986H113.291C113.44 297.986 113.561 297.865 113.561 297.716C113.561 297.566 113.44 297.445 113.291 297.445H109.504C109.355 297.445 109.233 297.566 109.233 297.716C109.233 297.865 109.355 297.986 109.504 297.986ZM113.291 288.249H109.504C109.355 288.249 109.233 288.128 109.233 287.978C109.233 287.829 109.355 287.708 109.504 287.708H113.291C113.44 287.708 113.561 287.829 113.561 287.978C113.561 288.128 113.44 288.249 113.291 288.249ZM109.504 307.723H113.291C113.44 307.723 113.561 307.602 113.561 307.453C113.561 307.304 113.44 307.182 113.291 307.182H109.504C109.355 307.182 109.233 307.304 109.233 307.453C109.233 307.602 109.355 307.723 109.504 307.723Z" fill="#333333"/>
<path fill-rule="evenodd" clip-rule="evenodd" d="M153.011 266.611H106.488C105.294 266.611 104.325 267.579 104.325 268.774V312.051C104.325 313.246 105.294 314.215 106.488 314.215H153.011C154.206 314.215 155.175 313.246 155.175 312.051V268.774C155.175 267.579 154.206 266.611 153.011 266.611ZM106.488 266.07C104.995 266.07 103.784 267.281 103.784 268.774V312.051C103.784 313.545 104.995 314.756 106.488 314.756H153.011C154.505 314.756 155.716 313.545 155.716 312.051V268.774C155.716 267.281 154.505 266.07 153.011 266.07H106.488Z" fill="#333333"/>
<path d="M132.898 271.321C134.064 271.321 136.241 272.832 136.512 273.643L131.643 276.889L132.898 271.321Z" fill="#BDECFF"/>
<path fill-rule="evenodd" clip-rule="evenodd" d="M136.316 273.466C135.966 273.007 135.405 272.534 134.753 272.141C134.109 271.753 133.452 271.489 132.929 271.387L131.89 276.604L136.316 273.466ZM137.045 273.612C136.345 272.206 133.895 270.799 132.495 270.799L131.095 277.832L137.045 273.612Z" fill="#333333"/>
<path fill-rule="evenodd" clip-rule="evenodd" d="M130.749 271.246C130.778 271.393 130.682 271.536 130.536 271.564C127.684 272.127 125.683 274.789 125.993 277.741C126.322 280.867 129.117 283.135 132.237 282.807C135.357 282.479 137.62 279.679 137.291 276.553C137.254 276.202 137.186 275.861 137.089 275.534C137.047 275.39 137.13 275.239 137.273 275.197C137.416 275.155 137.567 275.237 137.609 275.381C137.714 275.739 137.788 276.112 137.829 276.497C138.189 279.92 135.711 282.987 132.294 283.346C128.877 283.705 125.815 281.221 125.455 277.798C125.115 274.564 127.307 271.649 130.431 271.032C130.577 271.004 130.72 271.099 130.749 271.246Z" fill="#333333"/>
<path fill-rule="evenodd" clip-rule="evenodd" d="M149.649 279.973C142.467 288.48 131.244 293.442 123.283 294.169L123.234 293.629C131.059 292.914 142.138 288.021 149.223 279.641L147.464 279.822C147.316 279.837 147.183 279.729 147.169 279.58C147.153 279.431 147.262 279.298 147.41 279.282L149.827 279.034C149.975 279.018 150.108 279.127 150.122 279.275L150.365 281.703C150.38 281.851 150.272 281.985 150.123 282C149.975 282.015 149.843 281.907 149.827 281.758L149.649 279.973Z" fill="#333333"/>
<path d="M212.515 309.887C212.515 311.381 213.726 312.592 215.219 312.592H257.414C258.908 312.592 260.119 311.381 260.119 309.887V270.938C260.119 269.445 258.908 268.233 257.414 268.233H215.219C213.726 268.233 212.515 269.445 212.515 270.938V309.887Z" fill="#EFEFEF"/>
<path fill-rule="evenodd" clip-rule="evenodd" d="M257.414 268.774H215.219C214.024 268.774 213.056 269.743 213.056 270.938V309.887C213.056 311.082 214.024 312.051 215.219 312.051H257.414C258.609 312.051 259.578 311.082 259.578 309.887V270.938C259.578 269.743 258.609 268.774 257.414 268.774ZM215.219 268.233C213.726 268.233 212.515 269.445 212.515 270.938V309.887C212.515 311.381 213.726 312.592 215.219 312.592H257.414C258.908 312.592 260.119 311.381 260.119 309.887V270.938C260.119 269.445 258.908 268.233 257.414 268.233H215.219Z" fill="#333333"/>
<path d="M216.842 282.298C216.842 281.7 217.326 281.216 217.924 281.216H254.709C255.307 281.216 255.791 281.7 255.791 282.298V292.035C255.791 292.633 255.307 293.117 254.709 293.117H217.924C217.326 293.117 216.842 292.633 216.842 292.035V282.298Z" fill="white"/>
<path fill-rule="evenodd" clip-rule="evenodd" d="M217.672 281.228C217.218 281.228 216.849 281.607 216.849 282.076V292.261C216.849 292.729 217.218 293.109 217.672 293.109H254.965C255.42 293.109 255.787 292.729 255.787 292.261V282.076C255.787 281.607 255.42 281.228 254.965 281.228H231.383V280.662H254.965C255.722 280.662 256.336 281.295 256.336 282.076V292.261C256.336 293.042 255.722 293.675 254.965 293.675H217.672C216.915 293.675 216.301 293.042 216.301 292.261V282.076C216.301 281.295 216.915 280.662 217.672 280.662H222.608V281.228H217.672Z" fill="#333333"/>
<path d="M227.12 287.167C221.568 287.167 220.088 290.413 220.088 290.413H234.153C234.153 290.413 232.672 287.167 227.12 287.167Z" fill="url(#paint14_linear)"/>
<path d="M227.12 287.167C221.568 287.167 220.088 290.413 220.088 290.413H234.153C234.153 290.413 232.672 287.167 227.12 287.167Z" fill="#BDECFF"/>
<path fill-rule="evenodd" clip-rule="evenodd" d="M219.596 290.188L220.088 290.413H234.153L234.645 290.188C234.721 290.356 234.707 290.551 234.608 290.705C234.508 290.86 234.337 290.954 234.153 290.954H220.088C219.904 290.954 219.732 290.86 219.633 290.705C219.533 290.551 219.519 290.356 219.596 290.188ZM233.809 289.872C234.053 290.195 234.153 290.413 234.153 290.413C234.645 290.188 234.645 290.188 234.644 290.188V290.187L234.643 290.185L234.641 290.181L234.635 290.168C234.63 290.158 234.624 290.145 234.616 290.129C234.6 290.098 234.577 290.055 234.547 290.003C234.486 289.897 234.395 289.753 234.269 289.583C234.018 289.244 233.624 288.8 233.046 288.36C231.885 287.474 230.01 286.626 227.12 286.626C224.23 286.626 222.356 287.474 221.194 288.36C220.617 288.8 220.223 289.244 219.972 289.583C219.845 289.753 219.755 289.897 219.694 290.003C219.664 290.055 219.64 290.098 219.625 290.129C219.617 290.145 219.61 290.158 219.605 290.168L219.599 290.181L219.597 290.185L219.596 290.187V290.188C219.596 290.188 219.596 290.188 220.088 290.413C220.088 290.413 220.187 290.195 220.431 289.872C221.129 288.948 223.007 287.167 227.12 287.167C231.233 287.167 233.112 288.948 233.809 289.872ZM233.662 290.64L233.662 290.639C233.662 290.64 233.662 290.64 233.662 290.64ZM220.578 290.64C220.578 290.64 220.578 290.64 220.579 290.639L220.578 290.64Z" fill="#333333"/>
<path d="M225.498 285.544H228.743V288.069L227.12 289.331L225.498 288.069V285.544Z" fill="white"/>
<path d="M230.367 283.38C230.367 285.173 228.913 286.626 227.121 286.626C225.328 286.626 223.875 285.173 223.875 283.38C223.875 281.588 225.328 280.135 227.121 280.135C228.913 280.135 230.367 281.588 230.367 283.38Z" fill="white"/>
<path fill-rule="evenodd" clip-rule="evenodd" d="M227.121 286.085C228.614 286.085 229.826 284.874 229.826 283.38C229.826 281.887 228.614 280.675 227.121 280.675C225.627 280.675 224.416 281.887 224.416 283.38C224.416 284.874 225.627 286.085 227.121 286.085ZM227.121 286.626C228.913 286.626 230.367 285.173 230.367 283.38C230.367 281.588 228.913 280.135 227.121 280.135C225.328 280.135 223.875 281.588 223.875 283.38C223.875 285.173 225.328 286.626 227.121 286.626Z" fill="#333333"/>
<path fill-rule="evenodd" clip-rule="evenodd" d="M227.175 281.089C227.722 282.028 228.473 283.11 229.826 283.11C229.826 282.028 228.323 280.675 227.175 280.675C225.618 280.675 224.416 281.757 224.416 283.38C225.83 283.143 226.82 282.298 227.175 281.089Z" fill="#AAAAAA"/>
<path fill-rule="evenodd" clip-rule="evenodd" d="M226.803 280.697C225.61 280.834 224.687 281.634 224.466 282.821C224.433 282.999 224.416 283.186 224.416 283.38C224.605 283.348 224.787 283.306 224.96 283.253C225.847 282.983 226.522 282.443 226.918 281.713C227.004 281.556 227.076 281.391 227.134 281.217C227.149 281.175 227.162 281.132 227.175 281.089C227.2 281.133 227.225 281.176 227.251 281.22C227.341 281.37 227.437 281.523 227.539 281.672C227.961 282.29 228.506 282.861 229.281 283.047C229.451 283.088 229.632 283.11 229.826 283.11C229.826 282.933 229.786 282.75 229.714 282.566C229.394 281.75 228.446 280.931 227.574 280.725C227.438 280.693 227.304 280.675 227.175 280.675C227.048 280.675 226.924 280.683 226.803 280.697ZM227.255 282.206C227.809 282.945 228.612 283.651 229.826 283.651C230.124 283.651 230.367 283.408 230.367 283.11C230.367 282.346 229.861 281.603 229.295 281.087C228.723 280.565 227.935 280.135 227.175 280.135C225.343 280.135 223.875 281.436 223.875 283.38C223.875 283.539 223.945 283.69 224.067 283.793C224.188 283.896 224.348 283.94 224.505 283.914C225.709 283.712 226.674 283.107 227.255 282.206Z" fill="#333333"/>
<path fill-rule="evenodd" clip-rule="evenodd" d="M228.744 285.589C228.893 285.589 229.014 285.71 229.014 285.859V287.823C229.014 287.898 228.983 287.97 228.928 288.021L227.305 289.529C227.201 289.626 227.041 289.626 226.937 289.529L225.314 288.021C225.259 287.97 225.228 287.898 225.228 287.823V286.085C225.228 285.936 225.349 285.815 225.498 285.815C225.647 285.815 225.768 285.936 225.768 286.085V287.705L227.121 288.961L228.473 287.705V285.859C228.473 285.71 228.594 285.589 228.744 285.589Z" fill="#333333"/>
<path fill-rule="evenodd" clip-rule="evenodd" d="M236.37 285.252C236.37 285.103 236.491 284.981 236.641 284.981H251.166C251.316 284.981 251.437 285.103 251.437 285.252C251.437 285.401 251.316 285.522 251.166 285.522H236.641C236.491 285.522 236.37 285.401 236.37 285.252Z" fill="#333333"/>
<path fill-rule="evenodd" clip-rule="evenodd" d="M236.413 288.004C236.413 287.855 236.534 287.733 236.684 287.733H247.67C247.819 287.733 247.94 287.855 247.94 288.004C247.94 288.153 247.819 288.274 247.67 288.274H236.684C236.534 288.274 236.413 288.153 236.413 288.004Z" fill="#333333"/>
<path d="M216.842 297.25C216.842 296.653 217.326 296.168 217.924 296.168H254.709C255.307 296.168 255.791 296.653 255.791 297.25V306.988C255.791 307.585 255.307 308.07 254.709 308.07H217.924C217.326 308.07 216.842 307.585 216.842 306.988V297.25Z" fill="white"/>
<path fill-rule="evenodd" clip-rule="evenodd" d="M217.662 296.352C217.211 296.352 216.846 296.719 216.846 297.17V306.978C216.846 307.429 216.994 307.696 217.445 307.696H255.176C255.627 307.696 255.771 307.303 255.771 306.978L255.81 297.17C255.81 296.719 255.444 296.352 254.992 296.352H231.475V295.808H254.992C255.745 295.808 256.354 296.418 256.354 297.17L256.316 306.978C256.316 307.493 256.05 308.241 254.921 308.241H217.445C216.693 308.241 216.301 307.73 216.301 306.978V297.17C216.301 296.418 216.91 295.808 217.662 295.808H222.806V296.352H217.662Z" fill="#333333"/>
<path d="M227.12 302.006C221.568 302.006 220.088 305.557 220.088 305.557H234.153C234.153 305.557 232.672 302.006 227.12 302.006Z" fill="url(#paint15_linear)"/>
<path d="M227.12 302.006C221.568 302.006 220.088 305.557 220.088 305.557H234.153C234.153 305.557 232.672 302.006 227.12 302.006Z" fill="#BDECFF"/>
<path fill-rule="evenodd" clip-rule="evenodd" d="M219.596 305.338L220.088 305.562H234.153L234.645 305.338C234.721 305.505 234.707 305.7 234.608 305.855C234.508 306.01 234.337 306.103 234.153 306.103H220.088C219.904 306.103 219.732 306.01 219.633 305.855C219.533 305.7 219.519 305.505 219.596 305.338ZM233.809 305.021C234.053 305.344 234.153 305.562 234.153 305.562C234.645 305.338 234.645 305.338 234.644 305.337V305.337L234.643 305.335L234.641 305.33L234.635 305.318C234.63 305.307 234.624 305.295 234.616 305.279C234.6 305.247 234.577 305.205 234.547 305.152C234.486 305.047 234.395 304.903 234.269 304.733C234.018 304.393 233.624 303.95 233.046 303.509C231.885 302.623 230.01 301.776 227.12 301.776C224.23 301.776 222.356 302.623 221.194 303.509C220.617 303.95 220.223 304.393 219.972 304.733C219.845 304.903 219.755 305.047 219.694 305.152C219.664 305.205 219.64 305.247 219.625 305.279C219.617 305.295 219.61 305.307 219.605 305.318L219.599 305.33L219.597 305.335L219.596 305.337V305.337C219.596 305.338 219.596 305.338 220.088 305.562C220.088 305.562 220.187 305.344 220.431 305.021C221.129 304.098 223.007 302.316 227.12 302.316C231.233 302.316 233.112 304.098 233.809 305.021ZM233.662 305.79L233.662 305.789C233.662 305.791 233.662 305.791 233.662 305.79ZM220.578 305.79C220.578 305.791 220.578 305.79 220.579 305.789L220.578 305.79Z" fill="#333333"/>
<path d="M225.498 300.496H228.743V303.021L227.12 304.283L225.498 303.021V300.496Z" fill="white"/>
<path d="M230.367 298.332C230.367 300.125 228.913 301.578 227.121 301.578C225.328 301.578 223.875 300.125 223.875 298.332C223.875 296.54 225.328 295.087 227.121 295.087C228.913 295.087 230.367 296.54 230.367 298.332Z" fill="white"/>
<path fill-rule="evenodd" clip-rule="evenodd" d="M227.121 301.037C228.614 301.037 229.826 299.826 229.826 298.332C229.826 296.838 228.614 295.628 227.121 295.628C225.627 295.628 224.416 296.838 224.416 298.332C224.416 299.826 225.627 301.037 227.121 301.037ZM227.121 301.578C228.913 301.578 230.367 300.125 230.367 298.332C230.367 296.54 228.913 295.087 227.121 295.087C225.328 295.087 223.875 296.54 223.875 298.332C223.875 300.125 225.328 301.578 227.121 301.578Z" fill="#333333"/>
<path fill-rule="evenodd" clip-rule="evenodd" d="M227.175 296.041C227.722 296.98 228.473 298.062 229.826 298.062C229.826 296.98 228.323 295.627 227.175 295.627C225.618 295.627 224.416 296.709 224.416 298.332C225.83 298.095 226.82 297.25 227.175 296.041Z" fill="#AAAAAA"/>
<path fill-rule="evenodd" clip-rule="evenodd" d="M226.803 295.649C225.61 295.786 224.687 296.586 224.466 297.773C224.433 297.951 224.416 298.138 224.416 298.332C224.605 298.3 224.787 298.258 224.96 298.205C225.847 297.935 226.522 297.395 226.918 296.665C227.004 296.508 227.076 296.342 227.134 296.168C227.149 296.127 227.162 296.084 227.175 296.041C227.2 296.085 227.225 296.128 227.251 296.172C227.341 296.322 227.437 296.474 227.539 296.624C227.961 297.242 228.506 297.814 229.281 297.999C229.451 298.04 229.632 298.062 229.826 298.062C229.826 297.885 229.786 297.702 229.714 297.518C229.394 296.702 228.446 295.883 227.574 295.677C227.438 295.645 227.304 295.628 227.175 295.628C227.048 295.628 226.924 295.635 226.803 295.649ZM227.255 297.158C227.809 297.897 228.612 298.603 229.826 298.603C230.124 298.603 230.367 298.36 230.367 298.062C230.367 297.298 229.861 296.555 229.295 296.039C228.723 295.517 227.935 295.087 227.175 295.087C225.343 295.087 223.875 296.388 223.875 298.332C223.875 298.491 223.945 298.642 224.067 298.745C224.188 298.848 224.348 298.892 224.505 298.866C225.709 298.664 226.674 298.059 227.255 297.158Z" fill="#333333"/>
<path fill-rule="evenodd" clip-rule="evenodd" d="M228.744 300.541C228.893 300.541 229.014 300.662 229.014 300.811V302.775C229.014 302.85 228.983 302.921 228.928 302.973L227.305 304.481C227.201 304.577 227.041 304.577 226.937 304.481L225.314 302.973C225.259 302.921 225.228 302.85 225.228 302.775V301.037C225.228 300.888 225.349 300.767 225.498 300.767C225.647 300.767 225.768 300.888 225.768 301.037V302.657L227.121 303.913L228.473 302.657V300.811C228.473 300.662 228.594 300.541 228.744 300.541Z" fill="#333333"/>
<path fill-rule="evenodd" clip-rule="evenodd" d="M236.413 300.441C236.413 300.296 236.534 300.179 236.684 300.179H251.209C251.359 300.179 251.48 300.296 251.48 300.441C251.48 300.586 251.359 300.704 251.209 300.704H236.684C236.534 300.704 236.413 300.586 236.413 300.441Z" fill="#333333"/>
<path fill-rule="evenodd" clip-rule="evenodd" d="M236.413 303.112C236.413 302.963 236.534 302.842 236.684 302.842H247.67C247.819 302.842 247.94 302.963 247.94 303.112C247.94 303.261 247.819 303.383 247.67 303.383H236.684C236.534 303.383 236.413 303.261 236.413 303.112Z" fill="#333333"/>
<path fill-rule="evenodd" clip-rule="evenodd" d="M217.817 273.643H255.356C256.194 273.643 256.873 274.369 256.873 275.266C256.873 276.162 256.194 276.889 255.356 276.889H217.817C216.98 276.889 216.301 276.162 216.301 275.266C216.301 274.369 216.98 273.643 217.817 273.643ZM217.817 274.183C217.287 274.183 216.858 274.699 216.858 275.266C216.858 275.833 217.287 276.348 217.817 276.348H255.356C255.886 276.348 256.315 275.833 256.315 275.266C256.315 274.699 255.886 274.183 255.356 274.183H217.817Z" fill="#333333"/>
<path d="M246.595 273.643H255.286C256.163 273.643 256.873 274.369 256.873 275.266C256.873 276.162 256.163 276.889 255.286 276.889H246.595V273.643Z" fill="url(#paint16_linear)"/>
<path fill-rule="evenodd" clip-rule="evenodd" d="M255.286 274.184H247.136V276.348H255.286C255.852 276.348 256.332 275.875 256.332 275.266C256.332 274.657 255.852 274.184 255.286 274.184ZM246.595 273.643V276.889H255.286C256.163 276.889 256.873 276.162 256.873 275.266C256.873 274.369 256.163 273.643 255.286 273.643H246.595Z" fill="#333333"/>
<path d="M278.512 187.05C278.512 185.263 280.21 183.844 281.735 183.844H311.058C312.583 183.844 314.215 185.511 314.215 187.009V231.41C314.215 233.505 312.481 234.694 310.955 234.694H281.738C280.006 234.694 278.512 233.32 278.512 231.219V187.05Z" fill="white"/>
<path fill-rule="evenodd" clip-rule="evenodd" d="M278.512 187.09C278.512 185.384 280.038 183.844 281.756 183.844H310.956C312.674 183.844 314.202 185.384 314.202 187.09V211.433H313.66V187.084C313.66 185.689 312.362 184.385 310.956 184.385H281.756C280.35 184.385 279.053 185.694 279.053 187.09V204.941L278.512 204.936V187.09ZM279.05 226.579V231.613C279.05 233.008 280.274 234.132 281.68 234.132H310.999C312.404 234.132 313.65 233.001 313.65 231.606V226.58H314.215V231.606C314.215 233.311 312.717 234.694 310.999 234.694H281.68C279.962 234.694 278.513 233.318 278.513 231.613V226.579H279.05Z" fill="#333333"/>
<path d="M306.64 190.029H285.908C285.305 190.029 284.817 190.551 284.817 191.195V203.437C284.817 204.081 285.305 204.603 285.908 204.603H306.64C307.243 204.603 307.731 204.081 307.731 203.437V191.195C307.731 190.551 307.243 190.029 306.64 190.029Z" fill="#BDECFF"/>
<path fill-rule="evenodd" clip-rule="evenodd" d="M285.021 204.603L291.946 198.154L296.665 202.231L303.259 192.877L307.733 199.265V204.603" fill="white"/>
<path fill-rule="evenodd" clip-rule="evenodd" d="M286.116 189.794H306.61C307.523 189.794 308.264 190.557 308.264 191.497V203.238C308.264 204.179 307.523 204.941 306.61 204.941H286.116C285.202 204.941 284.462 204.179 284.462 203.238V191.497C284.462 190.557 285.202 189.794 286.116 189.794ZM286.116 190.362H306.61C307.219 190.362 307.713 190.87 307.713 191.497V203.238C307.713 203.865 307.219 204.374 306.61 204.374H286.116C285.507 204.374 285.013 203.865 285.013 203.238V191.497C285.013 190.87 285.507 190.362 286.116 190.362Z" fill="#333333"/>
<path fill-rule="evenodd" clip-rule="evenodd" d="M303.279 192.671C303.366 192.672 303.448 192.717 303.498 192.791L307.896 199.26C307.984 199.388 307.954 199.566 307.832 199.657C307.709 199.748 307.538 199.718 307.451 199.59L303.27 193.439L296.897 202.339C296.851 202.403 296.782 202.444 296.706 202.452C296.63 202.46 296.555 202.435 296.497 202.382L291.974 198.201L285.476 204.308C285.364 204.414 285.192 204.404 285.091 204.287C284.991 204.17 285 203.99 285.112 203.885L291.791 197.607C291.894 197.51 292.05 197.51 292.154 197.605L296.638 201.75L303.057 192.785C303.11 192.712 303.192 192.67 303.279 192.671Z" fill="#333333"/>
<path fill-rule="evenodd" clip-rule="evenodd" d="M289.425 195.98C290.075 195.98 290.601 195.43 290.601 194.753C290.601 194.075 290.075 193.525 289.425 193.525C288.775 193.525 288.249 194.075 288.249 194.753C288.249 195.43 288.775 195.98 289.425 195.98ZM289.425 196.549C290.376 196.549 291.147 195.745 291.147 194.753C291.147 193.76 290.376 192.956 289.425 192.956C288.474 192.956 287.704 193.76 287.704 194.753C287.704 195.745 288.474 196.549 289.425 196.549Z" fill="#333333"/>
<path fill-rule="evenodd" clip-rule="evenodd" d="M294.203 210.08C294.203 209.931 294.325 209.81 294.476 209.81H305.83C305.981 209.81 306.103 209.931 306.103 210.08C306.103 210.23 305.981 210.351 305.83 210.351H294.476C294.325 210.351 294.203 210.23 294.203 210.08Z" fill="#333333"/>
<path fill-rule="evenodd" clip-rule="evenodd" d="M294.203 215.49C294.203 215.341 294.325 215.219 294.476 215.219H305.83C305.981 215.219 306.103 215.341 306.103 215.49C306.103 215.639 305.981 215.76 305.83 215.76H294.476C294.325 215.76 294.203 215.639 294.203 215.49Z" fill="#333333"/>
<path fill-rule="evenodd" clip-rule="evenodd" d="M294.203 220.9C294.203 220.75 294.331 220.629 294.488 220.629H303.113C303.271 220.629 303.398 220.75 303.398 220.9C303.398 221.049 303.271 221.17 303.113 221.17H294.488C294.331 221.17 294.203 221.049 294.203 220.9Z" fill="#333333"/>
<path fill-rule="evenodd" clip-rule="evenodd" d="M294.203 212.785C294.203 212.636 294.325 212.515 294.476 212.515H305.83C305.981 212.515 306.103 212.636 306.103 212.785C306.103 212.934 305.981 213.056 305.83 213.056H294.476C294.325 213.056 294.203 212.934 294.203 212.785Z" fill="#333333"/>
<path fill-rule="evenodd" clip-rule="evenodd" d="M300.67 218.195C300.67 218.045 300.791 217.924 300.94 217.924H306.052C306.201 217.924 306.322 218.045 306.322 218.195C306.322 218.344 306.201 218.465 306.052 218.465H300.94C300.791 218.465 300.67 218.344 300.67 218.195Z" fill="#333333"/>
<path fill-rule="evenodd" clip-rule="evenodd" d="M294.203 218.195C294.203 218.045 294.318 217.924 294.459 217.924H298.335C298.477 217.924 298.591 218.045 298.591 218.195C298.591 218.344 298.477 218.465 298.335 218.465H294.459C294.318 218.465 294.203 218.344 294.203 218.195Z" fill="#333333"/>
<path fill-rule="evenodd" clip-rule="evenodd" d="M286.089 224.145C286.089 223.996 286.216 223.875 286.373 223.875H290.673C290.83 223.875 290.957 223.996 290.957 224.145C290.957 224.295 290.83 224.416 290.673 224.416H286.373C286.216 224.416 286.089 224.295 286.089 224.145Z" fill="#333333"/>
<path fill-rule="evenodd" clip-rule="evenodd" d="M292.04 224.145C292.04 223.996 292.165 223.875 292.32 223.875H301.171C301.326 223.875 301.452 223.996 301.452 224.145C301.452 224.295 301.326 224.416 301.171 224.416H292.32C292.165 224.416 292.04 224.295 292.04 224.145Z" fill="#333333"/>
<path d="M319.677 216.466L315.575 212.374L302.42 225.578L306.616 229.561L319.677 216.466Z" fill="url(#paint17_linear)"/>
<path fill-rule="evenodd" clip-rule="evenodd" d="M306.157 229.465L322.224 213.293C322.442 213.073 322.442 212.715 322.224 212.495L319.301 209.554C319.083 209.333 318.728 209.333 318.509 209.554L302.443 225.726C302.374 225.795 302.324 225.881 302.299 225.975L301.191 230.032C301.076 230.453 301.461 230.84 301.88 230.724L305.909 229.61C306.003 229.584 306.088 229.534 306.157 229.465ZM322.619 213.691C323.057 213.251 323.057 212.537 322.619 212.097L319.697 209.155C319.259 208.715 318.551 208.715 318.114 209.155L302.047 225.327C301.909 225.466 301.81 225.637 301.759 225.826L300.652 229.882C300.422 230.725 301.19 231.499 302.028 231.268L306.058 230.153C306.245 230.101 306.415 230.001 306.553 229.863L322.619 213.691Z" fill="#333333"/>
<path d="M317.461 214.678L304.116 228.11L303.735 227.727L317.08 214.295L317.461 214.678Z" fill="white"/>
<path fill-rule="evenodd" clip-rule="evenodd" d="M302.284 225.448L306.491 229.403L306.109 229.815L301.902 225.86L302.284 225.448Z" fill="#333333"/>
<path fill-rule="evenodd" clip-rule="evenodd" d="M315.554 212.374L319.679 216.412L319.288 216.816L315.164 212.778L315.554 212.374Z" fill="#333333"/>
<path fill-rule="evenodd" clip-rule="evenodd" d="M301.613 227.786L303.978 230.261L303.574 230.652L301.209 228.178L301.613 227.786Z" fill="#333333"/>
<path fill-rule="evenodd" clip-rule="evenodd" d="M316.596 211.329L320.524 215.285L320.128 215.683L316.2 211.728L316.596 211.329Z" fill="#333333"/>
<path d="M271.479 207.973C271.479 207.667 272.129 207.105 272.445 207.105H290.923C291.503 207.105 292.035 207.698 292.035 208.2V220.192C292.035 220.498 291.78 220.746 291.464 220.746H282.723C282.546 220.746 282.379 220.825 282.271 220.962L279.695 224.2C279.451 224.508 278.964 224.482 278.755 224.15L276.904 221.531C276.618 220.954 275.961 220.746 275.762 220.746H272.05C271.735 220.746 271.479 220.498 271.479 220.192V207.973Z" fill="url(#paint18_linear)"/>
<path fill-rule="evenodd" clip-rule="evenodd" d="M290.947 207.657H272.567C272.267 207.657 272.023 207.905 272.023 208.21V220.069C272.023 220.374 272.267 220.621 272.567 220.621H276.027C276.591 220.621 277.114 220.915 277.412 221.4L278.85 223.604C279.049 223.927 279.504 223.953 279.738 223.654L281.716 221.25C282.025 220.852 282.497 220.621 282.995 220.621H290.947C291.248 220.621 291.491 220.374 291.491 220.069V208.21C291.491 207.905 291.248 207.657 290.947 207.657ZM272.567 207.105C271.966 207.105 271.479 207.6 271.479 208.21V220.069C271.479 220.679 271.966 221.174 272.567 221.174H276.027C276.403 221.174 276.751 221.37 276.95 221.693L278.388 223.896C278.787 224.544 279.697 224.595 280.164 223.997L282.142 221.593C282.348 221.328 282.663 221.174 282.995 221.174H290.947C291.548 221.174 292.035 220.679 292.035 220.069V208.21C292.035 207.6 291.548 207.105 290.947 207.105H272.567Z" fill="#333333"/>
<path fill-rule="evenodd" clip-rule="evenodd" d="M275.266 212.785C275.266 212.636 275.39 212.515 275.543 212.515H288.512C288.665 212.515 288.79 212.636 288.79 212.785C288.79 212.934 288.665 213.056 288.512 213.056H275.543C275.39 213.056 275.266 212.934 275.266 212.785Z" fill="white"/>
<path fill-rule="evenodd" clip-rule="evenodd" d="M275.266 214.949C275.266 214.8 275.388 214.678 275.54 214.678H284.188C284.339 214.678 284.462 214.8 284.462 214.949C284.462 215.098 284.339 215.219 284.188 215.219H275.54C275.388 215.219 275.266 215.098 275.266 214.949Z" fill="white"/>
<path d="M293.658 117.161C293.658 116.345 293.02 115.683 292.241 115.683H269.103C268.324 115.683 267.692 116.345 267.692 117.161V129.719C267.692 130.532 268.253 131.296 269.029 131.301L277.435 131.39C278.151 131.395 277.919 132.874 277.956 133.623C278.019 134.906 278.902 135.148 279.692 134.168L281.969 131.848C282.239 131.513 282.545 131.456 282.963 131.459L292.241 131.374C293.022 131.378 293.658 130.715 293.658 129.896V117.161Z" fill="#9ADAF3"/>
<path fill-rule="evenodd" clip-rule="evenodd" d="M282.348 132.265L282.365 132.244C282.534 132.035 282.777 131.92 283.027 131.922H292.238C293.339 131.928 294.199 131 294.199 129.899V117.165C294.199 116.064 293.334 115.142 292.24 115.142H269.103C268.006 115.142 267.151 116.068 267.151 117.165V129.722C267.151 130.814 268.001 131.915 269.092 131.923H269.093L277.423 131.908V132.989C277.423 132.989 277.412 133.451 277.423 133.676C277.458 134.394 277.732 135.069 278.396 135.269C279.036 135.461 279.654 135.072 280.095 134.536L282.348 132.265ZM279.692 134.17C278.902 135.151 278.043 134.892 277.98 133.61C277.971 133.416 277.971 131.923 277.971 131.923C277.971 131.923 277.954 131.381 277.423 131.377H269.097C268.321 131.373 267.692 130.535 267.692 129.722V117.165C267.692 116.349 268.324 115.687 269.103 115.687H292.24C293.019 115.687 293.658 116.349 293.658 117.165V129.899C293.658 130.718 293.022 131.381 292.24 131.376H283.03C282.612 131.374 282.214 131.566 281.945 131.9L279.692 134.17Z" fill="#333333"/>
<path fill-rule="evenodd" clip-rule="evenodd" d="M273.643 121.634C273.643 121.335 273.888 121.093 274.19 121.093H288.243C288.545 121.093 288.79 121.335 288.79 121.634C288.79 121.932 288.545 122.175 288.243 122.175H274.19C273.888 122.175 273.643 121.932 273.643 121.634Z" fill="white"/>
<path fill-rule="evenodd" clip-rule="evenodd" d="M273.643 124.609C273.643 124.46 273.761 124.339 273.907 124.339H283.117C283.262 124.339 283.38 124.46 283.38 124.609C283.38 124.758 283.262 124.879 283.117 124.879H273.907C273.761 124.879 273.643 124.758 273.643 124.609Z" fill="white"/>
<path d="M247.677 97.1754C247.677 96.3428 248.316 95.6677 249.095 95.6677H272.232C273.011 95.6677 273.643 96.3428 273.643 97.1754V109.991C273.643 110.819 273.016 111.493 272.241 111.498L263.921 111.605C263.205 111.609 263.519 113.182 263.482 113.947C263.42 115.256 262.354 115.503 261.563 114.503L259.366 112.162C259.096 111.821 258.699 111.625 258.282 111.627L249.095 111.678C248.313 111.683 247.677 111.007 247.677 110.171V97.1754Z" fill="url(#paint19_linear)"/>
<path fill-rule="evenodd" clip-rule="evenodd" d="M258.963 112.217L258.946 112.196C258.778 111.986 258.534 111.872 258.284 111.873L249.097 111.923C247.996 111.929 247.136 111.001 247.136 109.898V97.1515C247.136 96.0496 248.001 95.1267 249.095 95.1267H272.232C273.329 95.1267 274.184 96.0534 274.184 97.1515V109.879C274.184 110.971 273.338 111.895 272.246 111.903H272.244L263.908 111.896V112.807C263.908 112.807 263.908 113.469 263.896 113.694C263.861 114.413 263.603 115.074 262.939 115.274C262.299 115.466 261.681 115.077 261.24 114.54L258.963 112.217ZM261.643 114.174C262.433 115.156 263.292 114.93 263.355 113.647C263.364 113.453 263.355 111.903 263.355 111.903C263.355 111.903 263.355 111.358 263.896 111.358H272.241C273.016 111.353 273.643 110.692 273.643 109.879V97.1515C273.643 96.3347 273.011 95.6725 272.232 95.6725H249.095C248.316 95.6725 247.677 96.3347 247.677 97.1515V109.898C247.677 110.718 248.313 111.381 249.095 111.377L258.282 111.327C258.699 111.325 259.096 111.517 259.366 111.852L261.643 114.174Z" fill="#333333"/>
<path fill-rule="evenodd" clip-rule="evenodd" d="M252.67 101.604C252.67 101.305 252.913 101.063 253.211 101.063H267.11C267.409 101.063 267.651 101.305 267.651 101.604C267.651 101.903 267.409 102.145 267.11 102.145H253.211C252.913 102.145 252.67 101.903 252.67 101.604Z" fill="white"/>
<path fill-rule="evenodd" clip-rule="evenodd" d="M252.67 104.587C252.67 104.433 252.792 104.307 252.941 104.307H262.387C262.536 104.307 262.658 104.433 262.658 104.587C262.658 104.742 262.536 104.867 262.387 104.867H252.941C252.792 104.867 252.67 104.742 252.67 104.587Z" fill="white"/>
<path d="M173.636 190.811L151.203 179.646L172.619 167.091L197.757 179.405L173.636 190.811Z" fill="#EFEFEF"/>
<path fill-rule="evenodd" clip-rule="evenodd" d="M198.179 179.516L173.836 190.876L180.868 200.197L203.859 188.713L198.179 179.516ZM173.836 214.679L198.179 203.048V191.417L181.409 200.073C181.177 200.191 180.757 200.282 180.598 200.073L173.836 191.193V214.679Z" fill="#BDECFF"/>
<path d="M173.566 190.876L151.386 179.516L144.083 188.713L165.722 200.343L173.566 190.876Z" fill="#9ADAF3"/>
<path d="M173.565 191.147L165.992 200.343C165.828 200.544 165.678 200.464 165.451 200.343L151.386 192.638L151.116 201.966L173.565 214.679V191.147Z" fill="#9ADAF3"/>
<path fill-rule="evenodd" clip-rule="evenodd" d="M173.566 166.533L185.737 160.762L173.628 154.903L161.665 160.762L173.566 166.533Z" fill="url(#paint20_linear)"/>
<path d="M173.836 180.869L185.737 174.648V160.853L173.836 166.533V180.869Z" fill="url(#paint21_linear)"/>
<path d="M173.566 180.869L161.665 174.648V160.853L173.566 166.533V180.869Z" fill="url(#paint22_linear)"/>
<path fill-rule="evenodd" clip-rule="evenodd" d="M173.507 154.747C173.581 154.712 173.667 154.711 173.741 154.746L185.939 160.518C186.034 160.563 186.094 160.658 186.094 160.762V173.279L198.305 179.312C198.35 179.334 198.388 179.369 198.415 179.412L204.058 188.476C204.098 188.54 204.109 188.618 204.089 188.691C204.069 188.764 204.019 188.826 203.951 188.86L198.374 191.702C198.424 191.751 198.455 191.819 198.455 191.894V203.005C198.455 203.11 198.396 203.204 198.301 203.249L173.742 215C173.661 215.039 173.567 215.035 173.49 214.991L151.1 202.119C151.016 202.071 150.964 201.982 150.964 201.885V192.78C150.964 192.753 150.968 192.728 150.975 192.704L143.762 188.857C143.691 188.82 143.64 188.751 143.625 188.672C143.608 188.593 143.628 188.512 143.679 188.449L151.024 179.385C151.045 179.359 151.07 179.338 151.099 179.321L161.387 173.333V160.762C161.387 160.658 161.447 160.564 161.54 160.519L173.507 154.747ZM161.929 173.492C161.929 173.489 161.929 173.486 161.929 173.482V161.198L173.354 166.832V180.485L161.929 174.516V173.492ZM161.387 173.958L151.802 179.537L173.631 190.53L197.555 179.545L186.094 173.883V174.679C186.094 174.781 186.037 174.874 185.947 174.92L173.749 181.173C173.671 181.213 173.578 181.213 173.499 181.172L161.533 174.919C161.443 174.873 161.387 174.78 161.387 174.679V173.958ZM198.08 179.9L174.045 190.935L180.926 199.987L203.442 188.512L198.08 179.9ZM173.202 190.92L151.308 179.894L144.307 188.535L165.784 199.988L173.202 190.92ZM173.354 191.589L166.063 200.502C165.981 200.602 165.839 200.63 165.725 200.569L151.506 192.987V201.729L173.354 214.288V191.589ZM173.896 214.327L197.913 202.835V191.937L180.971 200.572C180.854 200.631 180.711 200.599 180.632 200.495L173.896 191.634V214.327ZM173.896 180.489L185.552 174.514V161.194L173.896 166.834V180.489ZM173.626 166.363L185.196 160.765L173.626 155.29L162.275 160.765L173.626 166.363ZM192.822 159.136C192.971 159.136 193.093 159.257 193.093 159.407V167.409C193.093 167.558 192.971 167.679 192.822 167.679C192.672 167.679 192.551 167.558 192.551 167.409V159.407C192.551 159.257 192.672 159.136 192.822 159.136ZM153.051 159.857C153.201 159.857 153.322 159.978 153.322 160.128V164.601C153.322 164.751 153.201 164.872 153.051 164.872C152.902 164.872 152.78 164.751 152.78 164.601V160.128C152.78 159.978 152.902 159.857 153.051 159.857ZM153.051 167.497C153.201 167.497 153.322 167.618 153.322 167.767V172.509C153.322 172.658 153.201 172.779 153.051 172.779C152.902 172.779 152.78 172.658 152.78 172.509V167.767C152.78 167.618 152.902 167.497 153.051 167.497ZM192.822 170.062C192.971 170.062 193.093 170.183 193.093 170.332V171.88C193.093 172.029 192.971 172.151 192.822 172.151C192.672 172.151 192.551 172.029 192.551 171.88V170.332C192.551 170.183 192.672 170.062 192.822 170.062Z" fill="#333333"/>
<defs>
<linearGradient id="paint0_linear" x1="55.2453" y1="197.347" x2="55.2453" y2="210.84" gradientUnits="userSpaceOnUse">
<stop stop-color="#FF8E3D"/>
<stop offset="1" stop-color="#FF6F3D"/>
</linearGradient>
<linearGradient id="paint1_linear" x1="41.8513" y1="189.323" x2="41.8513" y2="195.26" gradientUnits="userSpaceOnUse">
<stop stop-color="#FF8E3D"/>
<stop offset="1" stop-color="#FF6F3D"/>
</linearGradient>
<linearGradient id="paint2_linear" x1="59.9634" y1="94.873" x2="63.7425" y2="106.653" gradientUnits="userSpaceOnUse">
<stop stop-color="#FFC671"/>
<stop offset="0.59375" stop-color="#FF7541"/>
<stop offset="1" stop-color="#FF6F3D"/>
</linearGradient>
<linearGradient id="paint3_linear" x1="60.5044" y1="128.462" x2="65.9064" y2="134.089" gradientUnits="userSpaceOnUse">
<stop stop-color="#FFC671"/>
<stop offset="0.59375" stop-color="#FF7541"/>
<stop offset="1" stop-color="#FF6F3D"/>
</linearGradient>
<linearGradient id="paint4_linear" x1="60.5044" y1="120.34" x2="65.914" y2="125.961" gradientUnits="userSpaceOnUse">
<stop stop-color="#FFC671"/>
<stop offset="0.59375" stop-color="#FF7541"/>
<stop offset="1" stop-color="#FF6F3D"/>
</linearGradient>
<linearGradient id="paint5_linear" x1="60.5044" y1="112.226" x2="65.914" y2="117.847" gradientUnits="userSpaceOnUse">
<stop stop-color="#FFC671"/>
<stop offset="0.59375" stop-color="#FF7541"/>
<stop offset="1" stop-color="#FF6F3D"/>
</linearGradient>
<linearGradient id="paint6_linear" x1="180.869" y1="39.446" x2="186.824" y2="45.3521" gradientUnits="userSpaceOnUse">
<stop stop-color="#FFC671"/>
<stop offset="0.59375" stop-color="#FF7541"/>
<stop offset="1" stop-color="#FF6F3D"/>
</linearGradient>
<linearGradient id="paint7_linear" x1="149.831" y1="65.1246" x2="171.433" y2="99.3327" gradientUnits="userSpaceOnUse">
<stop stop-color="#FFC671"/>
<stop offset="0.652615" stop-color="#FF8657"/>
</linearGradient>
<linearGradient id="paint8_linear" x1="163.828" y1="44.578" x2="163.828" y2="46.7418" gradientUnits="userSpaceOnUse">
<stop stop-color="#FF8E3D"/>
<stop offset="1" stop-color="#FF6F3D"/>
</linearGradient>
<linearGradient id="paint9_linear" x1="125.692" y1="299.068" x2="125.692" y2="309.887" gradientUnits="userSpaceOnUse">
<stop stop-color="#FF8E3D"/>
<stop offset="1" stop-color="#FF6F3D"/>
</linearGradient>
<linearGradient id="paint10_linear" x1="131.102" y1="297.445" x2="131.102" y2="309.887" gradientUnits="userSpaceOnUse">
<stop stop-color="#FF8E3D"/>
<stop offset="1" stop-color="#FF6F3D"/>
</linearGradient>
<linearGradient id="paint11_linear" x1="136.512" y1="294.74" x2="136.512" y2="309.887" gradientUnits="userSpaceOnUse">
<stop stop-color="#FF8E3D"/>
<stop offset="1" stop-color="#FF6F3D"/>
</linearGradient>
<linearGradient id="paint12_linear" x1="141.921" y1="293.117" x2="141.921" y2="309.887" gradientUnits="userSpaceOnUse">
<stop stop-color="#FF8E3D"/>
<stop offset="1" stop-color="#FF6F3D"/>
</linearGradient>
<linearGradient id="paint13_linear" x1="147.331" y1="288.79" x2="147.331" y2="309.887" gradientUnits="userSpaceOnUse">
<stop stop-color="#FF8E3D"/>
<stop offset="1" stop-color="#FF6F3D"/>
</linearGradient>
<linearGradient id="paint14_linear" x1="227.12" y1="287.167" x2="227.12" y2="290.413" gradientUnits="userSpaceOnUse">
<stop stop-color="#FF8E3D"/>
<stop offset="1" stop-color="#FF6F3D"/>
</linearGradient>
<linearGradient id="paint15_linear" x1="227.12" y1="302.006" x2="227.12" y2="305.557" gradientUnits="userSpaceOnUse">
<stop stop-color="#FF8E3D"/>
<stop offset="1" stop-color="#FF6F3D"/>
</linearGradient>
<linearGradient id="paint16_linear" x1="246.595" y1="273.516" x2="248.402" y2="279.463" gradientUnits="userSpaceOnUse">
<stop stop-color="#FFC671"/>
<stop offset="0.59375" stop-color="#FF7541"/>
<stop offset="1" stop-color="#FF6F3D"/>
</linearGradient>
<linearGradient id="paint17_linear" x1="302.42" y1="211.702" x2="319.605" y2="229.63" gradientUnits="userSpaceOnUse">
<stop stop-color="#FFC671"/>
<stop offset="0.59375" stop-color="#FF7541"/>
<stop offset="1" stop-color="#FF6F3D"/>
</linearGradient>
<linearGradient id="paint18_linear" x1="271.479" y1="206.429" x2="288.427" y2="227.34" gradientUnits="userSpaceOnUse">
<stop stop-color="#FFC671"/>
<stop offset="0.59375" stop-color="#FF7541"/>
<stop offset="1" stop-color="#FF6F3D"/>
</linearGradient>
<linearGradient id="paint19_linear" x1="260.66" y1="95.6677" x2="260.66" y2="115.117" gradientUnits="userSpaceOnUse">
<stop stop-color="#FF8E3D"/>
<stop offset="1" stop-color="#FF6F3D"/>
</linearGradient>
<linearGradient id="paint20_linear" x1="161.665" y1="154.448" x2="170.564" y2="173.588" gradientUnits="userSpaceOnUse">
<stop stop-color="#FFC671"/>
<stop offset="0.59375" stop-color="#FF7541"/>
<stop offset="1" stop-color="#FF6F3D"/>
</linearGradient>
<linearGradient id="paint21_linear" x1="174.069" y1="166.983" x2="186.439" y2="168.88" gradientUnits="userSpaceOnUse">
<stop stop-color="#FFC671"/>
<stop offset="0.770352" stop-color="#FF7541"/>
<stop offset="1" stop-color="#FF6F3D"/>
</linearGradient>
<linearGradient id="paint22_linear" x1="162.084" y1="161.438" x2="162.884" y2="181.773" gradientUnits="userSpaceOnUse">
<stop stop-color="#FFC671"/>
<stop offset="0.59375" stop-color="#FF7541"/>
<stop offset="1" stop-color="#FF6F3D"/>
</linearGradient>
</defs>
</svg>
