<svg width="24" height="24" viewBox="0 0 24 24" fill="none" xmlns="http://www.w3.org/2000/svg">
<path fill-rule="evenodd" clip-rule="evenodd" d="M20.6078 4.48939C21.5501 4.753 22.2931 5.52465 22.5467 6.5036C23.018 8.29168 22.9999 12.0188 22.9999 12.0188C22.9999 12.0188 22.9999 15.727 22.5469 17.5152C22.2931 18.494 21.5502 19.2658 20.6078 19.5293C18.8862 20 12 20 12 20C12 20 5.1317 20 3.39214 19.5106C2.44969 19.247 1.7068 18.4752 1.45302 17.4964C1 15.727 1 12 1 12C1 12 1 8.29168 1.45302 6.5036C1.70663 5.52482 2.46781 4.73417 3.39197 4.47073C5.11357 4 11.9998 4 11.9998 4C11.9998 4 18.8862 4 20.6078 4.48939ZM15.7017 12.0112L9.70261 15.5293V8.49316L15.7017 12.0112Z" fill="#4C4C4C"/>
</svg>
